<?xml version="1.0" encoding="utf-8"?>
<!-- Generator: Adobe Illustrator 16.0.0, SVG Export Plug-In . SVG Version: 6.00 Build 0)  -->
<!DOCTYPE svg PUBLIC "-//W3C//DTD SVG 1.1//EN" "http://www.w3.org/Graphics/SVG/1.1/DTD/svg11.dtd">
<svg version="1.1" id="Layer_1" xmlns="http://www.w3.org/2000/svg" xmlns:xlink="http://www.w3.org/1999/xlink" x="0px" y="0px"
	 width="725px" height="130px" viewBox="0 0 725 130" enable-background="new 0 0 725 130" xml:space="preserve">
<g>
	<g>
		<path fill="#464B50" d="M511.398,98.022c-4.336-0.162-12.527-0.269-20.869-0.269h-12.213c-4.056,0-8.448,0.082-14.242,0.271
			l-1.587,0.048l-1.32-0.88c-1.769-1.176-2.864-3.335-2.932-5.771c-0.065-2.288,0.822-4.291,2.431-5.5l1.04-0.781
			c0,0,4.883-0.644,4.946-0.65c0.097-0.978,0.147-2.588,0.147-4.817V45.768c0-2.284-0.054-3.926-0.157-4.907
			c-0.061-0.008-3.86-0.533-3.86-0.533l-0.868-0.52c-1.985-1.191-3.161-3.505-3.064-6.04c0.1-2.54,1.471-4.773,3.579-5.829
			l1.137-0.567l1.271,0.049c4.641,0.179,9.178,0.27,13.48,0.27c4.357,0,8.83-0.091,13.292-0.27l1.766-0.07l1.409,1.062
			c1.604,1.207,2.523,3.232,2.523,5.558c-0.003,2.324-0.922,4.348-2.525,5.551l-0.994,0.746c0,0-3.799,0.586-3.889,0.601
			c-0.104,0.97-0.157,2.609-0.157,4.901v31.903c0,3.882,0.351,5.2,0.498,5.577c0.45,0.146,1.795,0.406,5.577,0.406
			c7.236,0,7.669,0,11.807-8.138l0.232-0.455l0.319-0.399c1.207-1.507,3.093-2.37,5.173-2.37c2.663,0,5.19,1.384,6.436,3.524
			l0.804,1.376l-0.152,1.586c-0.509,5.275-2.871,13.52-4.45,16.572l-1.446,2.79L511.398,98.022z"/>
		<path fill="#464B50" d="M484.788,77.671c0,4.281,0.362,7.197,1.548,8.658c1.185,1.548,2.827,2.278,9.48,2.278
			c8.293,0,10.847-0.273,16.223-10.847c0.73-0.912,2.828-0.547,3.464,0.546c-0.455,4.74-2.644,12.306-3.918,14.766
			c-4.832-0.182-13.582-0.271-21.056-0.271h-12.213c-4.193,0-8.75,0.09-14.402,0.271c-0.82-0.547-1.001-2.642-0.273-3.188
			l3.464-0.457c4.102-0.547,4.647-1.275,4.647-9.754V45.768c0-8.476-0.546-9.297-4.647-9.843l-2.644-0.365
			c-0.912-0.546-0.912-2.642,0.184-3.19c4.738,0.183,9.297,0.273,13.672,0.273s8.932-0.091,13.49-0.273
			c0.728,0.548,0.728,2.644,0,3.19l-2.37,0.365c-4.102,0.639-4.648,1.368-4.648,9.843V77.671z"/>
		<path fill="#464B50" d="M535.458,99.21c-2.796,0-4.607-1.021-5.636-1.877l-0.947-0.79l-0.465-1.145
			c-0.488-1.192-1.098-2.917-1.743-4.745c-0.689-1.949-1.42-4.029-2.08-5.63L509.8,47.874c-0.662-1.675-2.143-5.417-2.878-6.552
			c-0.169-0.046-5.947-1.485-5.947-1.485l-1.057-1.452c-1.224-1.681-1.661-3.851-1.194-5.955c0.421-1.912,1.574-3.514,3.161-4.393
			l1.165-0.647l1.333,0.027c1.761,0.035,3.287,0.082,4.76,0.128c2.387,0.074,4.629,0.144,7.538,0.144
			c3.841,0,7.502-0.074,13.51-0.271l1.741-0.057l1.393,1.044c3.058,2.293,3.108,7.01,1.241,9.81l-1.14,1.708l-1.953,0.391
			c0.503,1.328,1.211,3.144,2.203,5.622l6.646,16.989l1.938-4.794c1.93-4.863,5.306-13.631,6.776-17.632l-2.295-0.502l-1.025-1.028
			c-1.589-1.59-2.283-4.047-1.814-6.414c0.436-2.203,1.814-3.938,3.778-4.756l1.016-0.425l1.101,0.047
			c4.362,0.185,7.756,0.269,11.001,0.269c2.927,0,5.59-0.086,8.136-0.261l1.353-0.093l1.209,0.607
			c1.802,0.903,2.997,2.744,3.277,5.049c0.307,2.521-0.475,4.854-2.095,6.241l-0.996,0.853l-3.659,0.704
			c-1.739,0.312-1.848,0.486-2.013,0.751c-1.845,2.776-4.046,7.706-7.025,14.805l-6.658,15.779
			c-2.871,6.811-4.866,12.155-6.47,16.448c-0.983,2.641-1.825,4.888-2.624,6.837l-0.606,1.478l-1.354,0.844
			C539.719,98.7,537.709,99.21,535.458,99.21z"/>
		<path fill="#464B50" d="M547.761,70.195c-4.648,11.028-7.019,18.229-9.113,23.334c-0.73,0.457-1.823,0.728-3.189,0.728
			c-1.096,0-1.916-0.271-2.462-0.728c-1.004-2.46-2.552-7.292-3.829-10.393l-14.765-37.095c-3.463-8.75-3.92-8.933-6.837-9.662
			l-3.645-0.912c-0.73-1.002-0.457-2.643,0.365-3.099c4.648,0.092,7.654,0.273,12.395,0.273c4.193,0,8.111-0.091,13.672-0.273
			c0.73,0.548,0.639,2.279,0.092,3.099l-2.735,0.547c-1.64,0.365-2.278,0.912-2.278,1.733c0,0.728,1.458,4.556,3.645,10.025
			l8.022,20.509c1.277,3.372,2.37,6.104,3.009,7.657c0.728-1.553,2.187-4.648,3.279-7.386l3.466-8.567
			c2.278-5.743,6.196-15.951,7.291-19.049c0.637-1.732,0.91-2.735,0.91-3.282c0-0.638-0.729-1.002-2.917-1.549l-2.917-0.639
			c-0.728-0.729-0.728-2.643,0.365-3.099c4.286,0.183,7.749,0.273,11.212,0.273c3.099,0,5.834-0.091,8.478-0.273
			c0.728,0.365,0.819,2.553,0.181,3.099l-2.37,0.456c-2.551,0.456-4.102,1.093-5.286,3.007c-2.005,3.009-4.283,8.113-7.382,15.495
			L547.761,70.195z"/>
		<path fill="#464B50" d="M614.833,98.022c-4.337-0.162-12.525-0.269-20.867-0.269h-11.851c-4.498,0-9.105,0.097-15.544,0.271
			l-1.727,0.046l-1.381-1.038c-1.705-1.281-2.622-3.451-2.518-5.954c0.102-2.351,1.144-4.317,2.863-5.394l0.876-0.549
			c0,0,5.504-0.822,5.594-0.837c0.092-0.945,0.138-2.493,0.138-4.626V45.677c0-2.202-0.051-3.774-0.149-4.698
			c-0.148-0.032-3.756-0.756-3.756-0.756l-0.815-0.543c-1.787-1.192-2.822-3.34-2.765-5.745c0.059-2.491,1.233-4.664,3.145-5.812
			l1.276-0.767l1.485,0.064c4.184,0.178,8.527,0.269,12.912,0.269h19.324c7.173,0,10.798-0.131,11.485-0.219l5.24-0.674l0.431,5.26
			c0.036,0.56,0.155,1.894,0.312,3.667c0.249,2.815,0.592,6.693,0.868,10.406l0.079,1.057l-0.36,0.997
			c-0.904,2.501-3.402,4.123-6.377,4.148c-0.17,2.776-0.254,5.872-0.254,9.205c0,3.393,0.089,6.541,0.264,9.354l0.089,1.446
			l-0.701,1.263c-1.115,2.012-3.384,3.216-6.068,3.216c-2.3,0-4.321-0.909-5.548-2.488l-0.713-0.921l-0.688-3.42
			c-0.099-0.479-0.186-0.825-0.259-1.074c-0.338-0.029-0.854-0.053-1.63-0.053h-3.886v8.721c0,3.782,0.341,5.202,0.51,5.676
			c0.493,0.148,1.874,0.399,5.564,0.399c6.91,0,7.798,0,11.59-7.787l0.188-0.393l0.257-0.353c1.214-1.669,3.189-2.629,5.425-2.629
			c3.101,0,5.774,1.782,6.655,4.438l0.312,0.943l-0.075,0.994c-0.401,5.241-2.719,13.304-4.37,16.487l-1.446,2.785L614.833,98.022z"
			/>
		<path fill="#464B50" d="M588.406,56.341c0,2.551,0.089,2.734,2.551,2.734h6.288c4.74,0,5.834-0.637,6.745-5.012l0.457-2.279
			c0.637-0.729,2.917-0.729,3.372,0.092c-0.182,2.917-0.273,6.197-0.273,9.661c0,3.464,0.092,6.746,0.273,9.663
			c-0.455,0.817-2.735,0.909-3.372,0.092l-0.457-2.28c-0.911-4.375-2.005-5.104-6.745-5.104h-6.288
			c-2.462,0-2.551,0.092-2.551,2.826v10.847c0,4.193,0.362,7.11,1.458,8.658c1.185,1.64,2.917,2.37,9.569,2.37
			c7.931,0,11.029-0.273,16.042-10.573c0.729-1.002,3.009-0.639,3.372,0.454c-0.363,4.74-2.552,12.124-3.829,14.584
			c-4.829-0.182-13.579-0.271-21.053-0.271h-11.851c-4.375,0-8.84,0.09-15.677,0.271c-0.728-0.547-0.728-2.733,0-3.188l4.283-0.639
			c4.102-0.639,4.648-1.186,4.648-9.572V45.677c0-8.294-0.547-8.841-4.648-9.662l-2.278-0.456c-0.819-0.546-0.728-2.642,0.184-3.19
			c4.283,0.183,8.75,0.273,13.123,0.273h19.324c5.833,0,11.028-0.091,12.213-0.273c0.092,1.458,0.73,8.021,1.186,14.129
			c-0.363,1.002-2.46,1.184-3.372,0.364c-1.003-3.19-2.278-5.924-3.463-7.201c-1.731-1.731-4.467-2.825-8.934-2.825h-7.292
			c-3.006,0-3.006,0.182-3.006,3.554V56.341z"/>
		<path fill="#464B50" d="M639.527,99.21c-9.702,0-15.787-2.878-17.952-4.116l-0.737-0.421l-0.554-0.641
			c-4.005-4.637-4.121-16.649-4.121-18.003v-1.251l0.592-1.098c1.186-2.201,3.572-3.567,6.23-3.567c2.261,0,4.354,1.019,5.597,2.726
			l0.488,0.668l0.242,0.793c1.361,4.418,6.041,10.812,10.943,10.812c4.414,0,4.89-2.975,4.89-4.254
			c0-3.569-3.068-6.767-9.656-10.061c-13.638-6.818-16.502-15.837-16.502-22.204c-0.053-5.864,2-11.086,5.938-15.059
			c4.735-4.777,11.708-7.304,20.163-7.304c2.854,0,7.219,0.289,11.812,1.667c1.045,0.321,1.654,0.449,2.491,0.589l2.85,0.477
			l0.988,2.713c0.968,2.652,1.942,8.235,1.942,14.729v0.993l-0.382,0.917c-1.016,2.429-3.473,3.938-6.412,3.938
			c-2.138,0-4.104-0.825-5.397-2.263l-0.689-0.767l-0.326-0.978c-0.979-2.94-3.628-7.916-7.333-7.916
			c-2.801,0-4.344,1.252-4.344,3.524c0,1.808,2.314,4.273,5.625,5.994l6.054,3.209c10.276,5.471,15.483,13.106,15.483,22.698
			C667.449,89.785,656.228,99.21,639.527,99.21z"/>
		<path fill="#464B50" d="M639.527,94.257c-8.387,0-13.582-2.37-15.495-3.463c-1.731-2.003-2.916-8.566-2.916-14.765
			c0.638-1.186,2.732-1.275,3.463-0.273c1.823,5.925,7.931,14.31,15.677,14.31c6.745,0,9.843-4.648,9.843-9.207
			c0-7.381-6.926-11.759-12.395-14.491c-6.563-3.281-13.764-8.75-13.764-17.773c-0.092-10.299,7.931-17.41,21.147-17.41
			c3.006,0,6.745,0.365,10.39,1.458c1.186,0.365,2.005,0.548,3.099,0.73c0.73,2.005,1.642,6.926,1.642,13.033
			c-0.457,1.094-2.735,1.185-3.555,0.273c-1.551-4.648-5.469-11.301-12.032-11.301c-6.015,0-9.297,3.919-9.297,8.477
			c0,4.192,3.736,8.021,8.296,10.39l6.015,3.19c5.651,3.008,12.852,8.295,12.852,18.321
			C662.496,86.968,653.289,94.257,639.527,94.257z"/>
		<polygon fill="#464B50" points="591.327,85.028 591.327,65.68 609.12,70.246 612.912,76.824 610.126,85.028 		"/>
	</g>
	<g>
		<path fill="#464B50" d="M68.445,99.21c-1.98,0-3.829-0.57-5.34-1.649l-1.076-0.769l-0.549-1.2
			c-0.754-1.649-1.714-3.905-2.614-6.021l-0.9-2.111L55.289,81.4l-2.696,5.684c-0.585,1.253-1.11,2.472-1.635,3.692
			c-0.687,1.597-1.378,3.195-2.208,4.912l-0.365,0.755l-0.595,0.593c-1.802,1.797-4.583,2.174-6.598,2.174
			c-2.138,0-3.604-0.648-4.866-1.352l-1.579-0.878l-0.643-1.688c-1.142-2.999-4.015-9.599-8.085-18.586L11.176,44.563
			c-0.336-0.734-1.284-2.805-1.78-3.522C9.25,41,9.014,40.943,8.626,40.86l-3.993-0.798l-1.127-1.41
			C2.14,36.941,1.62,34.5,2.15,32.281c0.481-2.006,1.772-3.617,3.543-4.421l1.105-0.502l1.212,0.065
			c3.304,0.179,7.093,0.266,11.58,0.266c3.846,0,7.367-0.087,10.767-0.266l1.306-0.069l1.17,0.584
			c0.126,0.064,0.249,0.132,0.37,0.203c0.29-0.167,0.598-0.31,0.919-0.427l0.931-0.34l0.992,0.046
			c3.976,0.186,7.446,0.269,11.253,0.269c4.475,0,7.875-0.087,10.103-0.259l0.8-0.062l0.779,0.194
			c0.312,0.078,0.612,0.179,0.899,0.302l0.97-0.539l1.466,0.102c2.406,0.166,5.539,0.261,8.59,0.261c3.584,0,6.75-0.092,8.917-0.259
			l1.623-0.125l0.75,0.468l0.789-0.439l1.449,0.091c2.559,0.16,6.121,0.264,9.079,0.264c2.994,0,5.545-0.083,8.032-0.261l1.47-0.105
			l1.289,0.717c1.649,0.918,2.757,2.566,3.118,4.644c0.399,2.301-0.172,4.596-1.526,6.142l-1.049,1.196l-4.283,1
			c-0.769,0.167-1.217,0.337-1.441,0.44c-0.687,1.116-1.998,3.561-4.245,8.81c-1.246,2.971-2.938,6.934-4.822,11.339
			c-4.808,11.249-10.794,25.251-13.967,33.667l-0.459,1.219l-1.001,0.837C72.591,99.028,69.625,99.21,68.445,99.21z"/>
		<path fill="#464B50" d="M99.434,36.198c-2.095,0.456-3.463,1.185-4.102,2.005c-1.001,1.458-2.551,4.375-5.011,10.118
			c-4.467,10.664-14.402,33.36-18.869,45.209c-0.547,0.457-1.821,0.728-3.006,0.728c-1.003,0-1.823-0.271-2.462-0.728
			c-1.001-2.189-2.37-5.469-3.463-8.022l-3.829-8.658c-1.277-2.917-2.459-5.649-3.282-7.019c-0.82,1.551-1.913,3.739-3.098,6.288
			l-4.193,8.842c-1.367,2.917-2.37,5.562-3.826,8.569c-0.457,0.457-1.734,0.728-3.101,0.728c-1.001,0-1.64-0.271-2.459-0.728
			c-1.458-3.829-5.105-12.032-8.204-18.867L15.671,42.487c-2.462-5.377-3.008-5.833-6.017-6.472l-2.278-0.456
			c-0.728-0.911-0.638-2.734,0.365-3.19c3.372,0.183,7.2,0.273,11.848,0.273c4.01,0,7.565-0.091,11.028-0.273
			c0.73,0.365,1.096,2.644,0.184,3.19l-1.643,0.274c-1.64,0.273-2.278,0.729-2.278,1.367c0,0.638,1.916,4.923,4.74,11.303
			l9.023,20.143c2.551,5.651,3.92,8.203,5.013,10.39c1.093-1.821,3.19-6.104,4.648-9.387l1.185-2.643
			c0.639-1.458,0.912-2.644,0.912-3.19c0-0.548-0.638-2.461-1.003-3.373l-8.75-19.232c-2.097-4.558-2.735-5.196-6.199-5.56
			l-0.909-0.092c-0.912-0.728-0.73-2.825,0.273-3.19c3.918,0.183,7.473,0.273,11.483,0.273c4.648,0,8.112-0.091,10.482-0.273
			c1.096,0.273,1.004,2.735,0.365,3.19l-1.55,0.365c-1.093,0.273-2.459,0.639-2.459,1.276c0,0.729,0.363,1.731,0.82,2.734
			l2.735,6.29c0.82,1.914,2.005,4.375,2.825,6.016c0.912-1.914,1.913-4.192,2.825-6.197l0.82-1.823
			c1.55-3.463,2.644-6.198,2.644-6.746c0-0.637-0.363-0.91-1.821-1.275L61.7,35.559c-0.639-0.637-0.546-2.734,0.273-3.19
			c2.643,0.183,5.925,0.273,8.931,0.273c3.555,0,6.927-0.091,9.297-0.273c0.73,0.456,0.912,2.644,0.092,3.282l-2.551,0.547
			c-3.101,0.638-3.737,0.638-6.927,6.106c-2.188,3.738-4.467,8.294-5.652,10.665c-0.82,1.641-2.005,4.284-2.005,4.74
			c0,0.273,0.089,0.82,0.728,2.278l4.285,9.205c2.37,5.017,3.645,7.933,4.191,9.208c4.375-10.574,9.389-22.149,13.764-33.269
			c0.639-1.549,2.37-6.38,2.37-7.382c0-0.912-1.458-1.277-2.644-1.641l-2.005-0.548c-0.73-0.82-0.546-2.734,0.273-3.19
			c2.917,0.183,6.653,0.273,9.389,0.273c3.19,0,5.833-0.091,8.385-0.273c0.82,0.456,0.912,2.462,0.273,3.19L99.434,36.198z"/>
		<path fill="#464B50" d="M147.358,98.022c-4.336-0.162-12.525-0.269-20.867-0.269h-11.851c-4.498,0-9.105,0.097-15.543,0.271
			l-1.722,0.046l-1.379-1.033c-1.709-1.279-2.631-3.451-2.525-5.959c0.1-2.354,1.144-4.319,2.871-5.398l0.873-0.546
			c0,0,5.5-0.82,5.589-0.835c0.092-0.945,0.138-2.493,0.138-4.626V45.677c0-2.202-0.051-3.774-0.15-4.698
			c-0.148-0.032-3.756-0.756-3.756-0.756l-0.815-0.543c-1.787-1.191-2.82-3.337-2.764-5.742c0.056-2.49,1.229-4.663,3.137-5.812
			l1.277-0.769l1.49,0.064c4.187,0.178,8.533,0.269,12.917,0.269H133.6c7.173,0,10.798-0.131,11.485-0.219l5.241-0.674l0.431,5.26
			c0.036,0.56,0.155,1.894,0.312,3.667c0.249,2.815,0.592,6.693,0.868,10.406l0.08,1.057l-0.36,0.997
			c-0.904,2.501-3.403,4.123-6.377,4.148c-0.169,2.776-0.254,5.872-0.254,9.205c0,3.393,0.089,6.541,0.264,9.354l0.089,1.446
			l-0.701,1.263c-1.115,2.012-3.384,3.216-6.066,3.216c-2.297,0-4.317-0.904-5.545-2.48l-0.718-0.925l-0.687-3.424
			c-0.099-0.479-0.186-0.825-0.259-1.074c-0.338-0.029-0.854-0.053-1.63-0.053h-3.887v8.721c0,3.782,0.341,5.202,0.51,5.676
			c0.494,0.148,1.875,0.399,5.565,0.399c6.909,0,7.797,0,11.589-7.787l0.189-0.393l0.256-0.353c1.214-1.669,3.19-2.629,5.425-2.629
			c3.1,0,5.775,1.782,6.655,4.438l0.312,0.943l-0.075,0.994c-0.401,5.241-2.718,13.304-4.37,16.487l-1.446,2.785L147.358,98.022z"/>
		<path fill="#464B50" d="M120.932,56.341c0,2.551,0.089,2.734,2.551,2.734h6.288c4.74,0,5.833-0.637,6.745-5.012l0.457-2.279
			c0.639-0.729,2.917-0.729,3.372,0.092c-0.182,2.917-0.273,6.197-0.273,9.661c0,3.464,0.092,6.746,0.273,9.663
			c-0.455,0.817-2.733,0.909-3.372,0.092l-0.457-2.28c-0.912-4.375-2.005-5.104-6.745-5.104h-6.288
			c-2.462,0-2.551,0.092-2.551,2.826v10.847c0,4.193,0.362,7.11,1.458,8.658c1.185,1.64,2.917,2.37,9.57,2.37
			c7.93,0,11.028-0.273,16.042-10.573c0.728-1.002,3.009-0.639,3.372,0.454c-0.363,4.74-2.552,12.124-3.829,14.584
			c-4.83-0.182-13.58-0.271-21.053-0.271h-11.851c-4.375,0-8.839,0.09-15.676,0.271c-0.73-0.547-0.73-2.733,0-3.188l4.283-0.639
			c4.102-0.639,4.648-1.186,4.648-9.572V45.677c0-8.294-0.546-8.841-4.648-9.662l-2.278-0.456c-0.82-0.546-0.728-2.642,0.181-3.19
			c4.286,0.183,8.75,0.273,13.128,0.273H133.6c5.833,0,11.028-0.091,12.213-0.273c0.092,1.458,0.73,8.021,1.185,14.129
			c-0.363,1.002-2.46,1.184-3.372,0.364c-1.003-3.19-2.278-5.924-3.463-7.201c-1.731-1.731-4.467-2.825-8.934-2.825h-7.292
			c-3.006,0-3.006,0.182-3.006,3.554V56.341z"/>
		<path fill="#464B50" d="M207.419,98.301c-9.969,0-16.93-3.797-21.909-11.942c-2.535-4.201-4.469-8.129-6.131-11.808v5.123
			c0,2.249,0.051,3.854,0.155,4.803c0.119,0.021,3.983,0.735,3.983,0.735l0.895,0.641c1.543,1.101,2.447,2.943,2.544,5.188
			c0.051,1.135-0.065,3.967-2.201,5.795l-1.473,1.263l-1.935-0.075c-4.936-0.187-9.009-0.269-13.212-0.269
			c-4.29,0-8.213,0.08-13.115,0.269l-1.753,0.067l-1.405-1.052c-1.71-1.279-2.631-3.453-2.525-5.959
			c0.099-2.354,1.144-4.319,2.871-5.398l0.796-0.498c0,0,3.698-0.682,3.826-0.706c0.104-0.948,0.155-2.554,0.155-4.803V47.409
			c0-1.812,0-4.325-0.121-5.815l-2.902-0.429l-0.709-0.353c-2.188-1.095-3.49-3.47-3.396-6.199c0.094-2.736,1.582-5.033,3.887-5.993
			l0.757-0.317l0.82-0.054c6.167-0.411,13.715-0.832,22.932-0.832c5.164,0,14.685,0.52,20.432,3.998
			c6.789,3.979,10.409,10.121,10.409,17.726c0,8.964-5.297,13.824-9.22,16.333c4.927,9.866,8.206,15.56,11.493,18.364
			c1.492,1.202,2.943,1.359,3.219,1.376l1.107,0.075l0.97,0.537c1.615,0.899,2.745,2.501,3.098,4.396
			c0.37,1.979-0.128,4.024-1.333,5.471l-0.747,0.9l-1.074,0.469C215.293,97.638,213.062,98.301,207.419,98.301z M180.076,57.495
			c2.324,0,2.858-0.534,3.424-1.1c1.18-1.182,1.831-3.433,1.831-6.343c0-4.908-2.204-8-5.952-8.473v15.914
			C179.667,57.495,179.914,57.495,180.076,57.495z"/>
		<path fill="#464B50" d="M161.937,47.409c0-9.114-0.182-10.117-4.01-10.665l-2.459-0.364c-0.912-0.456-0.912-2.734,0.182-3.19
			c6.834-0.456,13.945-0.821,22.603-0.821c7.749,0,14.402,1.185,17.865,3.282c5.287,3.1,8.022,7.656,8.022,13.489
			c0,8.113-5.471,11.576-9.662,13.673c-0.912,0.455-0.912,1.002-0.457,2.005c6.017,12.214,9.754,19.049,14.129,22.789
			c2.37,1.91,4.74,2.459,6.106,2.549c0.82,0.457,0.82,1.823,0.365,2.37c-1.458,0.639-4.375,0.822-7.202,0.822
			c-8.385,0-13.672-3.009-17.682-9.572c-2.917-4.83-5.014-9.297-7.11-14.127c-1.093-2.46-2.551-3.189-4.83-3.189
			c-3.19,0-3.372,0.182-3.372,2.005v11.21c0,8.387,0.547,9.025,4.648,9.754l2.459,0.457c0.639,0.454,0.639,2.641,0,3.188
			c-4.83-0.182-9.023-0.271-13.398-0.271c-4.556,0-8.568,0.09-13.306,0.271c-0.73-0.547-0.73-2.733,0-3.188l2.459-0.457
			c4.102-0.729,4.648-1.367,4.648-9.754V47.409z"/>
		<path fill="#464B50" d="M261.91,98.022c-4.336-0.162-12.525-0.269-20.867-0.269h-11.851c-4.498,0-9.105,0.097-15.543,0.271
			l-1.727,0.046l-1.381-1.038c-1.705-1.281-2.622-3.451-2.518-5.954c0.102-2.351,1.144-4.317,2.864-5.394l0.875-0.549
			c0,0,5.504-0.822,5.594-0.837c0.092-0.945,0.138-2.493,0.138-4.626V45.677c0-2.202-0.051-3.774-0.15-4.698
			c-0.147-0.032-3.756-0.756-3.756-0.756l-0.815-0.543c-1.787-1.192-2.822-3.34-2.764-5.745c0.058-2.491,1.233-4.664,3.144-5.812
			l1.277-0.767l1.485,0.064c4.184,0.178,8.528,0.269,12.912,0.269h19.324c7.173,0,10.798-0.131,11.485-0.219l5.241-0.674l0.43,5.26
			c0.037,0.56,0.155,1.894,0.312,3.667c0.249,2.815,0.592,6.693,0.868,10.406l0.08,1.057l-0.36,0.997
			c-0.904,2.501-3.403,4.123-6.377,4.148c-0.169,2.776-0.254,5.872-0.254,9.205c0,3.393,0.089,6.541,0.264,9.354l0.089,1.446
			l-0.702,1.263c-1.115,2.012-3.383,3.216-6.068,3.216c-2.3,0-4.322-0.909-5.548-2.488l-0.713-0.921l-0.687-3.42
			c-0.099-0.479-0.186-0.825-0.259-1.074c-0.338-0.029-0.854-0.053-1.63-0.053h-3.887v8.721c0,3.782,0.341,5.202,0.51,5.676
			c0.494,0.148,1.875,0.399,5.565,0.399c6.91,0,7.797,0,11.589-7.787l0.189-0.393l0.256-0.353c1.214-1.669,3.19-2.629,5.425-2.629
			c3.1,0,5.775,1.782,6.655,4.438l0.312,0.943l-0.075,0.994c-0.401,5.241-2.719,13.304-4.37,16.487l-1.446,2.785L261.91,98.022z"/>
		<path fill="#464B50" d="M235.483,56.341c0,2.551,0.09,2.734,2.552,2.734h6.288c4.74,0,5.833-0.637,6.745-5.012l0.457-2.279
			c0.636-0.729,2.917-0.729,3.372,0.092c-0.182,2.917-0.273,6.197-0.273,9.661c0,3.464,0.092,6.746,0.273,9.663
			c-0.455,0.817-2.735,0.909-3.372,0.092l-0.457-2.28c-0.912-4.375-2.005-5.104-6.745-5.104h-6.288
			c-2.462,0-2.552,0.092-2.552,2.826v10.847c0,4.193,0.363,7.11,1.458,8.658c1.185,1.64,2.917,2.37,9.57,2.37
			c7.93,0,11.028-0.273,16.042-10.573c0.728-1.002,3.009-0.639,3.372,0.454c-0.363,4.74-2.552,12.124-3.829,14.584
			c-4.83-0.182-13.58-0.271-21.053-0.271h-11.851c-4.375,0-8.839,0.09-15.676,0.271c-0.728-0.547-0.728-2.733,0-3.188l4.283-0.639
			c4.102-0.639,4.648-1.186,4.648-9.572V45.677c0-8.294-0.546-8.841-4.648-9.662l-2.278-0.456c-0.82-0.546-0.728-2.642,0.184-3.19
			c4.283,0.183,8.75,0.273,13.123,0.273h19.324c5.833,0,11.028-0.091,12.213-0.273c0.092,1.458,0.73,8.021,1.186,14.129
			c-0.363,1.002-2.46,1.184-3.372,0.364c-1.004-3.19-2.278-5.924-3.463-7.201c-1.731-1.731-4.467-2.825-8.934-2.825h-7.292
			c-3.006,0-3.006,0.182-3.006,3.554V56.341z"/>
		<path fill="#464B50" d="M323.429,99.21c-1.98,0-3.828-0.57-5.34-1.649l-1.076-0.769l-0.549-1.2
			c-0.755-1.649-1.715-3.905-2.614-6.021l-0.9-2.111l-2.677-6.059l-2.697,5.684c-0.581,1.243-1.1,2.452-1.623,3.661
			c-0.692,1.611-1.386,3.222-2.225,4.948l-0.363,0.745l-0.585,0.588c-1.802,1.807-4.585,2.184-6.605,2.184
			c-2.138,0-3.604-0.648-4.866-1.352l-1.58-0.878l-0.643-1.688c-1.142-2.999-4.015-9.599-8.085-18.586l-14.842-32.143
			c-0.336-0.734-1.284-2.805-1.78-3.522c-0.145-0.04-0.382-0.098-0.769-0.18l-3.993-0.798l-1.127-1.41
			c-1.367-1.711-1.887-4.152-1.357-6.372c0.481-2.006,1.773-3.617,3.543-4.421l1.105-0.502l1.211,0.065
			c3.304,0.179,7.094,0.266,11.58,0.266c3.845,0,7.367-0.087,10.767-0.266l1.306-0.069l1.171,0.584
			c0.125,0.064,0.249,0.132,0.37,0.203c0.291-0.167,0.598-0.31,0.919-0.427l0.931-0.34l0.991,0.046
			c3.976,0.186,7.447,0.269,11.253,0.269c4.474,0,7.875-0.087,10.102-0.259l0.8-0.062l0.781,0.194
			c0.31,0.079,0.609,0.179,0.897,0.302l0.97-0.539l1.465,0.102c2.407,0.166,5.539,0.261,8.591,0.261
			c3.586,0,6.752-0.092,8.917-0.259l1.623-0.125l0.75,0.468l0.788-0.439l1.449,0.091c2.559,0.16,6.121,0.264,9.079,0.264
			c2.994,0,5.546-0.083,8.032-0.261l1.471-0.105l1.289,0.717c1.649,0.918,2.757,2.566,3.117,4.644
			c0.399,2.301-0.171,4.596-1.526,6.142l-1.05,1.196l-4.283,1c-0.769,0.167-1.214,0.337-1.439,0.44
			c-0.687,1.11-1.995,3.552-4.247,8.81c-1.246,2.971-2.938,6.934-4.823,11.339c-4.808,11.249-10.793,25.251-13.967,33.667
			l-0.459,1.219l-1.001,0.837C327.574,99.028,324.609,99.21,323.429,99.21z"/>
		<path fill="#464B50" d="M354.417,36.198c-2.094,0.456-3.463,1.185-4.099,2.005c-1.004,1.458-2.554,4.375-5.014,10.118
			c-4.467,10.664-14.402,33.36-18.869,45.209c-0.546,0.457-1.821,0.728-3.006,0.728c-1.003,0-1.823-0.271-2.462-0.728
			c-1.001-2.189-2.37-5.469-3.463-8.022l-3.829-8.658c-1.275-2.917-2.459-5.649-3.282-7.019c-0.82,1.551-1.913,3.739-3.098,6.288
			l-4.194,8.842c-1.366,2.917-2.368,5.562-3.829,8.569c-0.455,0.457-1.731,0.728-3.098,0.728c-1.001,0-1.64-0.271-2.459-0.728
			c-1.458-3.829-5.105-12.032-8.204-18.867l-14.856-32.175c-2.462-5.377-3.009-5.833-6.018-6.472l-2.278-0.456
			c-0.728-0.911-0.639-2.734,0.365-3.19c3.371,0.183,7.2,0.273,11.848,0.273c4.01,0,7.565-0.091,11.028-0.273
			c0.73,0.365,1.095,2.644,0.184,3.19l-1.642,0.274c-1.64,0.273-2.278,0.729-2.278,1.367c0,0.638,1.916,4.923,4.74,11.303
			l9.023,20.143c2.551,5.651,3.92,8.203,5.014,10.39c1.093-1.821,3.19-6.104,4.648-9.387l1.186-2.643
			c0.638-1.458,0.912-2.644,0.912-3.19c0-0.548-0.639-2.461-1.004-3.373l-8.75-19.232c-2.097-4.558-2.733-5.196-6.199-5.56
			l-0.912-0.092c-0.909-0.728-0.728-2.825,0.276-3.19c3.918,0.183,7.473,0.273,11.483,0.273c4.648,0,8.112-0.091,10.482-0.273
			c1.093,0.273,1.003,2.735,0.365,3.19l-1.55,0.365c-1.093,0.273-2.459,0.639-2.459,1.276c0,0.729,0.365,1.731,0.82,2.734
			l2.735,6.29c0.82,1.914,2.005,4.375,2.825,6.016c0.912-1.914,1.913-4.192,2.825-6.197l0.82-1.823
			c1.55-3.463,2.643-6.198,2.643-6.746c0-0.637-0.363-0.91-1.821-1.275l-3.282-0.639c-0.638-0.637-0.546-2.734,0.273-3.19
			c2.644,0.183,5.925,0.273,8.932,0.273c3.555,0,6.929-0.091,9.296-0.273c0.73,0.456,0.912,2.644,0.092,3.282l-2.552,0.547
			c-3.101,0.638-3.736,0.638-6.927,6.106c-2.188,3.738-4.467,8.294-5.652,10.665c-0.82,1.641-2.005,4.284-2.005,4.74
			c0,0.273,0.092,0.82,0.728,2.278l4.286,9.205c2.368,5.017,3.645,7.933,4.191,9.208c4.375-10.574,9.389-22.149,13.764-33.269
			c0.639-1.549,2.37-6.38,2.37-7.382c0-0.912-1.458-1.277-2.643-1.641l-2.005-0.548c-0.73-0.82-0.547-2.734,0.273-3.19
			c2.917,0.183,6.653,0.273,9.389,0.273c3.19,0,5.833-0.091,8.385-0.273c0.82,0.456,0.912,2.462,0.273,3.19L354.417,36.198z"/>
		<polygon fill="#464B50" points="124.133,85.028 124.133,65.68 141.926,70.246 145.718,76.824 142.933,85.028 		"/>
		<polygon fill="#464B50" points="238.402,85.028 238.402,65.68 256.195,70.246 259.987,76.824 257.201,85.028 		"/>
	</g>
	<g>
		<path fill="#464B50" d="M672.451,98.393c-4.777,0-8.664-3.884-8.664-8.663c0-4.827,3.887-8.752,8.664-8.752
			c4.776,0,8.662,3.925,8.662,8.752C681.113,94.588,677.31,98.393,672.451,98.393z"/>
		<path fill="#464B50" d="M668.74,89.729c0-2.152,1.65-3.8,3.711-3.8c2.198,0,3.709,1.831,3.709,3.8c0,2.109-1.511,3.71-3.709,3.71
			C670.617,93.439,668.74,91.974,668.74,89.729z"/>
		<path fill="#464B50" d="M676.971,97.053c-1.538-1.035-2.452-2.771-2.506-4.767c-0.053-2.01,0.765-3.8,2.242-4.912l0.59-0.44
			v-6.143c-1.114-1.069-1.751-2.598-1.753-4.242c-0.003-1.756,0.718-3.381,1.971-4.455l0.76-0.652
			c-0.827-1.287-1.299-2.85-1.299-4.564c0-4.651,3.686-8.296,8.39-8.296c4.573,0,8.158,3.604,8.158,8.205
			c0,1.497-0.383,2.888-1.055,4.088c0.002,0.002,0.921,1.396,0.921,1.396l-0.106,1.663c-0.079,1.22-0.125,3.089-0.125,5.128v7.879
			l0.572,0.426c1.49,1.112,2.312,2.907,2.26,4.919c-0.054,2.003-0.973,3.744-2.521,4.774l-1.379,0.919l-1.651-0.094
			c-1.521-0.088-3.214-0.129-5.212-0.129c-2.015,0-3.812,0.044-5.197,0.126l-1.669,0.102L676.971,97.053z"/>
		<path fill="#464B50" d="M688.205,87.485c0,3.207,0.181,3.62,1.692,3.758l0.871,0.093c0.367,0.272,0.367,1.325-0.046,1.601
			c-1.604-0.092-3.389-0.136-5.495-0.136c-2.063,0-3.985,0.044-5.497,0.136c-0.411-0.275-0.411-1.328-0.046-1.601l0.87-0.093
			c1.512-0.138,1.695-0.551,1.695-3.758V80.57c0-1.83,0-2.382-0.87-2.931l-0.642-0.414c-0.321-0.272-0.321-1.098,0-1.373
			c2.153-0.595,5.403-1.831,6.779-2.655c0.365,0,0.641,0.138,0.822,0.411c-0.089,1.376-0.135,3.391-0.135,5.451V87.485z
			 M688.57,66.785c0,2.198-1.695,3.345-3.435,3.345c-2.015,0-3.207-1.373-3.207-3.253c0-2.016,1.604-3.343,3.437-3.343
			C687.288,63.534,688.57,64.954,688.57,66.785z"/>
		<path fill="#464B50" d="M703.18,98.393c-8.895,0-15.151-5.901-15.212-14.352c-0.029-4.159,1.417-7.831,4.187-10.617
			c2.863-2.883,6.982-4.537,11.302-4.537c8.815,0,15.212,6.185,15.212,14.707C718.668,92.308,712.3,98.393,703.18,98.393z"/>
		<path fill="#464B50" d="M692.921,84.008c-0.046-6.55,5.13-10.168,10.535-10.168c5.402,0,10.259,3.297,10.259,9.754
			c0,6.688-4.902,9.846-10.535,9.846C697.729,93.439,692.967,90.327,692.921,84.008z M699.516,82.999
			c0,4.811,1.512,8.337,4.167,8.337c2.612,0,3.483-2.98,3.437-7.102c-0.045-4.439-1.327-8.29-3.939-8.29
			C701.165,75.944,699.516,78.005,699.516,82.999z"/>
	</g>
	<g>
		<path fill="#F2F2F2" d="M484.788,77.671c0,4.281,0.362,7.197,1.548,8.658c1.185,1.548,2.827,2.278,9.48,2.278
			c8.293,0,10.847-0.273,16.223-10.847c0.73-0.912,2.828-0.547,3.464,0.546c-0.455,4.74-2.644,12.306-3.918,14.766
			c-4.832-0.182-13.582-0.271-21.056-0.271h-12.213c-4.193,0-8.75,0.09-14.402,0.271c-0.82-0.547-1.001-2.642-0.273-3.188
			l3.464-0.457c4.102-0.547,4.647-1.275,4.647-9.754V45.768c0-8.476-0.546-9.297-4.647-9.843l-2.644-0.365
			c-0.912-0.546-0.912-2.642,0.184-3.19c4.738,0.183,9.297,0.273,13.672,0.273s8.932-0.091,13.49-0.273
			c0.728,0.548,0.728,2.644,0,3.19l-2.37,0.365c-4.102,0.639-4.648,1.368-4.648,9.843V77.671z"/>
		<path fill="#F2F2F2" d="M547.761,70.195c-4.648,11.028-7.019,18.229-9.113,23.334c-0.73,0.457-1.823,0.728-3.189,0.728
			c-1.096,0-1.916-0.271-2.462-0.728c-1.004-2.46-2.552-7.292-3.829-10.393l-14.765-37.095c-3.463-8.75-3.92-8.933-6.837-9.662
			l-3.645-0.912c-0.73-1.002-0.457-2.643,0.365-3.099c4.648,0.092,7.654,0.273,12.395,0.273c4.193,0,8.111-0.091,13.672-0.273
			c0.73,0.548,0.639,2.279,0.092,3.099l-2.735,0.547c-1.64,0.365-2.278,0.912-2.278,1.733c0,0.728,1.458,4.556,3.645,10.025
			l8.022,20.509c1.277,3.372,2.37,6.104,3.009,7.657c0.728-1.553,2.187-4.648,3.279-7.386l3.466-8.567
			c2.278-5.743,6.196-15.951,7.291-19.049c0.637-1.732,0.91-2.735,0.91-3.282c0-0.638-0.729-1.002-2.917-1.549l-2.917-0.639
			c-0.728-0.729-0.728-2.643,0.365-3.099c4.286,0.183,7.749,0.273,11.212,0.273c3.099,0,5.834-0.091,8.478-0.273
			c0.728,0.365,0.819,2.553,0.181,3.099l-2.37,0.456c-2.551,0.456-4.102,1.093-5.286,3.007c-2.005,3.009-4.283,8.113-7.382,15.495
			L547.761,70.195z"/>
		<path fill="#F2F2F2" d="M588.406,56.341c0,2.551,0.089,2.734,2.551,2.734h6.288c4.74,0,5.834-0.637,6.745-5.012l0.457-2.279
			c0.637-0.729,2.917-0.729,3.372,0.092c-0.182,2.917-0.273,6.197-0.273,9.661c0,3.464,0.092,6.746,0.273,9.663
			c-0.455,0.817-2.735,0.909-3.372,0.092l-0.457-2.28c-0.911-4.375-2.005-5.104-6.745-5.104h-6.288
			c-2.462,0-2.551,0.092-2.551,2.826v10.847c0,4.193,0.362,7.11,1.458,8.658c1.185,1.64,2.917,2.37,9.569,2.37
			c7.931,0,11.029-0.273,16.042-10.573c0.729-1.002,3.009-0.639,3.372,0.454c-0.363,4.74-2.552,12.124-3.829,14.584
			c-4.829-0.182-13.579-0.271-21.053-0.271h-11.851c-4.375,0-8.84,0.09-15.677,0.271c-0.728-0.547-0.728-2.733,0-3.188l4.283-0.639
			c4.102-0.639,4.648-1.186,4.648-9.572V45.677c0-8.294-0.547-8.841-4.648-9.662l-2.278-0.456c-0.819-0.546-0.728-2.642,0.184-3.19
			c4.283,0.183,8.75,0.273,13.123,0.273h19.324c5.833,0,11.028-0.091,12.213-0.273c0.092,1.458,0.73,8.021,1.186,14.129
			c-0.363,1.002-2.46,1.184-3.372,0.364c-1.003-3.19-2.278-5.924-3.463-7.201c-1.731-1.731-4.467-2.825-8.934-2.825h-7.292
			c-3.006,0-3.006,0.182-3.006,3.554V56.341z"/>
		<path fill="#F2F2F2" d="M639.527,94.257c-8.387,0-13.582-2.37-15.495-3.463c-1.731-2.003-2.916-8.566-2.916-14.765
			c0.638-1.186,2.732-1.275,3.463-0.273c1.823,5.925,7.931,14.31,15.677,14.31c6.745,0,9.843-4.648,9.843-9.207
			c0-7.381-6.926-11.759-12.395-14.491c-6.563-3.281-13.764-8.75-13.764-17.773c-0.092-10.299,7.931-17.41,21.147-17.41
			c3.006,0,6.745,0.365,10.39,1.458c1.186,0.365,2.005,0.548,3.099,0.73c0.73,2.005,1.642,6.926,1.642,13.033
			c-0.457,1.094-2.735,1.185-3.555,0.273c-1.551-4.648-5.469-11.301-12.032-11.301c-6.015,0-9.297,3.919-9.297,8.477
			c0,4.192,3.736,8.021,8.296,10.39l6.015,3.19c5.651,3.008,12.852,8.295,12.852,18.321
			C662.496,86.968,653.289,94.257,639.527,94.257z"/>
	</g>
	<text transform="matrix(1 0 0 1 666.4961 92.7998)" fill="#F2F2F2" font-family="'AGaramondPro-Bold'" font-size="45.7956">.io</text>
	<path fill="#464B50" d="M404.756,5.573c-32.769,0-59.333,26.565-59.333,59.333c0,32.769,26.564,59.333,59.333,59.333
		c32.768,0,59.327-26.564,59.327-59.333C464.083,32.138,437.523,5.573,404.756,5.573z M404.756,103.104
		c-21.102,0-38.203-17.099-38.203-38.197c0-21.095,17.102-38.199,38.203-38.199c21.096,0,38.202,17.104,38.202,38.199
		C442.958,86.005,425.852,103.104,404.756,103.104z"/>
	<path fill="#F2F2F2" d="M404.756,8.303c-31.26,0-56.605,25.341-56.605,56.604c0,31.262,25.345,56.603,56.605,56.603
		c31.264,0,56.606-25.341,56.606-56.603C461.362,33.644,436.02,8.303,404.756,8.303z M404.756,106.407
		c-22.92,0-41.504-18.581-41.504-41.501c0-22.917,18.584-41.502,41.504-41.502c22.925,0,41.506,18.585,41.506,41.502
		C446.262,87.826,427.681,106.407,404.756,106.407z"/>
	<g>
		<path fill="#F2F2F2" d="M99.434,36.198c-2.095,0.456-3.463,1.185-4.102,2.005c-1.001,1.458-2.551,4.375-5.011,10.118
			c-4.467,10.664-14.402,33.36-18.869,45.209c-0.547,0.457-1.821,0.728-3.006,0.728c-1.003,0-1.823-0.271-2.462-0.728
			c-1.001-2.189-2.37-5.469-3.463-8.022l-3.829-8.658c-1.277-2.917-2.459-5.649-3.282-7.019c-0.82,1.551-1.913,3.739-3.098,6.288
			l-4.193,8.842c-1.367,2.917-2.37,5.562-3.826,8.569c-0.457,0.457-1.734,0.728-3.101,0.728c-1.001,0-1.64-0.271-2.459-0.728
			c-1.458-3.829-5.105-12.032-8.204-18.867L15.671,42.487c-2.462-5.377-3.008-5.833-6.017-6.472l-2.278-0.456
			c-0.728-0.911-0.638-2.734,0.365-3.19c3.372,0.183,7.2,0.273,11.848,0.273c4.01,0,7.565-0.091,11.028-0.273
			c0.73,0.365,1.096,2.644,0.184,3.19l-1.643,0.274c-1.64,0.273-2.278,0.729-2.278,1.367c0,0.638,1.916,4.923,4.74,11.303
			l9.023,20.143c2.551,5.651,3.92,8.203,5.013,10.39c1.093-1.821,3.19-6.104,4.648-9.387l1.185-2.643
			c0.639-1.458,0.912-2.644,0.912-3.19c0-0.548-0.638-2.461-1.003-3.373l-8.75-19.232c-2.097-4.558-2.735-5.196-6.199-5.56
			l-0.909-0.092c-0.912-0.728-0.73-2.825,0.273-3.19c3.918,0.183,7.473,0.273,11.483,0.273c4.648,0,8.112-0.091,10.482-0.273
			c1.096,0.273,1.004,2.735,0.365,3.19l-1.55,0.365c-1.093,0.273-2.459,0.639-2.459,1.276c0,0.729,0.363,1.731,0.82,2.734
			l2.735,6.29c0.82,1.914,2.005,4.375,2.825,6.016c0.912-1.914,1.913-4.192,2.825-6.197l0.82-1.823
			c1.55-3.463,2.644-6.198,2.644-6.746c0-0.637-0.363-0.91-1.821-1.275L61.7,35.559c-0.639-0.637-0.546-2.734,0.273-3.19
			c2.643,0.183,5.925,0.273,8.931,0.273c3.555,0,6.927-0.091,9.297-0.273c0.73,0.456,0.912,2.644,0.092,3.282l-2.551,0.547
			c-3.101,0.638-3.737,0.638-6.927,6.106c-2.188,3.738-4.467,8.294-5.652,10.665c-0.82,1.641-2.005,4.284-2.005,4.74
			c0,0.273,0.089,0.82,0.728,2.278l4.285,9.205c2.37,5.017,3.645,7.933,4.191,9.208c4.375-10.574,9.389-22.149,13.764-33.269
			c0.639-1.549,2.37-6.38,2.37-7.382c0-0.912-1.458-1.277-2.644-1.641l-2.005-0.548c-0.73-0.82-0.546-2.734,0.273-3.19
			c2.917,0.183,6.653,0.273,9.389,0.273c3.19,0,5.833-0.091,8.385-0.273c0.82,0.456,0.912,2.462,0.273,3.19L99.434,36.198z"/>
		<path fill="#F2F2F2" d="M120.932,56.341c0,2.551,0.089,2.734,2.551,2.734h6.288c4.74,0,5.833-0.637,6.745-5.012l0.457-2.279
			c0.639-0.729,2.917-0.729,3.372,0.092c-0.182,2.917-0.273,6.197-0.273,9.661c0,3.464,0.092,6.746,0.273,9.663
			c-0.455,0.817-2.733,0.909-3.372,0.092l-0.457-2.28c-0.912-4.375-2.005-5.104-6.745-5.104h-6.288
			c-2.462,0-2.551,0.092-2.551,2.826v10.847c0,4.193,0.362,7.11,1.458,8.658c1.185,1.64,2.917,2.37,9.57,2.37
			c7.93,0,11.028-0.273,16.042-10.573c0.728-1.002,3.009-0.639,3.372,0.454c-0.363,4.74-2.552,12.124-3.829,14.584
			c-4.83-0.182-13.58-0.271-21.053-0.271h-11.851c-4.375,0-8.839,0.09-15.676,0.271c-0.73-0.547-0.73-2.733,0-3.188l4.283-0.639
			c4.102-0.639,4.648-1.186,4.648-9.572V45.677c0-8.294-0.546-8.841-4.648-9.662l-2.278-0.456c-0.82-0.546-0.728-2.642,0.181-3.19
			c4.286,0.183,8.75,0.273,13.128,0.273H133.6c5.833,0,11.028-0.091,12.213-0.273c0.092,1.458,0.73,8.021,1.185,14.129
			c-0.363,1.002-2.46,1.184-3.372,0.364c-1.003-3.19-2.278-5.924-3.463-7.201c-1.731-1.731-4.467-2.825-8.934-2.825h-7.292
			c-3.006,0-3.006,0.182-3.006,3.554V56.341z"/>
		<path fill="#F2F2F2" d="M161.937,47.409c0-9.114-0.182-10.117-4.01-10.665l-2.459-0.364c-0.912-0.456-0.912-2.734,0.182-3.19
			c6.834-0.456,13.945-0.821,22.603-0.821c7.749,0,14.402,1.185,17.865,3.282c5.287,3.1,8.022,7.656,8.022,13.489
			c0,8.113-5.471,11.576-9.662,13.673c-0.912,0.455-0.912,1.002-0.457,2.005c6.017,12.214,9.754,19.049,14.129,22.789
			c2.37,1.91,4.74,2.459,6.106,2.549c0.82,0.457,0.82,1.823,0.365,2.37c-1.458,0.639-4.375,0.822-7.202,0.822
			c-8.385,0-13.672-3.009-17.682-9.572c-2.917-4.83-5.014-9.297-7.11-14.127c-1.093-2.46-2.551-3.189-4.83-3.189
			c-3.19,0-3.372,0.182-3.372,2.005v11.21c0,8.387,0.547,9.025,4.648,9.754l2.459,0.457c0.639,0.454,0.639,2.641,0,3.188
			c-4.83-0.182-9.023-0.271-13.398-0.271c-4.556,0-8.568,0.09-13.306,0.271c-0.73-0.547-0.73-2.733,0-3.188l2.459-0.457
			c4.102-0.729,4.648-1.367,4.648-9.754V47.409z M174.426,58.984c0,3.19,0.273,3.463,5.65,3.463c3.282,0,5.195-0.82,6.926-2.551
			c1.55-1.55,3.282-4.467,3.282-9.845c0-8.203-4.83-13.489-11.94-13.489c-3.736,0-3.918,0.273-3.918,4.648V58.984z"/>
		<path fill="#F2F2F2" d="M235.483,56.341c0,2.551,0.09,2.734,2.552,2.734h6.288c4.74,0,5.833-0.637,6.745-5.012l0.457-2.279
			c0.636-0.729,2.917-0.729,3.372,0.092c-0.182,2.917-0.273,6.197-0.273,9.661c0,3.464,0.092,6.746,0.273,9.663
			c-0.455,0.817-2.735,0.909-3.372,0.092l-0.457-2.28c-0.912-4.375-2.005-5.104-6.745-5.104h-6.288
			c-2.462,0-2.552,0.092-2.552,2.826v10.847c0,4.193,0.363,7.11,1.458,8.658c1.185,1.64,2.917,2.37,9.57,2.37
			c7.93,0,11.028-0.273,16.042-10.573c0.728-1.002,3.009-0.639,3.372,0.454c-0.363,4.74-2.552,12.124-3.829,14.584
			c-4.83-0.182-13.58-0.271-21.053-0.271h-11.851c-4.375,0-8.839,0.09-15.676,0.271c-0.728-0.547-0.728-2.733,0-3.188l4.283-0.639
			c4.102-0.639,4.648-1.186,4.648-9.572V45.677c0-8.294-0.546-8.841-4.648-9.662l-2.278-0.456c-0.82-0.546-0.728-2.642,0.184-3.19
			c4.283,0.183,8.75,0.273,13.123,0.273h19.324c5.833,0,11.028-0.091,12.213-0.273c0.092,1.458,0.73,8.021,1.186,14.129
			c-0.363,1.002-2.46,1.184-3.372,0.364c-1.004-3.19-2.278-5.924-3.463-7.201c-1.731-1.731-4.467-2.825-8.934-2.825h-7.292
			c-3.006,0-3.006,0.182-3.006,3.554V56.341z"/>
		<path fill="#F2F2F2" d="M354.417,36.198c-2.094,0.456-3.463,1.185-4.099,2.005c-1.004,1.458-2.554,4.375-5.014,10.118
			c-4.467,10.664-14.402,33.36-18.869,45.209c-0.546,0.457-1.821,0.728-3.006,0.728c-1.003,0-1.823-0.271-2.462-0.728
			c-1.001-2.189-2.37-5.469-3.463-8.022l-3.829-8.658c-1.275-2.917-2.459-5.649-3.282-7.019c-0.82,1.551-1.913,3.739-3.098,6.288
			l-4.194,8.842c-1.366,2.917-2.368,5.562-3.829,8.569c-0.455,0.457-1.731,0.728-3.098,0.728c-1.001,0-1.64-0.271-2.459-0.728
			c-1.458-3.829-5.105-12.032-8.204-18.867l-14.856-32.175c-2.462-5.377-3.009-5.833-6.018-6.472l-2.278-0.456
			c-0.728-0.911-0.639-2.734,0.365-3.19c3.371,0.183,7.2,0.273,11.848,0.273c4.01,0,7.565-0.091,11.028-0.273
			c0.73,0.365,1.095,2.644,0.184,3.19l-1.642,0.274c-1.64,0.273-2.278,0.729-2.278,1.367c0,0.638,1.916,4.923,4.74,11.303
			l9.023,20.143c2.551,5.651,3.92,8.203,5.014,10.39c1.093-1.821,3.19-6.104,4.648-9.387l1.186-2.643
			c0.638-1.458,0.912-2.644,0.912-3.19c0-0.548-0.639-2.461-1.004-3.373l-8.75-19.232c-2.097-4.558-2.733-5.196-6.199-5.56
			l-0.912-0.092c-0.909-0.728-0.728-2.825,0.276-3.19c3.918,0.183,7.473,0.273,11.483,0.273c4.648,0,8.112-0.091,10.482-0.273
			c1.093,0.273,1.003,2.735,0.365,3.19l-1.55,0.365c-1.093,0.273-2.459,0.639-2.459,1.276c0,0.729,0.365,1.731,0.82,2.734
			l2.735,6.29c0.82,1.914,2.005,4.375,2.825,6.016c0.912-1.914,1.913-4.192,2.825-6.197l0.82-1.823
			c1.55-3.463,2.643-6.198,2.643-6.746c0-0.637-0.363-0.91-1.821-1.275l-3.282-0.639c-0.638-0.637-0.546-2.734,0.273-3.19
			c2.644,0.183,5.925,0.273,8.932,0.273c3.555,0,6.929-0.091,9.296-0.273c0.73,0.456,0.912,2.644,0.092,3.282l-2.552,0.547
			c-3.101,0.638-3.736,0.638-6.927,6.106c-2.188,3.738-4.467,8.294-5.652,10.665c-0.82,1.641-2.005,4.284-2.005,4.74
			c0,0.273,0.092,0.82,0.728,2.278l4.286,9.205c2.368,5.017,3.645,7.933,4.191,9.208c4.375-10.574,9.389-22.149,13.764-33.269
			c0.639-1.549,2.37-6.38,2.37-7.382c0-0.912-1.458-1.277-2.643-1.641l-2.005-0.548c-0.73-0.82-0.547-2.734,0.273-3.19
			c2.917,0.183,6.653,0.273,9.389,0.273c3.19,0,5.833-0.091,8.385-0.273c0.82,0.456,0.912,2.462,0.273,3.19L354.417,36.198z"/>
	</g>
	<g>
		<linearGradient id="SVGID_1_" gradientUnits="userSpaceOnUse" x1="403.8125" y1="10.7866" x2="405.7018" y2="119.024">
			<stop  offset="0" style="stop-color:#B3B3B3"/>
			<stop  offset="1" style="stop-color:#FFFFFF"/>
		</linearGradient>
		<path fill="url(#SVGID_1_)" d="M404.756,10.779c-29.847,0-54.128,24.282-54.128,54.127c0,29.844,24.282,54.126,54.128,54.126
			c29.846,0,54.13-24.282,54.13-54.126C458.886,35.061,434.602,10.779,404.756,10.779z M404.756,108.884
			c-24.251,0-43.98-19.728-43.98-43.978s19.729-43.979,43.98-43.979c24.252,0,43.982,19.729,43.982,43.979
			S429.008,108.884,404.756,108.884z"/>
		<linearGradient id="SVGID_2_" gradientUnits="userSpaceOnUse" x1="478.8945" y1="34.9321" x2="479.8639" y2="90.4666">
			<stop  offset="0" style="stop-color:#B3B3B3"/>
			<stop  offset="1" style="stop-color:#FFFFFF"/>
		</linearGradient>
		<path fill="url(#SVGID_2_)" d="M484.413,87.892c-1.743-2.147-2.102-5.64-2.102-10.221V45.768c0-5.827,0.247-8.988,2.411-10.71
			c-2.152,0.042-4.293,0.062-6.406,0.062c-2.114,0-4.283-0.022-6.491-0.064c2.271,1.843,2.403,5.222,2.403,10.713v33.906
			c0,5.78-0.266,9.001-2.483,10.714c2.363-0.044,4.508-0.063,6.571-0.063h9.662C486.365,89.826,485.299,89.048,484.413,87.892z"/>
		<linearGradient id="SVGID_3_" gradientUnits="userSpaceOnUse" x1="507.917" y1="82.5127" x2="508.0577" y2="90.5759">
			<stop  offset="0" style="stop-color:#B3B3B3"/>
			<stop  offset="1" style="stop-color:#FFFFFF"/>
		</linearGradient>
		<path fill="url(#SVGID_3_)" d="M503.654,90.412c2.288,0.033,4.465,0.077,6.332,0.13c0.75-1.969,1.679-5.107,2.329-8.106
			C509.401,87.374,506.927,89.502,503.654,90.412z"/>
		<linearGradient id="SVGID_4_" gradientUnits="userSpaceOnUse" x1="556.4541" y1="35.0654" x2="556.8122" y2="55.5818">
			<stop  offset="0" style="stop-color:#B3B3B3"/>
			<stop  offset="1" style="stop-color:#FFFFFF"/>
		</linearGradient>
		<path fill="url(#SVGID_4_)" d="M556.209,35.068c0.773,0.575,1.32,1.389,1.32,2.587c0,0.897-0.298,2.057-1.053,4.108
			c-0.829,2.352-3.192,8.548-5.277,13.915l0.934-2.209c3.229-7.697,5.51-12.769,7.559-15.841c0.687-1.106,1.479-1.913,2.377-2.514
			c-0.418,0.003-0.844,0.005-1.272,0.005C559.318,35.119,557.812,35.102,556.209,35.068z"/>
		<linearGradient id="SVGID_5_" gradientUnits="userSpaceOnUse" x1="526.1807" y1="34.7661" x2="527.1784" y2="91.9254">
			<stop  offset="0" style="stop-color:#B3B3B3"/>
			<stop  offset="1" style="stop-color:#FFFFFF"/>
		</linearGradient>
		<path fill="url(#SVGID_5_)" d="M537.815,76.883c-0.643-1.565-1.746-4.324-3.025-7.7l-8.015-20.49
			c-3.564-8.917-3.821-10.083-3.821-10.945c0-0.86,0.252-1.872,1.176-2.721c-2.532,0.06-4.929,0.092-7.449,0.092
			c-2.165,0-3.972-0.038-5.734-0.087c2.119,1.287,3.248,3.755,5.756,10.095l14.756,37.067c0.701,1.703,1.482,3.913,2.213,5.986
			c0.462,1.306,0.901,2.554,1.286,3.564c0.126,0.021,0.29,0.036,0.501,0.036c0.524,0,0.952-0.053,1.276-0.131
			c0.663-1.658,1.362-3.535,2.16-5.676c0.929-2.488,1.988-5.323,3.27-8.591l-2.205,4.699L537.815,76.883z"/>
		<linearGradient id="SVGID_6_" gradientUnits="userSpaceOnUse" x1="607.9902" y1="35.0469" x2="608.0997" y2="41.3203">
			<stop  offset="0" style="stop-color:#B3B3B3"/>
			<stop  offset="1" style="stop-color:#FFFFFF"/>
		</linearGradient>
		<path fill="url(#SVGID_6_)" d="M611.567,41.259c-0.152-1.791-0.51-5.84-0.549-6.266c-1.882,0.068-4.346,0.101-6.498,0.115
			c1.976,0.591,3.605,1.541,4.934,2.869C610.247,38.833,610.958,40.015,611.567,41.259z"/>
		<linearGradient id="SVGID_7_" gradientUnits="userSpaceOnUse" x1="602.0928" y1="58.4351" x2="602.2017" y2="64.6724">
			<stop  offset="0" style="stop-color:#B3B3B3"/>
			<stop  offset="1" style="stop-color:#FFFFFF"/>
		</linearGradient>
		<path fill="url(#SVGID_7_)" d="M599.142,61.495c3.025,0.233,4.803,1.114,5.952,3.127c-0.018-1.006-0.024-2.035-0.024-3.086
			c0-1.075,0.01-2.127,0.026-3.154C603.843,60.557,601.964,61.303,599.142,61.495z"/>
		<linearGradient id="SVGID_8_" gradientUnits="userSpaceOnUse" x1="582.3711" y1="34.9282" x2="583.3406" y2="90.4696">
			<stop  offset="0" style="stop-color:#B3B3B3"/>
			<stop  offset="1" style="stop-color:#FFFFFF"/>
		</linearGradient>
		<path fill="url(#SVGID_8_)" d="M587.842,87.669c-1.358-1.923-1.912-4.847-1.912-10.09V66.732c0-3.205,0.6-4.911,3.763-5.242
			c-3.144-0.34-3.763-2.069-3.763-5.149V40.39c0-2.625,0.222-4.362,1.681-5.271h-5.86c-2.193,0-4.38-0.022-6.539-0.067
			c2.31,1.621,2.636,4.552,2.636,10.625v33.997c0,5.99-0.273,9.093-2.776,10.719c2.508-0.044,4.786-0.068,7.045-0.068h9.492
			C589.889,89.795,588.769,88.951,587.842,87.669z"/>
		<linearGradient id="SVGID_9_" gradientUnits="userSpaceOnUse" x1="611.3047" y1="83.0586" x2="611.4359" y2="90.578">
			<stop  offset="0" style="stop-color:#B3B3B3"/>
			<stop  offset="1" style="stop-color:#FFFFFF"/>
		</linearGradient>
		<path fill="url(#SVGID_9_)" d="M607.113,90.412c2.282,0.033,4.452,0.077,6.312,0.13c0.721-1.872,1.584-4.769,2.198-7.56
			C612.874,87.538,610.283,89.538,607.113,90.412z"/>
		<linearGradient id="SVGID_10_" gradientUnits="userSpaceOnUse" x1="642.7334" y1="34.3584" x2="643.7219" y2="90.9904">
			<stop  offset="0" style="stop-color:#B3B3B3"/>
			<stop  offset="1" style="stop-color:#FFFFFF"/>
		</linearGradient>
		<path fill="url(#SVGID_10_)" d="M648.483,59.622l-5.995-3.181c-6.029-3.133-9.631-7.838-9.631-12.587c0-4.2,2.054-7.575,5.4-9.419
			c-3.294,0.819-6.021,2.277-8.056,4.329c-2.511,2.534-3.819,5.924-3.785,9.829c0,6.213,4.17,11.448,12.395,15.558
			c5.909,2.954,13.764,7.901,13.764,16.707c0,3.851-1.804,7.904-5.656,10.075c8.147-2.021,13.101-7.538,13.101-15.178
			C660.02,68.938,656.354,63.811,648.483,59.622z"/>
		<linearGradient id="SVGID_11_" gradientUnits="userSpaceOnUse" x1="629.3105" y1="80.1865" x2="629.5102" y2="91.6233">
			<stop  offset="0" style="stop-color:#B3B3B3"/>
			<stop  offset="1" style="stop-color:#FFFFFF"/>
		</linearGradient>
		<path fill="url(#SVGID_11_)" d="M623.776,80.283c0.367,4.223,1.221,7.42,1.925,8.6c1.371,0.716,4.513,2.078,9.34,2.644
			C629.895,89.479,626.006,84.67,623.776,80.283z"/>
		<linearGradient id="SVGID_12_" gradientUnits="userSpaceOnUse" x1="653.4453" y1="33.8511" x2="653.5975" y2="42.5734">
			<stop  offset="0" style="stop-color:#B3B3B3"/>
			<stop  offset="1" style="stop-color:#FFFFFF"/>
		</linearGradient>
		<path fill="url(#SVGID_12_)" d="M657.611,42.502c-0.201-2.988-0.603-5.417-0.984-6.986c-0.607-0.136-1.192-0.296-1.86-0.501
			c-1.859-0.558-3.684-0.896-5.338-1.095C653.062,35.535,655.805,38.873,657.611,42.502z"/>
		<linearGradient id="SVGID_13_" gradientUnits="userSpaceOnUse" x1="69.9712" y1="35.0688" x2="70.1347" y2="44.4356">
			<stop  offset="0" style="stop-color:#B3B3B3"/>
			<stop  offset="1" style="stop-color:#FFFFFF"/>
		</linearGradient>
		<path fill="url(#SVGID_13_)" d="M68.327,35.097c0.554,0.538,0.953,1.294,0.953,2.376c0,0.524,0,1.304-2.532,7.021
			c0.629-1.162,1.282-2.332,1.93-3.438c1.957-3.356,3.185-5,4.682-5.952c-0.793,0.01-1.616,0.015-2.455,0.015
			C70.046,35.119,69.183,35.112,68.327,35.097z"/>
		<linearGradient id="SVGID_14_" gradientUnits="userSpaceOnUse" x1="90.1528" y1="35.0625" x2="90.475" y2="53.5187">
			<stop  offset="0" style="stop-color:#B3B3B3"/>
			<stop  offset="1" style="stop-color:#FFFFFF"/>
		</linearGradient>
		<path fill="url(#SVGID_14_)" d="M89.626,35.071c0.767,0.589,1.347,1.43,1.347,2.677c0,1.897-2.532,8.264-2.542,8.289
			c-0.987,2.507-2.005,5.035-3.04,7.57c1.001-2.348,1.901-4.469,2.653-6.261c2.225-5.194,3.939-8.644,5.333-10.665
			c0.467-0.6,1.088-1.125,1.86-1.572c-0.561,0.006-1.137,0.01-1.727,0.01C92.282,35.119,90.952,35.102,89.626,35.071z"/>
		<linearGradient id="SVGID_15_" gradientUnits="userSpaceOnUse" x1="56.5996" y1="34.7983" x2="57.5975" y2="91.9703">
			<stop  offset="0" style="stop-color:#B3B3B3"/>
			<stop  offset="1" style="stop-color:#FFFFFF"/>
		</linearGradient>
		<path fill="url(#SVGID_15_)" d="M65.928,70.236l-4.31-9.256c-0.665-1.518-0.936-2.466-0.936-3.271c0-0.018,0-0.039,0-0.062
			l-0.114,0.24L58.3,53.346c-0.416-0.831-1.85-3.731-2.88-6.134l-2.718-6.25c-0.721-1.583-1.042-2.743-1.042-3.762
			c0-0.926,0.36-1.612,0.892-2.128c-1.547,0.031-3.294,0.047-5.253,0.047c-1.896,0-3.712-0.02-5.545-0.062
			c1.19,1.088,2.043,2.72,3.151,5.128L53.7,59.522c0.048,0.12,1.18,2.964,1.18,4.293c0,0.741-0.21,1.736-0.595,2.848l0.987-1.864
			l2.259,3.755c0.858,1.427,1.949,3.918,3.212,6.806l4.053,9.173l0.909,2.133c0.735,1.734,1.514,3.562,2.179,5.053
			c0.165,0.043,0.353,0.062,0.561,0.062c0.418,0,0.796-0.048,1.055-0.089c0.81-2.116,1.768-4.521,2.82-7.108l-2.232-5.209
			C69.386,77.738,68.097,74.827,65.928,70.236z"/>
		<linearGradient id="SVGID_16_" gradientUnits="userSpaceOnUse" x1="29.9409" y1="34.7856" x2="30.9389" y2="91.9595">
			<stop  offset="0" style="stop-color:#B3B3B3"/>
			<stop  offset="1" style="stop-color:#FFFFFF"/>
		</linearGradient>
		<path fill="url(#SVGID_16_)" d="M42.795,78.861c-0.977-1.926-2.314-4.562-4.411-9.203l-9.517-21.262
			c-4.046-9.131-4.462-10.177-4.462-11.196c0-0.684,0.176-1.459,0.771-2.146c-1.802,0.042-3.654,0.064-5.587,0.064
			c-2.034,0-3.932-0.019-5.712-0.053c1.49,1.122,2.479,2.969,4.044,6.382L32.785,73.64c2.713,5.99,6.189,13.778,7.899,18.078
			c0.172,0.053,0.317,0.062,0.508,0.062c0.527,0,0.953-0.053,1.243-0.108c0.617-1.32,1.158-2.578,1.698-3.834
			c0.556-1.291,1.112-2.58,1.749-3.937l0.95-2.008l-1.371,2.288L42.795,78.861z"/>
		<linearGradient id="SVGID_17_" gradientUnits="userSpaceOnUse" x1="114.8975" y1="34.9272" x2="115.8669" y2="90.4686">
			<stop  offset="0" style="stop-color:#B3B3B3"/>
			<stop  offset="1" style="stop-color:#FFFFFF"/>
		</linearGradient>
		<path fill="url(#SVGID_17_)" d="M120.368,87.669c-1.359-1.923-1.913-4.847-1.913-10.09V66.732c0-3.205,0.6-4.911,3.763-5.242
			c-3.144-0.34-3.763-2.069-3.763-5.149V40.39c0-2.625,0.222-4.362,1.681-5.271h-5.857c-2.194,0-4.38-0.022-6.542-0.067
			c2.31,1.621,2.636,4.552,2.636,10.625v33.997c0,5.99-0.273,9.093-2.776,10.719c2.508-0.044,4.786-0.068,7.045-0.068h9.493
			C122.414,89.795,121.294,88.951,120.368,87.669z"/>
		<linearGradient id="SVGID_18_" gradientUnits="userSpaceOnUse" x1="140.5146" y1="35.0469" x2="140.6241" y2="41.3203">
			<stop  offset="0" style="stop-color:#B3B3B3"/>
			<stop  offset="1" style="stop-color:#FFFFFF"/>
		</linearGradient>
		<path fill="url(#SVGID_18_)" d="M144.093,41.259c-0.152-1.791-0.51-5.84-0.549-6.266c-1.882,0.068-4.346,0.101-6.499,0.115
			c1.976,0.591,3.606,1.541,4.934,2.869C142.773,38.833,143.484,40.015,144.093,41.259z"/>
		<linearGradient id="SVGID_19_" gradientUnits="userSpaceOnUse" x1="134.6182" y1="58.4341" x2="134.7271" y2="64.6724">
			<stop  offset="0" style="stop-color:#B3B3B3"/>
			<stop  offset="1" style="stop-color:#FFFFFF"/>
		</linearGradient>
		<path fill="url(#SVGID_19_)" d="M131.667,61.495c3.025,0.233,4.803,1.114,5.952,3.127c-0.017-1.006-0.024-2.035-0.024-3.086
			c0-1.075,0.01-2.127,0.026-3.154C136.369,60.557,134.489,61.303,131.667,61.495z"/>
		<linearGradient id="SVGID_20_" gradientUnits="userSpaceOnUse" x1="143.8306" y1="83.0586" x2="143.9618" y2="90.577">
			<stop  offset="0" style="stop-color:#B3B3B3"/>
			<stop  offset="1" style="stop-color:#FFFFFF"/>
		</linearGradient>
		<path fill="url(#SVGID_20_)" d="M139.638,90.412c2.283,0.033,4.453,0.077,6.312,0.13c0.721-1.872,1.584-4.769,2.198-7.56
			C145.399,87.538,142.809,89.538,139.638,90.412z"/>
		<linearGradient id="SVGID_21_" gradientUnits="userSpaceOnUse" x1="194.353" y1="34.8867" x2="195.3341" y2="91.091">
			<stop  offset="0" style="stop-color:#B3B3B3"/>
			<stop  offset="1" style="stop-color:#FFFFFF"/>
		</linearGradient>
		<path fill="url(#SVGID_21_)" d="M191.764,65.841c-1.482-3.27,0.631-4.757,1.606-5.243c4.307-2.155,8.293-5.034,8.293-11.458
			c0-4.958-2.223-8.671-6.828-11.371c-2.223-1.346-6.162-2.292-11.014-2.7c5.509,2.143,8.939,7.635,8.939,14.982
			c0,6.272-2.179,9.767-4.008,11.596c-1.961,1.961-4.138,2.962-7.088,3.213c1.378,0.756,2.438,2.009,3.233,3.805
			c1.853,4.261,3.976,8.89,6.953,13.818c3.637,5.957,8.148,8.388,15.568,8.388c0.396,0,0.771-0.005,1.122-0.012
			c-0.65-0.375-1.325-0.825-2-1.372C201.922,85.541,198.26,79.025,191.764,65.841z"/>
		<linearGradient id="SVGID_22_" gradientUnits="userSpaceOnUse" x1="167.4248" y1="34.9893" x2="168.3937" y2="90.4964">
			<stop  offset="0" style="stop-color:#B3B3B3"/>
			<stop  offset="1" style="stop-color:#FFFFFF"/>
		</linearGradient>
		<path fill="url(#SVGID_22_)" d="M171.949,79.674v-11.21c0-2.652,1.088-3.734,2.544-4.177c-1.659-0.706-2.544-2.192-2.544-5.303
			V41.211c0-3.405,0.375-5.363,2.061-6.335c-4.602,0.064-8.699,0.229-12.472,0.435c2.876,1.711,2.876,5.374,2.876,12.098v32.265
			c0,5.896-0.261,9.011-2.61,10.714c2.128-0.044,4.184-0.063,6.332-0.063c2.136,0,4.24,0.02,6.431,0.063
			C172.21,88.685,171.949,85.574,171.949,79.674z"/>
		<linearGradient id="SVGID_23_" gradientUnits="userSpaceOnUse" x1="229.4487" y1="34.9287" x2="230.4182" y2="90.4701">
			<stop  offset="0" style="stop-color:#B3B3B3"/>
			<stop  offset="1" style="stop-color:#FFFFFF"/>
		</linearGradient>
		<path fill="url(#SVGID_23_)" d="M234.919,87.669c-1.359-1.923-1.913-4.847-1.913-10.09V66.732c0-3.205,0.6-4.911,3.763-5.242
			c-3.144-0.34-3.763-2.069-3.763-5.149V40.39c0-2.625,0.223-4.362,1.681-5.271h-5.86c-2.193,0-4.38-0.022-6.54-0.067
			c2.31,1.621,2.636,4.552,2.636,10.625v33.997c0,5.99-0.273,9.093-2.776,10.719c2.508-0.044,4.786-0.068,7.045-0.068h9.493
			C236.966,89.795,235.846,88.951,234.919,87.669z"/>
		<linearGradient id="SVGID_24_" gradientUnits="userSpaceOnUse" x1="255.0669" y1="35.0469" x2="255.1764" y2="41.3203">
			<stop  offset="0" style="stop-color:#B3B3B3"/>
			<stop  offset="1" style="stop-color:#FFFFFF"/>
		</linearGradient>
		<path fill="url(#SVGID_24_)" d="M258.645,41.259c-0.152-1.791-0.51-5.84-0.549-6.266c-1.881,0.068-4.346,0.101-6.498,0.115
			c1.976,0.591,3.606,1.541,4.934,2.869C257.324,38.833,258.036,40.015,258.645,41.259z"/>
		<linearGradient id="SVGID_25_" gradientUnits="userSpaceOnUse" x1="249.1699" y1="58.4355" x2="249.2788" y2="64.6729">
			<stop  offset="0" style="stop-color:#B3B3B3"/>
			<stop  offset="1" style="stop-color:#FFFFFF"/>
		</linearGradient>
		<path fill="url(#SVGID_25_)" d="M246.219,61.495c3.025,0.233,4.803,1.114,5.952,3.127c-0.017-1.006-0.024-2.035-0.024-3.086
			c0-1.075,0.01-2.127,0.026-3.154C250.92,60.557,249.041,61.303,246.219,61.495z"/>
		<linearGradient id="SVGID_26_" gradientUnits="userSpaceOnUse" x1="258.3823" y1="83.0586" x2="258.5135" y2="90.577">
			<stop  offset="0" style="stop-color:#B3B3B3"/>
			<stop  offset="1" style="stop-color:#FFFFFF"/>
		</linearGradient>
		<path fill="url(#SVGID_26_)" d="M254.19,90.412c2.283,0.033,4.453,0.077,6.312,0.13c0.721-1.872,1.584-4.769,2.198-7.56
			C259.951,87.538,257.361,89.538,254.19,90.412z"/>
		<linearGradient id="SVGID_27_" gradientUnits="userSpaceOnUse" x1="345.1357" y1="35.062" x2="345.4579" y2="53.5182">
			<stop  offset="0" style="stop-color:#B3B3B3"/>
			<stop  offset="1" style="stop-color:#FFFFFF"/>
		</linearGradient>
		<path fill="url(#SVGID_27_)" d="M344.61,35.071c0.767,0.589,1.347,1.43,1.347,2.677c0,1.897-2.532,8.264-2.542,8.289
			c-0.987,2.507-2.005,5.035-3.04,7.57c1.001-2.348,1.901-4.469,2.653-6.261c2.228-5.2,3.945-8.65,5.333-10.661
			c0.467-0.601,1.088-1.127,1.859-1.576c-0.561,0.006-1.136,0.01-1.727,0.01C347.266,35.119,345.936,35.102,344.61,35.071z"/>
		<linearGradient id="SVGID_28_" gradientUnits="userSpaceOnUse" x1="324.9556" y1="35.0688" x2="325.119" y2="44.4356">
			<stop  offset="0" style="stop-color:#B3B3B3"/>
			<stop  offset="1" style="stop-color:#FFFFFF"/>
		</linearGradient>
		<path fill="url(#SVGID_28_)" d="M323.311,35.097c0.554,0.538,0.953,1.294,0.953,2.376c0,0.524,0,1.304-2.532,7.021
			c0.628-1.162,1.282-2.332,1.93-3.438c1.957-3.356,3.185-5,4.682-5.952c-0.793,0.01-1.616,0.015-2.455,0.015
			C325.03,35.119,324.167,35.112,323.311,35.097z"/>
		<linearGradient id="SVGID_29_" gradientUnits="userSpaceOnUse" x1="284.9243" y1="34.7856" x2="285.9223" y2="91.9595">
			<stop  offset="0" style="stop-color:#B3B3B3"/>
			<stop  offset="1" style="stop-color:#FFFFFF"/>
		</linearGradient>
		<path fill="url(#SVGID_29_)" d="M297.778,78.861c-0.977-1.926-2.314-4.562-4.411-9.203l-9.517-21.262
			c-4.046-9.131-4.462-10.177-4.462-11.196c0-0.684,0.177-1.459,0.771-2.146c-1.802,0.042-3.654,0.064-5.586,0.064
			c-2.034,0-3.933-0.019-5.713-0.053c1.49,1.122,2.479,2.969,4.044,6.382l14.864,32.191c2.713,5.99,6.188,13.778,7.898,18.078
			c0.172,0.053,0.317,0.062,0.508,0.062c0.527,0,0.953-0.053,1.241-0.108c0.626-1.33,1.171-2.598,1.715-3.862
			c0.551-1.282,1.103-2.563,1.734-3.908l0.951-2.008l-1.371,2.288L297.778,78.861z"/>
		<linearGradient id="SVGID_30_" gradientUnits="userSpaceOnUse" x1="311.5835" y1="34.7979" x2="312.5814" y2="91.9698">
			<stop  offset="0" style="stop-color:#B3B3B3"/>
			<stop  offset="1" style="stop-color:#FFFFFF"/>
		</linearGradient>
		<path fill="url(#SVGID_30_)" d="M320.911,70.236l-4.312-9.259c-0.663-1.522-0.934-2.469-0.934-3.269c0-0.018,0-0.039,0-0.062
			l-0.114,0.24l-2.269-4.541c-0.416-0.831-1.85-3.731-2.88-6.134l-2.721-6.254c-0.718-1.587-1.04-2.746-1.04-3.757
			c0-0.926,0.36-1.612,0.893-2.128c-1.548,0.031-3.294,0.047-5.253,0.047c-1.896,0-3.712-0.02-5.545-0.062
			c1.189,1.088,2.043,2.72,3.151,5.128l8.796,19.337c0.048,0.12,1.18,2.964,1.18,4.293c0,0.741-0.21,1.736-0.595,2.848l0.987-1.864
			l2.259,3.755c0.873,1.451,1.988,4.002,3.28,6.955l3.985,9.023l0.91,2.133c0.735,1.734,1.514,3.562,2.179,5.053
			c0.165,0.043,0.353,0.062,0.561,0.062c0.418,0,0.796-0.048,1.055-0.089c0.81-2.116,1.768-4.521,2.82-7.108l-2.232-5.209
			C324.505,78.058,323.216,75.122,320.911,70.236z"/>
	</g>
	<g>
		<path fill="#1B1464" d="M404.756,96.743c-18.345,0-33.214-14.869-33.214-33.21c0-18.341,14.869-33.209,33.214-33.209
			c18.339,0,33.208,14.869,33.208,33.209C437.964,81.874,423.095,96.743,404.756,96.743z"/>
		<linearGradient id="SVGID_31_" gradientUnits="userSpaceOnUse" x1="404.7539" y1="94.5762" x2="404.7539" y2="75.6152">
			<stop  offset="0" style="stop-color:#FFFFFF"/>
			<stop  offset="1" style="stop-color:#1B1464"/>
		</linearGradient>
		<path opacity="0.7" fill="url(#SVGID_31_)" d="M433.356,75.615c-1.569,3.715-3.843,7.06-6.653,9.867
			c-2.808,2.811-6.152,5.084-9.867,6.653c-3.713,1.57-7.795,2.44-12.08,2.44c-4.288,0-8.371-0.87-12.086-2.44
			c-3.712-1.569-7.057-3.843-9.867-6.653c-2.808-2.808-5.079-6.152-6.65-9.867"/>
		<linearGradient id="SVGID_32_" gradientUnits="userSpaceOnUse" x1="404.7559" y1="32.4927" x2="404.7559" y2="63.5327">
			<stop  offset="0" style="stop-color:#FFFFFF"/>
			<stop  offset="1" style="stop-color:#1B1464"/>
		</linearGradient>
		<path opacity="0.7" fill="url(#SVGID_32_)" d="M373.714,63.533c0-4.286,0.866-8.368,2.438-12.082
			c1.571-3.714,3.843-7.059,6.65-9.866c2.811-2.809,6.155-5.083,9.867-6.653c3.715-1.571,7.798-2.439,12.086-2.439
			c4.285,0,8.367,0.868,12.08,2.439c3.715,1.571,7.06,3.844,9.867,6.653c2.811,2.808,5.084,6.152,6.653,9.866
			c1.569,3.713,2.44,7.796,2.44,12.082"/>
		<path fill="#CCCCCC" d="M419.264,39.118c2.532,4.251,3.848,9.203,4.015,14.508c0.063,2.052-2.534,8.354-3.356,10.534
			c-2.077,5.498-4.368,6.353-9.34,10.067c-4.393,3.279-8.501,7.514-14.337,7.797c-0.465,0.021-0.929,0.034-1.396,0.034
			c-5.309,0-10.26-1.483-14.512-4.015c4.958,8.324,14.022,13.92,24.418,13.92c15.698,0,28.429-12.73,28.429-28.431
			C433.185,53.14,427.588,44.077,419.264,39.118z"/>
		<path fill="#666666" d="M427.463,76.089c-4.431,7.981-12.949,13.398-22.707,13.398c-5.986,0-11.597-2.002-16.093-5.586
			c2.029,0.418,4.104,0.634,6.187,0.634c0.51,0,1.013-0.015,1.519-0.039c5.572-0.269,9.725-3.569,13.387-6.484
			c0.769-0.611,1.533-1.221,2.312-1.802c0,0,1.476,0.804,2.646,1.094c1.168,0.295,1.46-0.228,2.483-0.29
			c1.022-0.068,1.608,1.168,3.364,1.168c1.751,0,2.043-1.918,3.066-2.566C424.652,74.967,427.463,76.089,427.463,76.089z"/>
		
			<ellipse transform="matrix(0.9582 -0.2862 0.2862 0.9582 -7.7646 121.4726)" fill="#666666" stroke="#CCCCCC" stroke-width="0.5" stroke-miterlimit="10" cx="411.633" cy="87.296" rx="3.676" ry="2.016"/>
		
			<ellipse transform="matrix(0.8994 -0.4371 0.4371 0.8994 5.7167 190.2857)" fill="#666666" stroke="#CCCCCC" stroke-width="0.5" stroke-miterlimit="10" cx="416.26" cy="82.723" rx="2.119" ry="1.073"/>
	</g>
</g>
</svg>
