<?xml version="1.0" encoding="utf-8"?>
<!-- Generator: Adobe Illustrator 16.0.0, SVG Export Plug-In . SVG Version: 6.00 Build 0)  -->
<!DOCTYPE svg PUBLIC "-//W3C//DTD SVG 1.1//EN" "http://www.w3.org/Graphics/SVG/1.1/DTD/svg11.dtd">
<svg version="1.1" id="Layer_1" xmlns="http://www.w3.org/2000/svg" xmlns:xlink="http://www.w3.org/1999/xlink" x="0px" y="0px"
	 width="120px" height="120px" viewBox="0 0 120 120" enable-background="new 0 0 120 120" xml:space="preserve">
<g>
	<path d="M93.797,70.525c-0.562,0-0.752-0.037-0.752-0.037l-1.635-0.319l-0.082-1.683l0.25-22.655l1.965-0.014
		c0,0,2.514-0.017,4.474-0.017c1.013,0,1.883,0.005,2.212,0.019c1.869,0.074,3.207,1.395,3.572,1.797
		c0.802,0.879,2.256,4.669,2.385,7.147c0.121,2.335-0.496,8.275-1.826,10.588c-1.125,1.959-2.361,3.184-4.133,4.097
		c-1.154,0.595-3.05,0.951-5.635,1.059C94.252,70.521,93.992,70.525,93.797,70.525z"/>
	<path fill="#D3AF8E" d="M93.557,47.817c0,0,5.64-0.038,6.592,0c0.953,0.038,1.791,0.724,2.172,1.144
		c0.382,0.418,1.754,3.695,1.867,5.906c0.115,2.21-0.532,7.697-1.562,9.488s-2.058,2.667-3.315,3.314
		c-1.258,0.648-3.887,0.801-4.801,0.839c-0.915,0.038-1.182,0-1.182,0L93.557,47.817z"/>
	<path d="M62.341,99.901c-0.949,0-1.913-0.035-2.864-0.104c-9.592-0.694-18.37-4.785-24.717-11.519
		c-6.391-6.782-9.554-15.425-8.908-24.336l0.355-12.23c-0.002-8.877,3.778-17.269,10.642-23.571
		c6.815-6.257,15.865-9.703,25.483-9.703c9.617,0,18.668,3.446,25.483,9.703c6.863,6.303,10.643,14.694,10.643,23.63L97.92,69.078
		c-0.65,8.994-5.025,17.091-12.326,22.881C79.137,97.08,70.879,99.901,62.341,99.901z"/>
	<path fill="#D3AF8E" d="M95.92,69.016c-0.624,8.629-5,16.166-11.568,21.376s-15.332,8.092-24.73,7.411
		c-9.398-0.68-17.655-4.794-23.406-10.896c-5.749-6.102-8.994-14.19-8.369-22.819l0.359-12.316c0-8.652,3.82-16.485,9.996-22.156
		c6.176-5.67,14.707-9.177,24.131-9.177s17.955,3.507,24.131,9.177c6.176,5.671,9.995,13.504,9.995,22.156L95.92,69.016z"/>
	<path d="M30.453,73.943c-1.588-0.202-9.633-1.273-12.143-2.53c-3.029-1.513-5.385-4.799-5.601-7.812
		c-0.185-2.591-0.335-7.452,0.011-10.225c0.551-4.406,5.428-6.683,6.908-7.275c2.699-1.079,10.074-1.73,10.906-1.802l2.17-0.185
		v30.114L30.453,73.943z"/>
	<path fill="#D3AF8E" d="M30.705,71.959c0,0-9.166-1.166-11.5-2.334c-2.334-1.166-4.333-3.832-4.5-6.166s-0.333-7.166,0-9.834
		c0.333-2.666,3.167-4.666,5.667-5.666s10.333-1.666,10.333-1.666V71.959z"/>
	<path fill="#D3AF8E" d="M93.557,47.817c0,0,5.64-0.038,6.592,0c0.953,0.038,1.791,0.724,2.172,1.144
		c0.382,0.418,1.754,3.695,1.867,5.906c0.115,2.21-0.532,7.697-1.562,9.488s-2.058,2.667-3.315,3.314
		c-1.258,0.648-3.887,0.801-4.801,0.839c-0.915,0.038-1.182,0-1.182,0L93.557,47.817z"/>
	<path d="M94.967,53.076c0,0,2.058-0.839,3.201-0.877c1.143-0.038,2.896,0.438,2.896,0.438s-0.915,0.554-0.952,1.011
		c-0.039,0.457-0.076,2.82-0.191,3.506c-0.113,0.686-0.893,1.562-1.486,2.017c-0.592,0.455-1.066,1.451-1.143,2.175
		s-2.134,1.943-2.134,1.943L94.967,53.076z"/>
	<path fill="#D3AF8E" d="M95.92,69.016c-0.624,8.629-5,16.166-11.568,21.376s-15.332,8.092-24.73,7.411
		c-9.398-0.68-17.655-4.794-23.406-10.896c-5.749-6.102-8.994-14.19-8.369-22.819l0.359-12.316c0-8.652,3.82-16.485,9.996-22.156
		c6.176-5.67,14.707-9.177,24.131-9.177s17.955,3.507,24.131,9.177c6.176,5.671,9.995,13.504,9.995,22.156L95.92,69.016z"/>
	<path fill="#D3AF8E" d="M30.705,71.959c0,0-9.166-1.166-11.5-2.334c-2.334-1.166-4.333-3.832-4.5-6.166s-0.333-7.166,0-9.834
		c0.333-2.666,3.167-4.666,5.667-5.666s10.333-1.666,10.333-1.666V71.959z"/>
	<path d="M29.989,57.131c0,0-0.449-1.646-1.646-2.318s-2.505-1.196-4.038-1.01c-1.533,0.188-2.319,0.637-3.553,1.271
		c-1.233,0.636-1.683,1.271-1.832,2.057s-0.374,2.094,0,2.879s0.636,0.861,1.047,0.562s0.187-1.271,0.187-1.757
		s1.318-2.133,2.455-2.356c1.135-0.224,2.521-0.204,2.93,0c0.599,0.3,1.01,1.309,1.01,1.309s-0.465,0.858-0.859,1.358
		c-0.396,0.5-0.86,1.371-0.785,2.008c0.074,0.635,0.561,0.71,1.42,1.943c0.86,1.234,1.445,2.693,1.445,2.693
		s-0.174-2.506-0.847-3.441c-0.673-0.934-0.822-1.532-0.411-2.28S29.989,57.131,29.989,57.131z"/>
	<g>
		<path fill="#C8A687" d="M73.17,82.796c-2.938,0.757-6.021,1.173-9.162,1.173c-0.805,0-1.623-0.026-2.432-0.078
			c-8.09-0.512-15.471-3.51-20.783-8.44c-5.224-4.849-7.812-10.996-7.29-17.31l0.009-0.15l0.361-10.875
			c0-2.697,0.565-5.328,1.645-7.809c-2.161,3.813-3.312,8.062-3.312,12.465l-0.36,12.433l-0.009,0.173
			c-0.523,7.216,2.066,14.243,7.291,19.787c5.312,5.637,12.693,9.063,20.783,9.648c0.808,0.059,1.625,0.089,2.431,0.089
			c7.189,0,14.123-2.359,19.524-6.644c2.193-1.739,4.062-3.73,5.575-5.909L73.17,82.796z"/>
		<path fill="#C8A687" d="M86.96,75.333c0.257,0.392,0.497,0.812,0.7,1.27c0.519,1.168,0.812,2.114,0.979,2.843
			c1.869-3.255,3-6.858,3.286-10.641l0.015-0.463C90.806,70.882,89.121,73.238,86.96,75.333z"/>
	</g>
	<g>
		<path d="M87.119,63.319c-0.183-0.049-0.327-0.205-0.353-0.404c-0.067-0.548-0.989-1.874-1.854-3.005
			c-0.699-0.915-1.74-2.552-1.758-2.564c-0.21-0.162-0.25-0.463-0.088-0.674s0.463-0.25,0.675-0.089
			c0.072,0.056,1.619,0.597,2.396,1.612c1.157,1.516,1.58,4.57,1.584,4.601c0.033,0.263-0.154,0.503-0.417,0.536
			C87.239,63.34,87.178,63.336,87.119,63.319z"/>
		<path d="M81.533,63.721c-0.019-0.005-0.036-0.012-0.054-0.018c-0.247-0.098-0.367-0.377-0.271-0.624
			c0.045-0.113,1.113-2.794,2.609-4.538c1.611-1.879,2.785-1.631,2.914-1.597c0.256,0.069,0.408,0.331,0.34,0.589
			c-0.068,0.256-0.332,0.408-0.589,0.34c0.015,0.004,0.06,1.398-1.138,2.793c-1.389,1.621-3.232,2.74-3.242,2.768
			C82.014,63.662,81.766,63.783,81.533,63.721z"/>
	</g>
	<g>
		<path d="M62.708,66.121c-0.078,0.014-0.159,0.012-0.241-0.007c-0.341-0.076-0.555-0.415-0.478-0.756
			c0.011-0.048,1.185-4.93,3.295-7.19c1.419-1.52,4.424-3.396,4.551-3.476c0.296-0.185,0.687-0.095,0.871,0.202
			s0.094,0.686-0.204,0.871c-0.028,0.019-1.234,3.25-2.539,4.648c-1.619,1.734-4.539,4.332-4.74,5.223
			C63.164,65.896,62.955,66.082,62.708,66.121z"/>
		<path d="M71.824,64.982c-0.273,0.123-0.604,0.023-0.76-0.24c-0.023-0.038-2.445-1.854-5.008-4.016
			c-2.279-1.92-3.321-3.494-3.333-3.49c-0.304,0.11-0.649-0.035-0.771-0.334c-0.121-0.299,0.005-0.636,0.3-0.769
			c0.18-0.081,2.857-0.275,5.735,2.151c2.72,2.293,4.01,5.68,4.107,5.842c0.169,0.284,0.076,0.652-0.208,0.822
			C71.866,64.962,71.846,64.973,71.824,64.982z"/>
	</g>
	<path d="M79.604,84.771c-2.697-0.573-4.185,0.292-4.86,0.337c-0.434,0.028-0.756,0.183-1.012,0.483
		c-0.678,0.795-1.774,1.264-3.171,1.356c-1.355,0.09-2.863-0.189-4.135-0.768c-2.091-0.95-1.475-3.156-0.856-4.189
		c1.305-1.524,3.86-3.991,6.914-4.194c0.542-0.036,1.084,0.003,1.609,0.114c2.689,0.571,10.45-0.484,11.373,0.33
		c0.18,0.159-1.455,1.778-1.255,4.793C84.39,85.713,79.667,84.783,79.604,84.771z"/>
	<g>
		<path fill="#C1272D" d="M69.067,91.287c-1.241,0.224-5.729-0.551-3.891-5.035s3.195-3.988,5.324-3.196
			c1.541,0.572,4.813-2.326,7.264-1.032c1.855,0.979-1.131,4.334-3.129,5.364C72.637,88.418,71.678,90.818,69.067,91.287z"/>
		<path d="M68.866,91.813c-1.08,0.071-3.044-0.318-4.029-1.688c-0.757-1.051-0.798-2.418-0.123-4.063
			c1.134-2.764,2.173-3.929,3.587-4.022c0.766-0.052,1.548,0.239,2.374,0.547c0.424,0.16,1.353-0.171,2.31-0.543
			c0.934-0.364,1.993-0.777,3.04-0.847c0.745-0.05,1.391,0.076,1.974,0.384c0.551,0.29,0.854,0.787,0.851,1.397
			c-0.009,1.688-2.403,4.039-3.984,4.854c-0.734,0.378-1.329,0.973-1.958,1.602c-1.001,1.001-2.036,2.036-3.75,2.345
			C69.071,91.795,68.974,91.807,68.866,91.813z M68.367,83.037c-0.677,0.045-1.53,0.484-2.728,3.404
			c-0.535,1.306-0.532,2.349,0.009,3.101c0.803,1.115,2.642,1.377,3.331,1.253c1.405-0.253,2.287-1.134,3.22-2.067
			c0.656-0.656,1.334-1.334,2.207-1.784c1.499-0.772,3.437-2.836,3.442-3.97c0.001-0.238-0.094-0.39-0.317-0.508
			c-1.082-0.569-2.709-0.065-4.185,0.51c-1.171,0.457-2.37,0.581-3.739,1.383c-0.314,0.185-0.244-1.17-0.244-1.17
			S68.669,83.018,68.367,83.037z"/>
	</g>
</g>
</svg>
