<?xml version="1.0" encoding="utf-8"?>
<!-- Generator: Adobe Illustrator 16.0.0, SVG Export Plug-In . SVG Version: 6.00 Build 0)  -->
<!DOCTYPE svg PUBLIC "-//W3C//DTD SVG 1.1//EN" "http://www.w3.org/Graphics/SVG/1.1/DTD/svg11.dtd">
<svg version="1.1" id="Layer_1" xmlns="http://www.w3.org/2000/svg" xmlns:xlink="http://www.w3.org/1999/xlink" x="0px" y="0px"
	 width="20px" height="20px" viewBox="0 0 20 20" enable-background="new 0 0 20 20" xml:space="preserve">
<g>
	<g>
		<path fill="#FFFFFF" d="M9.999,18.919c-4.916,0-8.916-4.002-8.916-8.921c0-4.916,4-8.917,8.916-8.917
			c4.919,0,8.918,4.001,8.918,8.917C18.917,14.917,14.918,18.919,9.999,18.919z"/>
		<path fill="#FFFFFF" d="M9.999,1.728c-4.561,0-8.27,3.71-8.27,8.271c0,4.562,3.709,8.272,8.27,8.272
			c4.562,0,8.272-3.711,8.272-8.272C18.271,5.438,14.561,1.728,9.999,1.728z M9.999,16.655c-3.669,0-6.654-2.985-6.654-6.657
			c0-3.67,2.985-6.655,6.654-6.655c3.672,0,6.657,2.985,6.657,6.655C16.656,13.67,13.671,16.655,9.999,16.655z"/>
		<path fill="#FFFFFF" d="M9.242,8.375c-0.564,0-1.022-0.458-1.022-1.023V6.217c0-0.565,0.458-1.023,1.022-1.023h1.515
			c0.563,0,1.022,0.458,1.022,1.023v1.135c0,0.565-0.459,1.023-1.022,1.023H9.242z"/>
		<path fill="#FFFFFF" d="M9.242,7.729h1.515c0.206,0,0.377-0.172,0.377-0.378V6.217c0-0.206-0.171-0.378-0.377-0.378H9.242
			c-0.206,0-0.377,0.172-0.377,0.378v1.135C8.865,7.558,9.036,7.729,9.242,7.729z"/>
		<path fill="#FFFFFF" d="M8.486,14.806c-0.565,0-1.024-0.459-1.024-1.024v-0.756c0-0.473,0.322-0.873,0.758-0.99v-1.046
			c-0.436-0.118-0.758-0.518-0.758-0.99V9.243c0-0.565,0.459-1.024,1.024-1.024h2.271c0.563,0,1.022,0.459,1.022,1.024v2.792
			c0.436,0.117,0.757,0.518,0.757,0.99v0.756c0,0.565-0.458,1.024-1.024,1.024H8.486z"/>
		<path fill="#FFFFFF" d="M11.512,12.647h-0.378V9.243c0-0.207-0.171-0.379-0.377-0.379H8.486c-0.206,0-0.379,0.172-0.379,0.379
			v0.756c0,0.206,0.173,0.379,0.379,0.379h0.379v2.27H8.486c-0.206,0-0.379,0.17-0.379,0.378v0.756c0,0.206,0.173,0.379,0.379,0.379
			h3.025c0.206,0,0.379-0.173,0.379-0.379v-0.756C11.891,12.817,11.718,12.647,11.512,12.647z"/>
	</g>
	<g>
		<path d="M9.999,1.728c-4.561,0-8.27,3.71-8.27,8.271c0,4.562,3.709,8.272,8.27,8.272c4.562,0,8.272-3.711,8.272-8.272
			C18.271,5.438,14.561,1.728,9.999,1.728z M9.999,16.655c-3.669,0-6.654-2.985-6.654-6.657c0-3.67,2.985-6.655,6.654-6.655
			c3.672,0,6.657,2.985,6.657,6.655C16.656,13.67,13.671,16.655,9.999,16.655z"/>
		<path d="M9.242,7.729h1.515c0.206,0,0.377-0.172,0.377-0.378V6.217c0-0.206-0.171-0.378-0.377-0.378H9.242
			c-0.206,0-0.377,0.172-0.377,0.378v1.135C8.865,7.558,9.036,7.729,9.242,7.729z"/>
		<path d="M11.512,12.647h-0.378V9.243c0-0.207-0.171-0.379-0.377-0.379H8.486c-0.206,0-0.379,0.172-0.379,0.379v0.756
			c0,0.206,0.173,0.379,0.379,0.379h0.379v2.27H8.486c-0.206,0-0.379,0.17-0.379,0.378v0.756c0,0.206,0.173,0.379,0.379,0.379h3.025
			c0.206,0,0.379-0.173,0.379-0.379v-0.756C11.891,12.817,11.718,12.647,11.512,12.647z"/>
	</g>
</g>
</svg>
