<?xml version="1.0" encoding="utf-8"?>
<!-- Generator: Adobe Illustrator 16.0.0, SVG Export Plug-In . SVG Version: 6.00 Build 0)  -->
<!DOCTYPE svg PUBLIC "-//W3C//DTD SVG 1.1//EN" "http://www.w3.org/Graphics/SVG/1.1/DTD/svg11.dtd">
<svg version="1.1" id="Layer_1" xmlns="http://www.w3.org/2000/svg" xmlns:xlink="http://www.w3.org/1999/xlink" x="0px" y="0px"
	 width="86px" height="60px" viewBox="0 0 86 60" enable-background="new 0 0 86 60" xml:space="preserve">
<g>
	<path fill="#CCCCCC" d="M6.013,27.719h2.351c0,0,0-1.088,0-2.062c0,0-0.056-0.562-0.579-1.397c-0.527-0.836-1.553-1.29-2.985-1.29
		c-1.432,0-2.983,1.624-2.983,3.748c0,2.125,0.885,3.413,1.648,4.631s2.672,3.722,2.672,4.894c0,1.167-0.637,1.789-1.048,1.789
		c-0.409,0-1.196-0.668-1.196-1.6c0-0.931-0.024-1.239-0.024-1.239H1.53c0,0,0,0.953,0,1.862c0,0.904,0.525,1.74,0.931,2.217
		c0.406,0.479,1.461,1.099,2.484,1.099s2.217-0.238,2.839-1.383c0.62-1.146,0.715-1.403,0.715-2.935c0,0,0.07-1.123-0.501-2.39
		C7.425,32.4,5.755,30.06,5.23,29.201c-0.525-0.858-1.075-1.838-1.075-2.482s0.219-1.383,0.86-1.383
		c0.645,0,1.099,0.429,1.099,1.073S6.013,27.719,6.013,27.719z"/>
	<path fill="#CCCCCC" d="M15.326,23.902c-0.644-0.763-1.386-0.931-2.292-0.931s-2.027,0.502-2.504,1.05
		c-0.479,0.549-0.86,1.146-0.86,2.841c0,1.695,0,9.546,0,10.646c0,1.099,0.763,1.719,1.004,1.957c0.236,0.24,0.715,0.906,2.36,0.906
		c1.41,0,1.862-0.573,2.387-1.312c0.525-0.739,0.717-1.479,0.717-2.22c0,0,0-9.38,0-10.455
		C16.138,25.311,15.97,24.666,15.326,23.902z M13.797,36.909c0,0.742-0.571,1.051-0.895,1.051c-0.321,0-0.943-0.525-0.943-1.359
		s0-9.117,0-10.048c0-1.384,0.943-1.266,0.943-1.266c0.396,0,0.895,0.406,0.895,1.145C13.797,27.172,13.797,36.171,13.797,36.909z"
		/>
	<path fill="#CCCCCC" d="M22.058,34.238c0,1.37,0,2.438,0,2.671c0,0.742-0.574,1.051-0.895,1.051c-0.323,0-0.943-0.525-0.943-1.359
		s0-9.117,0-10.048c0-1.384,0.943-1.266,0.943-1.266c0.394,0,0.895,0.406,0.895,1.145c0,0.235,0,1.291,0,2.65h2.339
		c0-1.324,0-2.377,0-2.697c0-1.073-0.168-1.719-0.812-2.482c-0.645-0.763-1.383-0.931-2.29-0.931s-2.027,0.502-2.506,1.05
		c-0.479,0.549-0.861,1.146-0.861,2.841c0,1.695,0,9.546,0,10.646c0,1.099,0.766,1.719,1.004,1.957
		c0.238,0.24,0.715,0.906,2.363,0.906c1.407,0,1.859-0.573,2.387-1.312c0.525-0.739,0.715-1.479,0.715-2.22c0,0,0-1.106,0-2.601
		H22.058z"/>
	<polygon fill="#CCCCCC" points="33.18,23.09 30.578,23.09 28.31,29.202 28.31,23.09 25.901,23.09 25.901,40.157 28.191,40.157 
		28.191,34.191 28.986,32.422 30.887,40.06 33.18,40.06 30.585,28.862 	"/>
	<polygon fill="#CCCCCC" points="34.517,23.09 40.076,23.09 40.076,25.789 36.807,25.789 36.807,30.275 39.147,30.275 39.147,32.83 
		36.831,32.83 36.831,37.483 40.076,37.483 40.076,40.157 34.517,40.157 	"/>
	<polygon fill="#CCCCCC" points="40.58,23.09 47.763,23.09 47.763,25.836 45.425,25.836 45.425,40.157 42.896,40.157 42.896,25.812 
		40.58,25.812 	"/>
	<path fill="#CCCCCC" d="M53.848,19.702h9.357v1.145c0,0-1.86,0-2.363,0c-0.501,0-0.858,0.311-0.858,1.003
		c0,0.693,0,15.515,0,16.183c0,0.669,0.645,0.871,0.87,0.871c0.227,0,2.352,0,2.352,0v1.254h-9.357v-1.218c0,0,2.055,0,2.652,0
		c0,0,0.617-0.168,0.617-0.932c0-0.763,0.024-15.25,0.024-16.373c0-0.447-0.617-0.789-1.001-0.789c-0.382,0-2.293,0-2.293,0V19.702z
		"/>
	<path fill="#CCCCCC" d="M75.09,19.476c-5.181,0-9.379,4.745-9.379,10.599c0,5.853,4.198,10.598,9.379,10.598
		s9.379-4.745,9.379-10.598C84.469,24.221,80.271,19.476,75.09,19.476z M79.038,37.756c-1.617,1.521-2.682,1.677-3.948,1.677
		s-2.604-0.651-3.844-1.801c-1.242-1.147-2.018-4.24-2.018-8.11s1.026-6.353,2.39-7.438c0,0,1.118-1.583,3.472-1.583
		c1.031,0,2.827,0.093,4.133,1.924c1.306,1.831,1.986,4.853,1.986,7.097C81.209,31.766,80.649,36.236,79.038,37.756z"/>
</g>
</svg>
