<?xml version="1.0" encoding="utf-8"?>
<!-- Generator: Adobe Illustrator 16.0.0, SVG Export Plug-In . SVG Version: 6.00 Build 0)  -->
<!DOCTYPE svg PUBLIC "-//W3C//DTD SVG 1.1//EN" "http://www.w3.org/Graphics/SVG/1.1/DTD/svg11.dtd">
<svg version="1.1" id="Layer_1" xmlns="http://www.w3.org/2000/svg" xmlns:xlink="http://www.w3.org/1999/xlink" x="0px" y="0px"
	 width="600px" height="120px" viewBox="0 0 600 120" enable-background="new 0 0 600 120" xml:space="preserve">
<g>
	<path d="M425.037,83.605c-3.477-0.133-10-0.217-16.618-0.217h-9.676c-3.216,0-6.714,0.067-11.353,0.217l-0.556,0.018l-0.46-0.308
		c-0.812-0.541-1.316-1.589-1.35-2.812c-0.032-1.093,0.353-2.021,1.053-2.542l0.365-0.273l3.191-0.42
		c2.138-0.285,2.177-0.292,2.177-6.009V44.394c0-5.792-0.082-5.803-2.18-6.083l-2.449-0.338l-0.305-0.181
		c-0.889-0.531-1.411-1.611-1.365-2.821c0.046-1.231,0.652-2.255,1.621-2.741l0.399-0.199l0.444,0.017
		c3.694,0.144,7.318,0.215,10.766,0.215c3.496,0,7.066-0.071,10.618-0.214l0.619-0.025l0.492,0.371
		c0.716,0.538,1.126,1.504,1.124,2.652c-0.003,1.146-0.411,2.11-1.129,2.646l-0.345,0.26l-2.306,0.355
		c-2.172,0.338-2.215,0.344-2.215,6.088V69.67c0,3.141,0.285,5.084,0.841,5.77c0.415,0.541,0.892,1.165,6.165,1.165
		c6.142,0,7.423,0,11.312-7.649L424,68.798l0.111-0.138c0.549-0.684,1.395-1.061,2.39-1.061c1.343,0,2.6,0.669,3.204,1.703
		l0.279,0.483l-0.053,0.556c-0.372,3.885-2.152,10.133-3.291,12.329l-0.507,0.974L425.037,83.605z"/>
	<path d="M403.872,69.67c0,3.393,0.288,5.704,1.228,6.861c0.938,1.228,2.237,1.803,7.509,1.803c6.572,0,8.594-0.215,12.854-8.592
		c0.58-0.725,2.242-0.435,2.745,0.433c-0.36,3.755-2.093,9.749-3.105,11.698c-3.826-0.142-10.758-0.215-16.683-0.215h-9.676
		c-3.322,0-6.932,0.073-11.411,0.215c-0.647-0.432-0.792-2.094-0.215-2.526l2.742-0.36c3.252-0.435,3.685-1.013,3.685-7.727V44.394
		c0-6.716-0.433-7.366-3.685-7.8l-2.092-0.289c-0.723-0.433-0.723-2.093,0.145-2.527c3.755,0.145,7.364,0.216,10.831,0.216
		s7.076-0.071,10.688-0.216c0.577,0.434,0.577,2.095,0,2.527l-1.877,0.289c-3.252,0.506-3.683,1.084-3.683,7.8V69.67z"/>
	<path d="M444.024,84.543c-1.232,0-2.288-0.338-3.057-0.976l-0.333-0.28l-0.164-0.401c-0.375-0.918-0.846-2.247-1.344-3.658
		c-0.556-1.58-1.152-3.269-1.687-4.565L425.732,45.25c-2.44-6.168-2.609-6.21-4.228-6.615l-3.499-0.874l-0.369-0.51
		c-0.59-0.812-0.805-1.916-0.575-2.954c0.2-0.901,0.718-1.642,1.423-2.034l0.411-0.228l0.464,0.01
		c1.387,0.027,2.592,0.064,3.754,0.101c1.911,0.059,3.707,0.115,6.035,0.115c3.086,0,6.007-0.058,10.776-0.215l0.608-0.019
		l0.488,0.366c1.493,1.123,1.277,3.594,0.471,4.802l-0.398,0.597l-2.868,0.572c-0.115,0.025-0.215,0.051-0.294,0.075
		c0.312,0.941,1.2,3.281,2.646,6.9l6.361,16.261c0.309,0.817,0.606,1.587,0.882,2.295c0.302-0.69,0.604-1.406,0.879-2.091
		l2.747-6.794c1.762-4.433,4.868-12.521,5.75-15.021c0.225-0.605,0.365-1.038,0.457-1.345c-0.203-0.062-0.474-0.136-0.834-0.226
		l-2.757-0.602l-0.359-0.36c-0.737-0.739-1.065-1.958-0.839-3.107c0.203-1.017,0.817-1.808,1.689-2.171l0.354-0.148l0.385,0.017
		c3.474,0.148,6.192,0.214,8.809,0.214c2.377,0,4.535-0.069,6.596-0.211l0.472-0.033l0.42,0.21c0.773,0.384,1.271,1.201,1.406,2.299
		c0.061,0.476,0.169,2.099-0.903,3.021l-0.351,0.299l-2.332,0.447c-1.797,0.321-2.474,0.678-3.041,1.595
		c-1.522,2.285-3.315,6.293-5.724,12.035L455.37,64.42c-2.288,5.432-3.878,9.687-5.153,13.103c-0.773,2.072-1.436,3.841-2.063,5.371
		l-0.21,0.514l-0.472,0.295C446.593,84.253,445.399,84.543,444.024,84.543z"/>
	<path d="M453.773,63.746c-3.683,8.741-5.56,14.443-7.22,18.487c-0.579,0.362-1.444,0.58-2.529,0.58c-0.867,0-1.515-0.218-1.95-0.58
		c-0.792-1.947-2.021-5.774-3.031-8.231L427.342,44.61c-2.745-6.933-3.104-7.077-5.417-7.655l-2.887-0.721
		c-0.578-0.795-0.36-2.095,0.287-2.456c3.685,0.073,6.069,0.216,9.823,0.216c3.32,0,6.427-0.071,10.834-0.216
		c0.575,0.434,0.503,1.806,0.07,2.456l-2.168,0.433c-1.299,0.289-1.802,0.722-1.802,1.372c0,0.578,1.154,3.611,2.887,7.944
		l6.356,16.25c1.011,2.672,1.875,4.839,2.383,6.066c0.577-1.228,1.732-3.682,2.6-5.851l2.744-6.788
		c1.805-4.549,4.91-12.638,5.777-15.094c0.505-1.371,0.723-2.166,0.723-2.6c0-0.505-0.58-0.794-2.312-1.228l-2.312-0.505
		c-0.575-0.579-0.575-2.095,0.29-2.456c3.395,0.145,6.14,0.216,8.884,0.216c2.455,0,4.622-0.071,6.714-0.216
		c0.58,0.289,0.652,2.022,0.146,2.456l-1.875,0.36c-2.024,0.361-3.252,0.868-4.189,2.384c-1.59,2.383-3.396,6.428-5.852,12.277
		L453.773,63.746z"/>
	<path d="M507.008,83.605c-3.479-0.133-10.002-0.217-16.617-0.217h-9.389c-3.455,0-6.98,0.072-12.375,0.217l-0.604,0.015
		l-0.48-0.362c-0.756-0.562-1.177-1.638-1.123-2.87c0.048-1.147,0.487-2.039,1.241-2.508l0.307-0.193l3.753-0.558
		c2.205-0.346,2.205-0.346,2.205-5.869V44.321c0-5.499,0-5.499-2.29-5.957l-2.141-0.429l-0.282-0.188
		c-0.79-0.525-1.247-1.527-1.218-2.678c0.028-1.219,0.561-2.256,1.428-2.776l0.447-0.268l0.517,0.023
		c3.337,0.143,6.811,0.214,10.326,0.214h15.311c5.596,0,8.802-0.102,9.413-0.196l1.874-0.289l0.119,1.892
		c0.028,0.457,0.125,1.551,0.256,3.005c0.193,2.218,0.464,5.257,0.681,8.167l0.029,0.371l-0.13,0.349
		c-0.404,1.117-1.6,1.839-3.045,1.839c-0.942,0-1.8-0.303-2.411-0.854l-0.353-0.316l-0.143-0.452
		c-0.877-2.793-1.819-4.464-2.36-5.045c-1.121-1.12-3.034-1.686-5.809-1.686c0,0-6.175,0-6.417,0.007
		c-0.009,0.31-0.009,0.708-0.009,1.078c0,0,0,12.909,0,13.071c0.087,0.001,5.271,0.001,5.271,0.001c3.106,0,3.129-0.097,3.648-2.593
		l0.449-2.247l0.305-0.348c0.802-0.916,2.116-1.015,2.643-1.015c1.319,0,2.354,0.506,2.846,1.388l0.247,0.442l-0.034,0.506
		c-0.14,2.271-0.213,4.81-0.213,7.547c0,2.738,0.073,5.276,0.213,7.548l0.034,0.505l-0.247,0.444
		c-0.492,0.885-1.575,1.416-2.889,1.416c-1.139,0-2.109-0.41-2.663-1.121l-0.251-0.323l-0.444-2.209
		c-0.52-2.5-0.551-2.65-3.644-2.65c0,0-5.161,0-5.271,0c0,0.188,0,9.101,0,9.101c0,3.103,0.279,5.073,0.836,5.861
		c0.362,0.503,0.826,1.146,6.168,1.146c5.801,0,7.55,0,11.154-7.403l0.065-0.14l0.09-0.121c0.546-0.749,1.464-1.179,2.524-1.179
		c1.254,0,2.728,0.621,3.191,2.01l0.111,0.331l-0.029,0.351c-0.313,4.088-2.141,10.138-3.221,12.218l-0.505,0.974L507.008,83.605z"
		/>
	<path d="M485.983,52.771c0,2.021,0.072,2.166,2.024,2.166h4.982c3.754,0,4.622-0.506,5.344-3.972l0.36-1.806
		c0.505-0.577,2.312-0.577,2.672,0.073c-0.143,2.311-0.215,4.91-0.215,7.655s0.072,5.345,0.215,7.656
		c-0.359,0.647-2.167,0.721-2.672,0.073l-0.36-1.808c-0.722-3.466-1.59-4.044-5.344-4.044h-4.982c-1.952,0-2.024,0.072-2.024,2.24
		v8.594c0,3.319,0.29,5.632,1.155,6.861c0.939,1.3,2.312,1.875,7.584,1.875c6.284,0,8.738-0.215,12.711-8.376
		c0.577-0.795,2.382-0.505,2.672,0.359c-0.29,3.757-2.022,9.606-3.035,11.556c-3.826-0.142-10.761-0.215-16.68-0.215h-9.389
		c-3.467,0-7.007,0.073-12.424,0.215c-0.574-0.432-0.574-2.167,0-2.526l3.397-0.505c3.247-0.508,3.682-0.94,3.682-7.582V44.321
		c0-6.572-0.435-7.005-3.682-7.655l-1.808-0.361c-0.647-0.433-0.577-2.093,0.146-2.527c3.395,0.145,6.934,0.216,10.398,0.216h15.311
		c4.622,0,8.738-0.071,9.676-0.216c0.072,1.156,0.58,6.355,0.94,11.194c-0.288,0.795-1.95,0.938-2.673,0.289
		c-0.795-2.527-1.805-4.694-2.742-5.704c-1.372-1.373-3.542-2.24-7.079-2.24h-5.776c-2.385,0-2.385,0.145-2.385,2.817V52.771z"/>
	<path d="M526.5,84.543c-7.163,0-11.572-2.077-13.138-2.972l-0.257-0.145l-0.192-0.228c-1.88-2.172-2.735-8.173-2.735-12.829v-0.438
		l0.208-0.384c0.556-1.034,1.708-1.674,3.008-1.674c1.095,0,2.09,0.471,2.662,1.258l0.172,0.234l0.082,0.278
		c1.257,4.078,5.545,10.113,10.766,10.113c4.479,0,6.069-2.996,6.069-5.562c0-4.931-5.06-8.031-8.864-9.935
		c-7.872-3.936-11.863-9.194-11.863-15.631c-0.036-4.068,1.37-7.666,4.071-10.388c3.329-3.36,8.316-5.138,14.414-5.138
		c2.116,0,5.347,0.214,8.731,1.229c0.918,0.282,1.496,0.403,2.245,0.529l0.997,0.167l0.344,0.949
		c0.7,1.923,1.405,6.045,1.405,10.918v0.347l-0.135,0.319c-0.454,1.096-1.629,1.776-3.057,1.776c-1.07,0-2.034-0.388-2.646-1.064
		l-0.241-0.27l-0.113-0.342c-0.433-1.299-2.849-7.771-7.889-7.771c-4.16,0-5.634,2.685-5.634,4.983c0,2.322,2.159,4.888,5.639,6.697
		l4.776,2.533c7.473,3.978,11.104,9.227,11.104,16.046C546.431,77.957,538.421,84.543,526.5,84.543z"/>
	<path d="M526.5,82.813c-6.644,0-10.761-1.88-12.277-2.745c-1.373-1.59-2.311-6.789-2.311-11.698
		c0.503-0.939,2.165-1.012,2.745-0.217c1.442,4.694,6.281,11.338,12.418,11.338c5.345,0,7.799-3.685,7.799-7.294
		c0-5.852-5.486-9.316-9.818-11.483c-5.199-2.6-10.906-6.933-10.906-14.082c-0.072-8.16,6.282-13.793,16.753-13.793
		c2.385,0,5.345,0.289,8.234,1.155c0.939,0.29,1.589,0.434,2.454,0.579c0.58,1.589,1.3,5.488,1.3,10.326
		c-0.359,0.868-2.165,0.939-2.814,0.218c-1.229-3.684-4.332-8.955-9.531-8.955c-4.77,0-7.369,3.104-7.369,6.715
		c0,3.322,2.962,6.355,6.572,8.234l4.769,2.527c4.475,2.384,10.182,6.572,10.182,14.516C544.698,77.034,537.404,82.813,526.5,82.813
		z"/>
</g>
<g>
	<path d="M56.316,84.543c-1.111,0-2.133-0.309-2.957-0.898l-0.375-0.271l-0.192-0.416c-0.591-1.287-1.338-3.049-2.042-4.701
		l-0.721-1.693c0,0-3.779-8.565-4.065-9.208c-0.275,0.57-4.188,8.833-4.188,8.833c-0.479,1.024-0.905,2.011-1.33,3.001
		c-0.531,1.234-1.066,2.474-1.709,3.8l-0.127,0.264l-0.207,0.208c-0.945,0.942-2.711,1.082-3.681,1.082
		c-1.255,0-2.067-0.392-2.791-0.795l-0.553-0.307l-0.225-0.59c-0.923-2.425-3.216-7.697-6.458-14.849L12.93,42.52
		c-1.725-3.772-1.829-3.794-3.553-4.161l-2.404-0.48l-0.394-0.492c-0.672-0.838-0.923-2.051-0.657-3.167
		c0.222-0.928,0.797-1.663,1.58-2.02l0.387-0.176l0.425,0.024c2.65,0.144,5.689,0.213,9.294,0.213c3.095,0,5.924-0.07,8.647-0.214
		l0.457-0.024l0.409,0.206c0.592,0.296,0.985,0.825,1.224,1.413c0.312-0.711,0.849-1.245,1.525-1.492l0.326-0.118l0.347,0.016
		c3.176,0.148,5.957,0.214,9.019,0.214c3.659,0,6.332-0.069,8.171-0.21l0.279-0.021l0.273,0.067
		c0.516,0.128,0.958,0.423,1.292,0.842c0.213-0.282,0.47-0.51,0.77-0.675l0.448-0.25l0.512,0.037
		c1.947,0.134,4.484,0.211,6.958,0.211c2.9,0,5.47-0.075,7.233-0.21l0.568-0.044l0.483,0.303c0.251,0.157,0.456,0.35,0.62,0.562
		c0.205-0.25,0.448-0.455,0.726-0.608l0.443-0.247l0.506,0.031c2.061,0.129,4.938,0.213,7.33,0.213c2.433,0,4.505-0.066,6.519-0.211
		l0.515-0.037l0.449,0.249c0.718,0.397,1.206,1.155,1.376,2.133c0.16,0.909,0.061,2.187-0.694,3.049l-0.367,0.419l-2.71,0.633
		c-1.454,0.317-2.113,0.756-2.277,0.967c-0.546,0.799-1.7,2.857-3.746,7.634c-0.992,2.368-2.333,5.506-3.825,8.996
		C67.6,65.021,62.85,76.136,60.32,82.848l-0.161,0.425l-0.352,0.295C58.718,84.474,56.86,84.543,56.316,84.543z M25.377,38.247
		c0.522,1.235,1.736,3.975,3.005,6.84l7.489,16.725c1.024,2.268,1.799,3.887,2.432,5.17c0.678-1.363,1.425-2.94,2.06-4.37
		l0.941-2.099c0.453-1.035,0.565-1.707,0.572-1.829c-0.033-0.175-0.374-1.277-0.67-2.019L34.303,41.5
		c-1.465-3.186-1.541-3.193-3.515-3.4l-1.223-0.124l-0.4-0.319c-0.334-0.268-0.602-0.614-0.79-1.01
		c-0.216,0.485-0.553,0.878-0.995,1.143l-0.28,0.168C27.1,37.958,25.408,38.241,25.377,38.247z M53.891,53.942
		c0.047,0.144,0.156,0.462,0.401,1.023l3.377,7.258c0.672,1.422,1.233,2.633,1.699,3.647c0.646-1.544,1.305-3.108,1.968-4.687
		c2.481-5.902,5.048-12.005,7.378-17.93c0.459-1.113,1.273-3.427,1.612-4.635c-0.173-0.057-0.355-0.112-0.497-0.155l-2.261-0.623
		c0,0-0.391-0.442-0.415-0.471c-0.116,0.14-0.245,0.266-0.387,0.375l-0.313,0.243l-2.409,0.517
		c-2.128,0.435-2.286,0.468-4.356,4.017c-1.709,2.921-3.474,6.455-4.424,8.353C54.685,52.037,54.091,53.386,53.891,53.942z
		 M46.923,38.384c0.069,0.184,0.161,0.406,0.281,0.671l2.179,5.009c0.185,0.434,0.394,0.901,0.612,1.378
		c0.004-0.007,1.347-2.988,1.347-2.988c0.877-1.96,1.396-3.235,1.678-3.989l-2.898-0.562l-0.375-0.374
		c-0.064-0.064-0.123-0.13-0.177-0.198c-0.119,0.142-0.254,0.271-0.407,0.38l-0.278,0.199
		C48.886,37.913,47.092,38.338,46.923,38.384z"/>
	<path d="M80.87,36.811c-1.661,0.361-2.744,0.938-3.25,1.588c-0.794,1.156-2.022,3.467-3.972,8.017
		C70.11,54.865,62.238,72.848,58.7,82.233c-0.434,0.362-1.445,0.58-2.384,0.58c-0.794,0-1.444-0.218-1.95-0.58
		c-0.794-1.729-1.878-4.332-2.745-6.354l-3.033-6.861c-1.011-2.31-1.95-4.475-2.6-5.559c-0.65,1.227-1.516,2.959-2.455,4.983
		l-3.322,7.005c-1.083,2.312-1.878,4.404-3.033,6.786c-0.361,0.362-1.372,0.58-2.456,0.58c-0.793,0-1.3-0.218-1.95-0.58
		c-1.155-3.032-4.044-9.531-6.499-14.945L14.502,41.794c-1.95-4.261-2.382-4.622-4.766-5.128l-1.806-0.361
		c-0.577-0.721-0.505-2.166,0.289-2.527c2.672,0.145,5.705,0.216,9.389,0.216c3.177,0,5.994-0.071,8.739-0.216
		c0.577,0.289,0.866,2.095,0.144,2.527l-1.3,0.217c-1.3,0.216-1.805,0.578-1.805,1.083c0,0.506,1.516,3.901,3.754,8.955l7.15,15.96
		c2.021,4.479,3.104,6.498,3.971,8.233c0.867-1.445,2.528-4.837,3.683-7.437l0.938-2.097c0.506-1.156,0.723-2.094,0.723-2.527
		c0-0.434-0.505-1.951-0.793-2.672l-6.933-15.238c-1.661-3.611-2.167-4.117-4.911-4.405l-0.722-0.073
		c-0.723-0.577-0.578-2.238,0.216-2.527c3.105,0.145,5.921,0.216,9.1,0.216c3.682,0,6.427-0.071,8.304-0.216
		c0.867,0.216,0.795,2.166,0.29,2.527l-1.229,0.289c-0.866,0.218-1.95,0.506-1.95,1.011c0,0.579,0.289,1.373,0.65,2.167l2.167,4.983
		c0.65,1.516,1.588,3.466,2.238,4.766c0.723-1.516,1.516-3.322,2.239-4.911l0.649-1.443c1.228-2.745,2.095-4.912,2.095-5.344
		c0-0.506-0.289-0.723-1.444-1.011l-2.6-0.506c-0.506-0.505-0.434-2.166,0.216-2.527c2.095,0.145,4.694,0.216,7.078,0.216
		c2.815,0,5.488-0.071,7.366-0.216c0.578,0.361,0.721,2.095,0.071,2.6l-2.022,0.434c-2.455,0.505-2.961,0.505-5.488,4.838
		c-1.733,2.961-3.538,6.572-4.477,8.45c-0.65,1.3-1.589,3.393-1.589,3.754c0,0.217,0.072,0.65,0.579,1.806l3.393,7.293
		c1.878,3.973,2.89,6.282,3.322,7.295c3.467-8.378,7.439-17.549,10.905-26.36c0.506-1.228,1.878-5.055,1.878-5.85
		c0-0.722-1.156-1.011-2.095-1.3l-1.588-0.434c-0.578-0.65-0.434-2.166,0.216-2.527c2.311,0.145,5.272,0.216,7.439,0.216
		c2.527,0,4.622-0.071,6.643-0.216c0.651,0.361,0.722,1.95,0.217,2.527L80.87,36.811z"/>
	<path d="M118.938,83.605c-3.478-0.133-10.001-0.217-16.617-0.217h-9.388c-3.454,0-6.979,0.072-12.375,0.217l-0.602,0.015
		l-0.48-0.359c-0.756-0.563-1.177-1.639-1.125-2.873c0.047-1.147,0.489-2.039,1.245-2.511l0.306-0.19l3.75-0.558
		c2.206-0.346,2.206-0.346,2.206-5.869V44.321c0-5.499,0-5.499-2.291-5.957l-2.141-0.429l-0.284-0.188
		c-0.789-0.525-1.245-1.527-1.218-2.678c0.029-1.219,0.563-2.256,1.429-2.776l0.446-0.268l0.52,0.023
		c3.335,0.143,6.81,0.214,10.326,0.214h15.309c5.596,0,8.802-0.102,9.413-0.196l1.875-0.289l0.118,1.892
		c0.028,0.457,0.125,1.551,0.255,3.004c0.196,2.218,0.465,5.258,0.683,8.168l0.028,0.371l-0.128,0.349
		c-0.404,1.117-1.601,1.839-3.044,1.839c-0.945,0-1.801-0.303-2.414-0.854l-0.352-0.316l-0.143-0.452
		c-0.877-2.793-1.819-4.464-2.359-5.045c-1.122-1.12-3.037-1.686-5.809-1.686c0,0-6.177,0-6.418,0.007
		c-0.009,0.31-0.009,0.708-0.009,1.078c0,0,0,12.909,0.001,13.071c0.088,0.001,5.271,0.001,5.271,0.001
		c3.108,0,3.129-0.097,3.647-2.593l0.449-2.247l0.306-0.348c0.802-0.916,2.115-1.015,2.643-1.015c1.318,0,2.354,0.506,2.845,1.388
		l0.247,0.442l-0.031,0.506c-0.142,2.271-0.213,4.81-0.213,7.547c0,2.738,0.071,5.276,0.213,7.548l0.031,0.505l-0.247,0.444
		c-0.493,0.885-1.573,1.416-2.888,1.416c-1.138,0-2.109-0.41-2.664-1.121l-0.251-0.323l-0.442-2.209
		c-0.521-2.5-0.552-2.65-3.645-2.65c0,0-5.162,0-5.271,0c-0.002,0.188-0.002,9.101-0.002,9.101c0,3.103,0.281,5.073,0.838,5.861
		c0.361,0.503,0.825,1.146,6.167,1.146c5.8,0,7.55,0,11.154-7.403l0.066-0.14l0.09-0.121c0.545-0.749,1.464-1.179,2.524-1.179
		c1.255,0,2.729,0.621,3.191,2.01l0.111,0.331l-0.028,0.351c-0.314,4.088-2.143,10.138-3.222,12.218l-0.506,0.974L118.938,83.605z"
		/>
	<path d="M97.916,52.771c0,2.021,0.072,2.166,2.022,2.166h4.983c3.755,0,4.622-0.506,5.343-3.972l0.361-1.806
		c0.506-0.577,2.311-0.577,2.672,0.073c-0.144,2.311-0.216,4.91-0.216,7.655s0.073,5.345,0.216,7.656
		c-0.361,0.647-2.166,0.721-2.672,0.073l-0.361-1.808c-0.721-3.466-1.588-4.044-5.343-4.044h-4.983c-1.95,0-2.022,0.072-2.022,2.24
		v8.594c0,3.319,0.289,5.632,1.155,6.861c0.938,1.3,2.311,1.875,7.583,1.875c6.283,0,8.739-0.215,12.711-8.376
		c0.577-0.795,2.383-0.505,2.672,0.359c-0.289,3.757-2.022,9.606-3.033,11.556c-3.828-0.142-10.76-0.215-16.683-0.215h-9.388
		c-3.467,0-7.005,0.073-12.421,0.215c-0.578-0.432-0.578-2.167,0-2.526l3.394-0.505c3.25-0.508,3.683-0.94,3.683-7.582V44.321
		c0-6.572-0.434-7.005-3.683-7.655l-1.805-0.361c-0.65-0.433-0.579-2.093,0.144-2.527c3.395,0.145,6.933,0.216,10.4,0.216h15.309
		c4.622,0,8.739-0.071,9.678-0.216c0.072,1.156,0.577,6.355,0.938,11.194c-0.289,0.795-1.95,0.938-2.672,0.289
		c-0.793-2.527-1.805-4.694-2.743-5.704c-1.373-1.373-3.54-2.24-7.078-2.24h-5.777c-2.383,0-2.383,0.145-2.383,2.817V52.771z"/>
	<path d="M166.45,83.823c-7.155,0-11.933-2.595-15.488-8.413c-2.48-4.106-4.227-7.909-5.744-11.405
		c-0.564-1.27-1.055-1.486-2.239-1.486c-0.184,0-0.587,0-0.939,0.014v8.728c0,5.62,0,5.62,2.254,6.021l2.341,0.433l0.313,0.225
		c0.847,0.604,1.064,1.653,1.098,2.426c0.025,0.575-0.019,2.006-0.979,2.827l-0.515,0.439l-0.677-0.024
		c-3.959-0.149-7.212-0.217-10.551-0.217c-3.408,0-6.541,0.064-10.477,0.217l-0.613,0.022l-0.491-0.37
		c-0.755-0.562-1.175-1.638-1.124-2.87c0.048-1.147,0.489-2.039,1.243-2.508l0.279-0.177l2.273-0.423
		c2.266-0.4,2.266-0.4,2.266-6.021V45.693c0-6.493-0.031-6.498-1.689-6.734l-2.233-0.333l-0.247-0.123
		c-0.958-0.479-1.524-1.58-1.48-2.874c0.045-1.301,0.708-2.374,1.731-2.8l0.266-0.111l0.286-0.018
		c4.848-0.324,10.781-0.655,18.025-0.655c6.573,0,12.059,1.039,15.051,2.851c4.697,2.753,7.191,6.967,7.191,12.17
		c0,7.442-5.316,10.684-7.994,12.067c4.656,9.434,7.456,14.437,10.563,17.09c1.65,1.333,3.228,1.572,3.828,1.611l0.388,0.026
		l0.339,0.188c0.708,0.392,1.206,1.111,1.365,1.972c0.173,0.918-0.053,1.89-0.586,2.527l-0.262,0.316l-0.375,0.164
		C171.624,83.562,169.532,83.823,166.45,83.823z M142.065,55.764c0.621,0.113,2.057,0.113,2.72,0.113
		c2.299,0,3.304-0.554,4.263-1.515c0.954-0.955,2.092-2.871,2.092-6.574c0-5.441-3.033-8.956-7.728-8.956
		c-0.281,0-0.928,0-1.309,0.042c-0.064,0.481-0.064,1.415-0.064,1.909v14.082C142.04,55.038,142.04,55.475,142.065,55.764z"/>
	<path d="M130.414,45.693c0-7.221-0.144-8.016-3.177-8.449l-1.95-0.29c-0.723-0.361-0.723-2.166,0.144-2.527
		c5.417-0.361,11.05-0.65,17.91-0.65c6.138,0,11.41,0.939,14.154,2.6c4.188,2.456,6.355,6.066,6.355,10.688
		c0,6.426-4.333,9.171-7.655,10.832c-0.722,0.361-0.722,0.795-0.361,1.588c4.767,9.677,7.728,15.093,11.194,18.056
		c1.877,1.517,3.755,1.949,4.839,2.02c0.649,0.362,0.649,1.444,0.289,1.88c-1.156,0.505-3.467,0.649-5.706,0.649
		c-6.644,0-10.832-2.385-14.011-7.584c-2.311-3.827-3.972-7.364-5.633-11.19c-0.866-1.952-2.021-2.53-3.827-2.53
		c-2.527,0-2.672,0.145-2.672,1.588v8.885c0,6.642,0.434,7.146,3.683,7.727l1.95,0.36c0.505,0.359,0.505,2.095,0,2.526
		c-3.827-0.142-7.149-0.215-10.616-0.215c-3.61,0-6.788,0.073-10.543,0.215c-0.577-0.432-0.577-2.167,0-2.526l1.95-0.36
		c3.25-0.58,3.684-1.085,3.684-7.727V45.693z M140.308,54.865c0,2.528,0.216,2.745,4.478,2.745c2.6,0,4.116-0.65,5.488-2.022
		c1.228-1.227,2.6-3.538,2.6-7.799c0-6.5-3.827-10.688-9.46-10.688c-2.96,0-3.105,0.216-3.105,3.683V54.865z"/>
	<path d="M209.716,83.605c-3.477-0.133-10-0.217-16.617-0.217h-9.388c-3.454,0-6.98,0.072-12.376,0.217l-0.602,0.015l-0.482-0.362
		c-0.755-0.562-1.176-1.638-1.124-2.87c0.048-1.147,0.489-2.039,1.243-2.508l0.306-0.193l3.752-0.558
		c2.206-0.346,2.206-0.346,2.206-5.869V44.321c0-5.499,0-5.499-2.29-5.957l-2.141-0.429l-0.284-0.188
		c-0.789-0.525-1.244-1.527-1.217-2.678c0.029-1.219,0.563-2.256,1.429-2.776l0.446-0.268l0.52,0.023
		c3.335,0.143,6.81,0.214,10.326,0.214h15.309c5.596,0,8.802-0.102,9.413-0.196l1.875-0.289l0.119,1.892
		c0.028,0.457,0.125,1.551,0.255,3.005c0.196,2.218,0.465,5.257,0.683,8.167l0.028,0.371l-0.128,0.349
		c-0.405,1.117-1.601,1.839-3.044,1.839c-0.945,0-1.801-0.303-2.414-0.854l-0.352-0.316l-0.143-0.452
		c-0.877-2.793-1.819-4.464-2.359-5.045c-1.122-1.12-3.037-1.686-5.81-1.686c0,0-6.176,0-6.418,0.007
		c-0.01,0.31-0.01,0.708-0.01,1.078c0,0,0,12.909,0.001,13.071c0.088,0.001,5.271,0.001,5.271,0.001
		c3.108,0,3.129-0.097,3.647-2.593l0.45-2.247l0.306-0.348c0.802-0.916,2.115-1.015,2.643-1.015c1.318,0,2.354,0.506,2.845,1.388
		l0.247,0.442l-0.032,0.506c-0.141,2.271-0.212,4.81-0.212,7.547c0,2.738,0.071,5.276,0.212,7.548l0.032,0.505l-0.247,0.444
		c-0.493,0.885-1.573,1.416-2.888,1.416c-1.138,0-2.109-0.41-2.664-1.121l-0.251-0.323l-0.442-2.209
		c-0.521-2.5-0.552-2.65-3.645-2.65c0,0-5.162,0-5.271,0c-0.002,0.188-0.002,9.101-0.002,9.101c0,3.103,0.282,5.073,0.838,5.861
		c0.361,0.503,0.825,1.146,6.167,1.146c5.8,0,7.55,0,11.154-7.403l0.066-0.14l0.09-0.121c0.545-0.749,1.464-1.179,2.524-1.179
		c1.255,0,2.729,0.621,3.191,2.01l0.111,0.331l-0.028,0.351c-0.314,4.088-2.143,10.138-3.222,12.218l-0.506,0.974L209.716,83.605z"
		/>
	<path d="M188.694,52.771c0,2.021,0.073,2.166,2.022,2.166h4.983c3.755,0,4.622-0.506,5.343-3.972l0.361-1.806
		c0.506-0.577,2.311-0.577,2.672,0.073c-0.144,2.311-0.216,4.91-0.216,7.655s0.073,5.345,0.216,7.656
		c-0.361,0.647-2.166,0.721-2.672,0.073l-0.361-1.808c-0.721-3.466-1.588-4.044-5.343-4.044h-4.983c-1.95,0-2.022,0.072-2.022,2.24
		v8.594c0,3.319,0.289,5.632,1.155,6.861c0.938,1.3,2.311,1.875,7.583,1.875c6.283,0,8.739-0.215,12.711-8.376
		c0.577-0.795,2.383-0.505,2.672,0.359c-0.289,3.757-2.022,9.606-3.033,11.556c-3.827-0.142-10.761-0.215-16.683-0.215h-9.388
		c-3.467,0-7.005,0.073-12.422,0.215c-0.578-0.432-0.578-2.167,0-2.526l3.395-0.505c3.25-0.508,3.683-0.94,3.683-7.582V44.321
		c0-6.572-0.434-7.005-3.683-7.655l-1.805-0.361c-0.65-0.433-0.579-2.093,0.144-2.527c3.395,0.145,6.933,0.216,10.4,0.216h15.309
		c4.622,0,8.739-0.071,9.677-0.216c0.073,1.156,0.578,6.355,0.939,11.194c-0.289,0.795-1.95,0.938-2.672,0.289
		c-0.793-2.527-1.805-4.694-2.743-5.704c-1.373-1.373-3.54-2.24-7.078-2.24h-5.776c-2.384,0-2.384,0.145-2.384,2.817V52.771z"/>
	<path d="M258.386,84.543c-1.111,0-2.133-0.309-2.957-0.898l-0.375-0.271l-0.192-0.416c-0.591-1.287-1.338-3.049-2.042-4.701
		l-0.721-1.693c0,0-3.778-8.565-4.065-9.208c-0.275,0.57-4.188,8.833-4.188,8.833c-0.479,1.024-0.905,2.011-1.33,3.001
		c-0.532,1.234-1.067,2.474-1.709,3.8l-0.127,0.264l-0.207,0.208c-0.944,0.942-2.71,1.082-3.681,1.082
		c-1.255,0-2.067-0.392-2.791-0.795l-0.553-0.307l-0.225-0.59c-0.923-2.425-3.216-7.697-6.458-14.849L214.999,42.52
		c-1.725-3.772-1.829-3.794-3.553-4.161l-2.404-0.48l-0.394-0.492c-0.671-0.838-0.923-2.051-0.657-3.167
		c0.223-0.928,0.797-1.663,1.58-2.02l0.387-0.176l0.425,0.024c2.65,0.144,5.69,0.213,9.294,0.213c3.095,0,5.924-0.07,8.647-0.214
		l0.457-0.024l0.41,0.206c0.592,0.296,0.984,0.825,1.224,1.413c0.312-0.711,0.849-1.245,1.526-1.492l0.326-0.118l0.347,0.016
		c3.176,0.148,5.957,0.214,9.019,0.214c3.659,0,6.331-0.069,8.171-0.21l0.279-0.021l0.273,0.067
		c0.516,0.128,0.958,0.423,1.292,0.842c0.212-0.282,0.47-0.51,0.77-0.675l0.448-0.25l0.512,0.037
		c1.947,0.134,4.484,0.211,6.958,0.211c2.9,0,5.47-0.075,7.233-0.21l0.568-0.044l0.483,0.303c0.251,0.157,0.456,0.35,0.62,0.562
		c0.206-0.25,0.448-0.455,0.726-0.608l0.443-0.247l0.506,0.031c2.061,0.129,4.938,0.213,7.33,0.213c2.433,0,4.504-0.066,6.519-0.211
		l0.515-0.037l0.449,0.249c0.717,0.397,1.206,1.155,1.376,2.133c0.159,0.909,0.061,2.187-0.695,3.049l-0.367,0.419l-2.709,0.633
		c-1.455,0.317-2.113,0.756-2.277,0.967c-0.546,0.799-1.699,2.857-3.746,7.634c-0.992,2.368-2.333,5.506-3.824,8.996
		c-3.816,8.927-8.566,20.042-11.096,26.753l-0.161,0.425l-0.352,0.295C260.788,84.474,258.93,84.543,258.386,84.543z
		 M227.446,38.247c0.522,1.235,1.736,3.975,3.006,6.84l7.488,16.725c1.024,2.268,1.799,3.887,2.432,5.17
		c0.678-1.363,1.426-2.94,2.06-4.37l0.941-2.099c0.453-1.035,0.565-1.707,0.571-1.829c-0.033-0.175-0.373-1.277-0.67-2.019
		L236.373,41.5c-1.465-3.186-1.542-3.193-3.515-3.4l-1.223-0.124l-0.4-0.319c-0.334-0.268-0.602-0.614-0.79-1.01
		c-0.216,0.485-0.553,0.878-0.996,1.143l-0.28,0.168C229.169,37.958,227.478,38.241,227.446,38.247z M255.96,53.942
		c0.047,0.144,0.156,0.462,0.401,1.023l3.378,7.258c0.672,1.422,1.233,2.633,1.698,3.647c0.646-1.544,1.305-3.108,1.968-4.687
		c2.481-5.902,5.049-12.005,7.379-17.93c0.459-1.113,1.273-3.427,1.611-4.635c-0.173-0.057-0.355-0.112-0.497-0.155l-2.261-0.623
		c0,0-0.39-0.442-0.415-0.471c-0.116,0.14-0.245,0.266-0.386,0.375l-0.313,0.243l-2.409,0.517c-2.129,0.435-2.286,0.468-4.356,4.017
		c-1.709,2.921-3.474,6.455-4.423,8.353C256.754,52.037,256.161,53.386,255.96,53.942z M248.993,38.384
		c0.069,0.184,0.161,0.406,0.282,0.671l2.179,5.009c0.185,0.434,0.394,0.901,0.612,1.378c0.003-0.007,1.347-2.988,1.347-2.988
		c0.877-1.96,1.396-3.235,1.678-3.989l-2.898-0.562l-0.375-0.374c-0.064-0.064-0.124-0.13-0.178-0.198
		c-0.118,0.142-0.254,0.271-0.407,0.38l-0.278,0.199C250.956,37.913,249.162,38.338,248.993,38.384z"/>
	<path d="M282.939,36.811c-1.661,0.361-2.743,0.938-3.25,1.588c-0.793,1.156-2.022,3.467-3.972,8.017
		c-3.539,8.449-11.41,26.432-14.948,35.817c-0.434,0.362-1.445,0.58-2.383,0.58c-0.795,0-1.445-0.218-1.95-0.58
		c-0.795-1.729-1.878-4.332-2.745-6.354l-3.033-6.861c-1.011-2.31-1.95-4.475-2.6-5.559c-0.65,1.227-1.516,2.959-2.455,4.983
		l-3.322,7.005c-1.083,2.312-1.878,4.404-3.033,6.786c-0.361,0.362-1.373,0.58-2.456,0.58c-0.794,0-1.3-0.218-1.95-0.58
		c-1.155-3.032-4.044-9.531-6.499-14.945l-11.772-25.494c-1.95-4.261-2.382-4.622-4.766-5.128L210,36.305
		c-0.578-0.721-0.505-2.166,0.289-2.527c2.672,0.145,5.706,0.216,9.389,0.216c3.177,0,5.994-0.071,8.739-0.216
		c0.578,0.289,0.866,2.095,0.144,2.527l-1.3,0.217c-1.3,0.216-1.805,0.578-1.805,1.083c0,0.506,1.516,3.901,3.755,8.955l7.15,15.96
		c2.021,4.479,3.104,6.498,3.971,8.233c0.868-1.445,2.528-4.837,3.684-7.437l0.938-2.097c0.506-1.156,0.722-2.094,0.722-2.527
		c0-0.434-0.505-1.951-0.793-2.672l-6.933-15.238c-1.661-3.611-2.167-4.117-4.911-4.405l-0.723-0.073
		c-0.722-0.577-0.577-2.238,0.216-2.527c3.106,0.145,5.922,0.216,9.1,0.216c3.682,0,6.427-0.071,8.304-0.216
		c0.868,0.216,0.795,2.166,0.29,2.527l-1.229,0.289c-0.866,0.218-1.95,0.506-1.95,1.011c0,0.579,0.289,1.373,0.65,2.167l2.167,4.983
		c0.65,1.516,1.589,3.466,2.239,4.766c0.722-1.516,1.516-3.322,2.238-4.911l0.65-1.443c1.228-2.745,2.095-4.912,2.095-5.344
		c0-0.506-0.289-0.723-1.445-1.011l-2.6-0.506c-0.506-0.505-0.434-2.166,0.216-2.527c2.095,0.145,4.694,0.216,7.078,0.216
		c2.816,0,5.488-0.071,7.367-0.216c0.577,0.361,0.721,2.095,0.071,2.6l-2.022,0.434c-2.455,0.505-2.961,0.505-5.488,4.838
		c-1.734,2.961-3.539,6.572-4.477,8.45c-0.65,1.3-1.59,3.393-1.59,3.754c0,0.217,0.073,0.65,0.579,1.806l3.394,7.293
		c1.878,3.973,2.89,6.282,3.322,7.295c3.467-8.378,7.439-17.549,10.905-26.36c0.506-1.228,1.878-5.055,1.878-5.85
		c0-0.722-1.156-1.011-2.095-1.3l-1.588-0.434c-0.578-0.65-0.434-2.166,0.216-2.527c2.311,0.145,5.271,0.216,7.439,0.216
		c2.527,0,4.622-0.071,6.643-0.216c0.651,0.361,0.723,1.95,0.218,2.527L282.939,36.811z"/>
</g>
<g>
	<path d="M553.446,81.852c-2.524,0-5.25-2.005-5.25-5.247c0-2.991,2.308-5.335,5.25-5.335c2.895,0,5.25,2.392,5.25,5.335
		C558.696,79.595,556.439,81.852,553.446,81.852z"/>
	<path d="M549.931,76.604c0-2.039,1.562-3.605,3.516-3.605c2.085,0,3.516,1.74,3.516,3.605c0,1.995-1.431,3.518-3.516,3.518
		C551.709,80.122,549.931,78.73,549.931,76.604z"/>
	<path d="M559.383,81.083c-0.652-0.435-1.041-1.212-1.068-2.136c-0.023-0.933,0.319-1.734,0.945-2.208l0.384-0.287l1.3-0.138
		c0.058-0.541,0.058-1.479,0.058-1.836v-6.558c0-0.613,0-1.251-0.053-1.431l-0.585-0.282c-0.72-0.592-1.024-1.307-1.024-2.104
		c0-0.797,0.305-1.514,0.834-1.968l0.292-0.253l0.372-0.103c1.79-0.494,4.301-1.449,5.586-2.106
		c-0.31,0.053-0.628,0.082-0.957,0.082c-2.807,0-4.769-1.98-4.769-4.815c0-2.749,2.188-4.901,4.986-4.901
		c2.721,0,4.771,2.069,4.771,4.814c0,1.938-1.031,3.545-2.611,4.349c0.869,0.035,1.633,0.453,2.104,1.161l0.323,0.488l-0.036,0.585
		c-0.082,1.212-0.126,3.054-0.126,5.054v7.988c0,0.357,0,1.295,0.056,1.836l1.298,0.138l0.382,0.287
		c0.628,0.469,0.976,1.275,0.947,2.208c-0.024,0.924-0.416,1.701-1.068,2.136l-0.48,0.324l-0.578-0.034
		c-1.493-0.087-3.15-0.128-5.112-0.128c-1.913,0-3.701,0.041-5.103,0.128l-0.584,0.034L559.383,81.083z"/>
	<path d="M568.375,74.479c0,3.039,0.174,3.428,1.606,3.559l0.824,0.087c0.348,0.261,0.348,1.259-0.044,1.52
		c-1.517-0.087-3.211-0.131-5.209-0.131c-1.952,0-3.775,0.044-5.209,0.131c-0.391-0.261-0.391-1.259-0.043-1.52l0.826-0.087
		c1.431-0.131,1.604-0.52,1.604-3.559v-6.558c0-1.734,0-2.257-0.824-2.778l-0.606-0.392c-0.305-0.259-0.305-1.039,0-1.3
		c2.039-0.565,5.122-1.737,6.425-2.519c0.345,0,0.606,0.131,0.78,0.39c-0.087,1.303-0.131,3.214-0.131,5.168V74.479z
		 M568.723,54.854c0,2.085-1.606,3.169-3.257,3.169c-1.908,0-3.039-1.302-3.039-3.083c0-1.91,1.522-3.169,3.257-3.169
		C567.508,51.772,568.723,53.118,568.723,54.854z"/>
	<path d="M582.566,81.852c-6.808,0-11.41-4.283-11.456-10.662c-0.024-3.133,1.053-5.885,3.106-7.956
		c2.16-2.177,5.301-3.425,8.611-3.425c6.745,0,11.456,4.515,11.456,10.978C594.284,77.406,589.573,81.852,582.566,81.852z
		 M582.566,65.269c-1.043,0-1.741,1.99-1.741,4.952c0,3.863,1.128,6.171,2.218,6.171c0.312,0,0.461-0.09,0.594-0.223
		c0.293-0.294,0.969-1.353,0.931-4.755C584.526,67.404,583.379,65.269,582.566,65.269z"/>
	<path d="M572.84,71.178c-0.043-6.209,4.863-9.638,9.988-9.638c5.121,0,9.722,3.124,9.722,9.246c0,6.34-4.644,9.336-9.983,9.336
		C577.401,80.122,572.884,77.17,572.84,71.178z M579.093,70.221c0,4.562,1.433,7.903,3.95,7.903c2.477,0,3.3-2.822,3.257-6.729
		c-0.044-4.212-1.259-7.857-3.733-7.857C580.656,63.538,579.093,65.49,579.093,70.221z"/>
</g>
<g>
	<path fill="#FFFFFF" d="M403.872,69.67c0,3.393,0.288,5.704,1.228,6.861c0.938,1.228,2.237,1.803,7.509,1.803
		c6.572,0,8.594-0.215,12.854-8.592c0.58-0.725,2.242-0.435,2.745,0.433c-0.36,3.755-2.093,9.749-3.105,11.698
		c-3.826-0.142-10.758-0.215-16.683-0.215h-9.676c-3.322,0-6.932,0.073-11.411,0.215c-0.647-0.432-0.792-2.094-0.215-2.526
		l2.742-0.36c3.252-0.435,3.685-1.013,3.685-7.727V44.394c0-6.716-0.433-7.366-3.685-7.8l-2.092-0.289
		c-0.723-0.433-0.723-2.093,0.145-2.527c3.755,0.145,7.364,0.216,10.831,0.216s7.076-0.071,10.688-0.216
		c0.577,0.434,0.577,2.095,0,2.527l-1.877,0.289c-3.252,0.506-3.683,1.084-3.683,7.8V69.67z"/>
	<path fill="#FFFFFF" d="M453.773,63.746c-3.683,8.741-5.56,14.443-7.22,18.487c-0.579,0.362-1.444,0.58-2.529,0.58
		c-0.867,0-1.515-0.218-1.95-0.58c-0.792-1.947-2.021-5.774-3.031-8.231L427.342,44.61c-2.745-6.933-3.104-7.077-5.417-7.655
		l-2.887-0.721c-0.578-0.795-0.36-2.095,0.287-2.456c3.685,0.073,6.069,0.216,9.823,0.216c3.32,0,6.427-0.071,10.834-0.216
		c0.575,0.434,0.503,1.806,0.07,2.456l-2.168,0.433c-1.299,0.289-1.802,0.722-1.802,1.372c0,0.578,1.154,3.611,2.887,7.944
		l6.356,16.25c1.011,2.672,1.875,4.839,2.383,6.066c0.577-1.228,1.732-3.682,2.6-5.851l2.744-6.788
		c1.805-4.549,4.91-12.638,5.777-15.094c0.505-1.371,0.723-2.166,0.723-2.6c0-0.505-0.58-0.794-2.312-1.228l-2.312-0.505
		c-0.575-0.579-0.575-2.095,0.29-2.456c3.395,0.145,6.14,0.216,8.884,0.216c2.455,0,4.622-0.071,6.714-0.216
		c0.58,0.289,0.652,2.022,0.146,2.456l-1.875,0.36c-2.024,0.361-3.252,0.868-4.189,2.384c-1.59,2.383-3.396,6.428-5.852,12.277
		L453.773,63.746z"/>
	<path fill="#FFFFFF" d="M485.983,52.771c0,2.021,0.072,2.166,2.024,2.166h4.982c3.754,0,4.622-0.506,5.344-3.972l0.36-1.806
		c0.505-0.577,2.312-0.577,2.672,0.073c-0.143,2.311-0.215,4.91-0.215,7.655s0.072,5.345,0.215,7.656
		c-0.359,0.647-2.167,0.721-2.672,0.073l-0.36-1.808c-0.722-3.466-1.59-4.044-5.344-4.044h-4.982c-1.952,0-2.024,0.072-2.024,2.24
		v8.594c0,3.319,0.29,5.632,1.155,6.861c0.939,1.3,2.312,1.875,7.584,1.875c6.284,0,8.738-0.215,12.711-8.376
		c0.577-0.795,2.382-0.505,2.672,0.359c-0.29,3.757-2.022,9.606-3.035,11.556c-3.826-0.142-10.761-0.215-16.68-0.215h-9.389
		c-3.467,0-7.007,0.073-12.424,0.215c-0.574-0.432-0.574-2.167,0-2.526l3.397-0.505c3.247-0.508,3.682-0.94,3.682-7.582V44.321
		c0-6.572-0.435-7.005-3.682-7.655l-1.808-0.361c-0.647-0.433-0.577-2.093,0.146-2.527c3.395,0.145,6.934,0.216,10.398,0.216h15.311
		c4.622,0,8.738-0.071,9.676-0.216c0.072,1.156,0.58,6.355,0.94,11.194c-0.288,0.795-1.95,0.938-2.673,0.289
		c-0.795-2.527-1.805-4.694-2.742-5.704c-1.372-1.373-3.542-2.24-7.079-2.24h-5.776c-2.385,0-2.385,0.145-2.385,2.817V52.771z"/>
	<path fill="#FFFFFF" d="M526.5,82.813c-6.644,0-10.761-1.88-12.277-2.745c-1.373-1.59-2.311-6.789-2.311-11.698
		c0.503-0.939,2.165-1.012,2.745-0.217c1.442,4.694,6.281,11.338,12.418,11.338c5.345,0,7.799-3.685,7.799-7.294
		c0-5.852-5.486-9.316-9.818-11.483c-5.199-2.6-10.906-6.933-10.906-14.082c-0.072-8.16,6.282-13.793,16.753-13.793
		c2.385,0,5.345,0.289,8.234,1.155c0.939,0.29,1.589,0.434,2.454,0.579c0.58,1.589,1.3,5.488,1.3,10.326
		c-0.359,0.868-2.165,0.939-2.814,0.218c-1.229-3.684-4.332-8.955-9.531-8.955c-4.77,0-7.369,3.104-7.369,6.715
		c0,3.322,2.962,6.355,6.572,8.234l4.769,2.527c4.475,2.384,10.182,6.572,10.182,14.516C544.698,77.034,537.404,82.813,526.5,82.813
		z"/>
</g>
<g>
	<path fill="#FFFFFF" d="M80.87,36.811c-1.661,0.361-2.744,0.938-3.25,1.588c-0.794,1.156-2.022,3.467-3.972,8.017
		C70.11,54.865,62.238,72.848,58.7,82.233c-0.434,0.362-1.445,0.58-2.384,0.58c-0.794,0-1.444-0.218-1.95-0.58
		c-0.794-1.729-1.878-4.332-2.745-6.354l-3.033-6.861c-1.011-2.31-1.95-4.475-2.6-5.559c-0.65,1.227-1.516,2.959-2.455,4.983
		l-3.322,7.005c-1.083,2.312-1.878,4.404-3.033,6.786c-0.361,0.362-1.372,0.58-2.456,0.58c-0.793,0-1.3-0.218-1.95-0.58
		c-1.155-3.032-4.044-9.531-6.499-14.945L14.502,41.794c-1.95-4.261-2.382-4.622-4.766-5.128l-1.806-0.361
		c-0.577-0.721-0.505-2.166,0.289-2.527c2.672,0.145,5.705,0.216,9.389,0.216c3.177,0,5.994-0.071,8.739-0.216
		c0.577,0.289,0.866,2.095,0.144,2.527l-1.3,0.217c-1.3,0.216-1.805,0.578-1.805,1.083c0,0.506,1.516,3.901,3.754,8.955l7.15,15.96
		c2.021,4.479,3.104,6.498,3.971,8.233c0.867-1.445,2.528-4.837,3.683-7.437l0.938-2.097c0.506-1.156,0.723-2.094,0.723-2.527
		c0-0.434-0.505-1.951-0.793-2.672l-6.933-15.238c-1.661-3.611-2.167-4.117-4.911-4.405l-0.722-0.073
		c-0.723-0.577-0.578-2.238,0.216-2.527c3.105,0.145,5.921,0.216,9.1,0.216c3.682,0,6.427-0.071,8.304-0.216
		c0.867,0.216,0.795,2.166,0.29,2.527l-1.229,0.289c-0.866,0.218-1.95,0.506-1.95,1.011c0,0.579,0.289,1.373,0.65,2.167l2.167,4.983
		c0.65,1.516,1.588,3.466,2.238,4.766c0.723-1.516,1.516-3.322,2.239-4.911l0.649-1.443c1.228-2.745,2.095-4.912,2.095-5.344
		c0-0.506-0.289-0.723-1.444-1.011l-2.6-0.506c-0.506-0.505-0.434-2.166,0.216-2.527c2.095,0.145,4.694,0.216,7.078,0.216
		c2.815,0,5.488-0.071,7.366-0.216c0.578,0.361,0.721,2.095,0.071,2.6l-2.022,0.434c-2.455,0.505-2.961,0.505-5.488,4.838
		c-1.733,2.961-3.538,6.572-4.477,8.45c-0.65,1.3-1.589,3.393-1.589,3.754c0,0.217,0.072,0.65,0.579,1.806l3.393,7.293
		c1.878,3.973,2.89,6.282,3.322,7.295c3.467-8.378,7.439-17.549,10.905-26.36c0.506-1.228,1.878-5.055,1.878-5.85
		c0-0.722-1.156-1.011-2.095-1.3l-1.588-0.434c-0.578-0.65-0.434-2.166,0.216-2.527c2.311,0.145,5.272,0.216,7.439,0.216
		c2.527,0,4.622-0.071,6.643-0.216c0.651,0.361,0.722,1.95,0.217,2.527L80.87,36.811z"/>
	<path fill="#FFFFFF" d="M97.916,52.771c0,2.021,0.072,2.166,2.022,2.166h4.983c3.755,0,4.622-0.506,5.343-3.972l0.361-1.806
		c0.506-0.577,2.311-0.577,2.672,0.073c-0.144,2.311-0.216,4.91-0.216,7.655s0.073,5.345,0.216,7.656
		c-0.361,0.647-2.166,0.721-2.672,0.073l-0.361-1.808c-0.721-3.466-1.588-4.044-5.343-4.044h-4.983c-1.95,0-2.022,0.072-2.022,2.24
		v8.594c0,3.319,0.289,5.632,1.155,6.861c0.938,1.3,2.311,1.875,7.583,1.875c6.283,0,8.739-0.215,12.711-8.376
		c0.577-0.795,2.383-0.505,2.672,0.359c-0.289,3.757-2.022,9.606-3.033,11.556c-3.828-0.142-10.76-0.215-16.683-0.215h-9.388
		c-3.467,0-7.005,0.073-12.421,0.215c-0.578-0.432-0.578-2.167,0-2.526l3.394-0.505c3.25-0.508,3.683-0.94,3.683-7.582V44.321
		c0-6.572-0.434-7.005-3.683-7.655l-1.805-0.361c-0.65-0.433-0.579-2.093,0.144-2.527c3.395,0.145,6.933,0.216,10.4,0.216h15.309
		c4.622,0,8.739-0.071,9.678-0.216c0.072,1.156,0.577,6.355,0.938,11.194c-0.289,0.795-1.95,0.938-2.672,0.289
		c-0.793-2.527-1.805-4.694-2.743-5.704c-1.373-1.373-3.54-2.24-7.078-2.24h-5.777c-2.383,0-2.383,0.145-2.383,2.817V52.771z"/>
	<path fill="#FFFFFF" d="M130.414,45.693c0-7.221-0.144-8.016-3.177-8.449l-1.95-0.29c-0.723-0.361-0.723-2.166,0.144-2.527
		c5.417-0.361,11.05-0.65,17.91-0.65c6.138,0,11.41,0.939,14.154,2.6c4.188,2.456,6.355,6.066,6.355,10.688
		c0,6.426-4.333,9.171-7.655,10.832c-0.722,0.361-0.722,0.795-0.361,1.588c4.767,9.677,7.728,15.093,11.194,18.056
		c1.877,1.517,3.755,1.949,4.839,2.02c0.649,0.362,0.649,1.444,0.289,1.88c-1.156,0.505-3.467,0.649-5.706,0.649
		c-6.644,0-10.832-2.385-14.011-7.584c-2.311-3.827-3.972-7.364-5.633-11.19c-0.866-1.952-2.021-2.53-3.827-2.53
		c-2.527,0-2.672,0.145-2.672,1.588v8.885c0,6.642,0.434,7.146,3.683,7.727l1.95,0.36c0.505,0.359,0.505,2.095,0,2.526
		c-3.827-0.142-7.149-0.215-10.616-0.215c-3.61,0-6.788,0.073-10.543,0.215c-0.577-0.432-0.577-2.167,0-2.526l1.95-0.36
		c3.25-0.58,3.684-1.085,3.684-7.727V45.693z M140.308,54.865c0,2.528,0.216,2.745,4.478,2.745c2.6,0,4.116-0.65,5.488-2.022
		c1.228-1.227,2.6-3.538,2.6-7.799c0-6.5-3.827-10.688-9.46-10.688c-2.96,0-3.105,0.216-3.105,3.683V54.865z"/>
	<path fill="#FFFFFF" d="M188.694,52.771c0,2.021,0.073,2.166,2.022,2.166h4.983c3.755,0,4.622-0.506,5.343-3.972l0.361-1.806
		c0.506-0.577,2.311-0.577,2.672,0.073c-0.144,2.311-0.216,4.91-0.216,7.655s0.073,5.345,0.216,7.656
		c-0.361,0.647-2.166,0.721-2.672,0.073l-0.361-1.808c-0.721-3.466-1.588-4.044-5.343-4.044h-4.983c-1.95,0-2.022,0.072-2.022,2.24
		v8.594c0,3.319,0.289,5.632,1.155,6.861c0.938,1.3,2.311,1.875,7.583,1.875c6.283,0,8.739-0.215,12.711-8.376
		c0.577-0.795,2.383-0.505,2.672,0.359c-0.289,3.757-2.022,9.606-3.033,11.556c-3.827-0.142-10.761-0.215-16.683-0.215h-9.388
		c-3.467,0-7.005,0.073-12.422,0.215c-0.578-0.432-0.578-2.167,0-2.526l3.395-0.505c3.25-0.508,3.683-0.94,3.683-7.582V44.321
		c0-6.572-0.434-7.005-3.683-7.655l-1.805-0.361c-0.65-0.433-0.579-2.093,0.144-2.527c3.395,0.145,6.933,0.216,10.4,0.216h15.309
		c4.622,0,8.739-0.071,9.677-0.216c0.073,1.156,0.578,6.355,0.939,11.194c-0.289,0.795-1.95,0.938-2.672,0.289
		c-0.793-2.527-1.805-4.694-2.743-5.704c-1.373-1.373-3.54-2.24-7.078-2.24h-5.776c-2.384,0-2.384,0.145-2.384,2.817V52.771z"/>
	<path fill="#FFFFFF" d="M282.939,36.811c-1.661,0.361-2.743,0.938-3.25,1.588c-0.793,1.156-2.022,3.467-3.972,8.017
		c-3.539,8.449-11.41,26.432-14.948,35.817c-0.434,0.362-1.445,0.58-2.383,0.58c-0.795,0-1.445-0.218-1.95-0.58
		c-0.795-1.729-1.878-4.332-2.745-6.354l-3.033-6.861c-1.011-2.31-1.95-4.475-2.6-5.559c-0.65,1.227-1.516,2.959-2.455,4.983
		l-3.322,7.005c-1.083,2.312-1.878,4.404-3.033,6.786c-0.361,0.362-1.373,0.58-2.456,0.58c-0.794,0-1.3-0.218-1.95-0.58
		c-1.155-3.032-4.044-9.531-6.499-14.945l-11.772-25.494c-1.95-4.261-2.382-4.622-4.766-5.128L210,36.305
		c-0.578-0.721-0.505-2.166,0.289-2.527c2.672,0.145,5.706,0.216,9.389,0.216c3.177,0,5.994-0.071,8.739-0.216
		c0.578,0.289,0.866,2.095,0.144,2.527l-1.3,0.217c-1.3,0.216-1.805,0.578-1.805,1.083c0,0.506,1.516,3.901,3.755,8.955l7.15,15.96
		c2.021,4.479,3.104,6.498,3.971,8.233c0.868-1.445,2.528-4.837,3.684-7.437l0.938-2.097c0.506-1.156,0.722-2.094,0.722-2.527
		c0-0.434-0.505-1.951-0.793-2.672l-6.933-15.238c-1.661-3.611-2.167-4.117-4.911-4.405l-0.723-0.073
		c-0.722-0.577-0.577-2.238,0.216-2.527c3.106,0.145,5.922,0.216,9.1,0.216c3.682,0,6.427-0.071,8.304-0.216
		c0.868,0.216,0.795,2.166,0.29,2.527l-1.229,0.289c-0.866,0.218-1.95,0.506-1.95,1.011c0,0.579,0.289,1.373,0.65,2.167l2.167,4.983
		c0.65,1.516,1.589,3.466,2.239,4.766c0.722-1.516,1.516-3.322,2.238-4.911l0.65-1.443c1.228-2.745,2.095-4.912,2.095-5.344
		c0-0.506-0.289-0.723-1.445-1.011l-2.6-0.506c-0.506-0.505-0.434-2.166,0.216-2.527c2.095,0.145,4.694,0.216,7.078,0.216
		c2.816,0,5.488-0.071,7.367-0.216c0.577,0.361,0.721,2.095,0.071,2.6l-2.022,0.434c-2.455,0.505-2.961,0.505-5.488,4.838
		c-1.734,2.961-3.539,6.572-4.477,8.45c-0.65,1.3-1.59,3.393-1.59,3.754c0,0.217,0.073,0.65,0.579,1.806l3.394,7.293
		c1.878,3.973,2.89,6.282,3.322,7.295c3.467-8.378,7.439-17.549,10.905-26.36c0.506-1.228,1.878-5.055,1.878-5.85
		c0-0.722-1.156-1.011-2.095-1.3l-1.588-0.434c-0.578-0.65-0.434-2.166,0.216-2.527c2.311,0.145,5.271,0.216,7.439,0.216
		c2.527,0,4.622-0.071,6.643-0.216c0.651,0.361,0.723,1.95,0.218,2.527L282.939,36.811z"/>
</g>
<g>
	<path fill="#FFFFFF" d="M549.931,76.604c0-2.039,1.562-3.605,3.516-3.605c2.085,0,3.516,1.74,3.516,3.605
		c0,1.995-1.431,3.518-3.516,3.518C551.709,80.122,549.931,78.73,549.931,76.604z"/>
	<path fill="#FFFFFF" d="M568.375,74.479c0,3.039,0.174,3.428,1.606,3.559l0.824,0.087c0.348,0.261,0.348,1.259-0.044,1.52
		c-1.517-0.087-3.211-0.131-5.209-0.131c-1.952,0-3.775,0.044-5.209,0.131c-0.391-0.261-0.391-1.259-0.043-1.52l0.826-0.087
		c1.431-0.131,1.604-0.52,1.604-3.559v-6.558c0-1.734,0-2.257-0.824-2.778l-0.606-0.392c-0.305-0.259-0.305-1.039,0-1.3
		c2.039-0.565,5.122-1.737,6.425-2.519c0.345,0,0.606,0.131,0.78,0.39c-0.087,1.303-0.131,3.214-0.131,5.168V74.479z
		 M568.723,54.854c0,2.085-1.606,3.169-3.257,3.169c-1.908,0-3.039-1.302-3.039-3.083c0-1.91,1.522-3.169,3.257-3.169
		C567.508,51.772,568.723,53.118,568.723,54.854z"/>
	<path fill="#FFFFFF" d="M572.84,71.178c-0.043-6.209,4.863-9.638,9.988-9.638c5.121,0,9.722,3.124,9.722,9.246
		c0,6.34-4.644,9.336-9.983,9.336C577.401,80.122,572.884,77.17,572.84,71.178z M579.093,70.221c0,4.562,1.433,7.903,3.95,7.903
		c2.477,0,3.3-2.822,3.257-6.729c-0.044-4.212-1.259-7.857-3.733-7.857C580.656,63.538,579.093,65.49,579.093,70.221z"/>
</g>
<g>
	<path d="M333.281,5.668c-29.764,0-53.89,24.126-53.89,53.887c0,29.762,24.126,53.888,53.89,53.888
		c29.76,0,53.887-24.126,53.887-53.888C387.168,29.795,363.041,5.668,333.281,5.668z M333.281,93.816
		c-18.923,0-34.262-15.338-34.262-34.261c0-18.92,15.339-34.26,34.262-34.26c18.92,0,34.259,15.339,34.259,34.26
		C367.54,78.479,352.201,93.816,333.281,93.816z"/>
	<path fill="#FFFFFF" d="M333.281,8.147c-28.394,0-51.411,23.017-51.411,51.409c0,28.395,23.018,51.409,51.411,51.409
		c28.393,0,51.408-23.015,51.408-51.409C384.689,31.164,361.674,8.147,333.281,8.147z M333.281,100.063
		c-22.373,0-40.509-18.14-40.509-40.508c0-22.368,18.136-40.506,40.509-40.506c22.367,0,40.507,18.139,40.507,40.506
		C373.788,81.924,355.648,100.063,333.281,100.063z"/>
</g>
<circle fill="#1B1464" cx="333.281" cy="59.557" r="33.177"/>
<linearGradient id="SVGID_1_" gradientUnits="userSpaceOnUse" x1="333.2793" y1="90.5664" x2="333.2793" y2="71.627">
	<stop  offset="0" style="stop-color:#FFFFFF"/>
	<stop  offset="1" style="stop-color:#1B1464"/>
</linearGradient>
<path opacity="0.7" fill="url(#SVGID_1_)" d="M361.853,71.627c-1.57,3.711-3.841,7.05-6.646,9.857
	c-2.805,2.805-6.146,5.076-9.854,6.645c-3.711,1.57-7.79,2.438-12.07,2.438c-4.281,0-8.362-0.867-12.071-2.438
	c-3.711-1.568-7.052-3.84-9.857-6.645c-2.807-2.808-5.078-6.146-6.646-9.857"/>
<linearGradient id="SVGID_2_" gradientUnits="userSpaceOnUse" x1="333.2793" y1="28.5469" x2="333.2793" y2="59.5557">
	<stop  offset="0" style="stop-color:#FFFFFF"/>
	<stop  offset="1" style="stop-color:#1B1464"/>
</linearGradient>
<path opacity="0.7" fill="url(#SVGID_2_)" d="M302.27,59.556c0-4.281,0.869-8.36,2.437-12.069c1.568-3.71,3.84-7.051,6.646-9.856
	c2.806-2.806,6.146-5.077,9.857-6.646c3.709-1.569,7.79-2.437,12.071-2.437c4.28,0,8.359,0.867,12.07,2.437
	c3.708,1.569,7.05,3.84,9.854,6.646c2.806,2.805,5.076,6.146,6.646,9.856c1.57,3.709,2.436,7.788,2.436,12.069"/>
<path fill="#CCCCCC" d="M347.774,35.166c2.529,4.248,3.844,9.194,4.009,14.494c0.064,2.05-2.532,8.346-3.354,10.523
	c-2.073,5.491-4.363,6.347-9.326,10.056c-4.39,3.278-8.495,7.506-14.325,7.789c-0.461,0.021-0.925,0.033-1.394,0.033
	c-5.303,0-10.249-1.48-14.496-4.008c4.953,8.316,14.008,13.904,24.393,13.904c15.685,0,28.397-12.716,28.397-28.401
	C361.679,49.174,356.091,40.12,347.774,35.166z"/>
<path fill="#666666" d="M355.965,72.101c-4.426,7.973-12.936,13.383-22.684,13.383c-5.978,0-11.583-2.001-16.077-5.581
	c2.03,0.418,4.098,0.633,6.181,0.633c0.508,0,1.015-0.012,1.518-0.036c5.566-0.271,9.712-3.568,13.37-6.48
	c0.771-0.608,1.536-1.22,2.31-1.797c0,0,1.477,0.8,2.644,1.092c1.169,0.292,1.461-0.228,2.483-0.292
	c1.021-0.065,1.609,1.167,3.358,1.167c1.754,0,2.044-1.914,3.068-2.562C353.157,70.978,355.965,72.101,355.965,72.101z"/>
<path fill="#666666" stroke="#CCCCCC" stroke-width="0.5" stroke-miterlimit="10" d="M343.67,82.243
	c-0.319-1.065-2.153-1.459-4.098-0.88c-1.942,0.58-3.257,1.919-2.94,2.981c0.319,1.068,2.152,1.462,4.095,0.88
	C342.67,84.645,343.988,83.312,343.67,82.243z"/>
<path fill="#666666" stroke="#CCCCCC" stroke-width="0.5" stroke-miterlimit="10" d="M346.678,77.8
	c-0.259-0.533-1.321-0.548-2.375-0.036c-1.049,0.513-1.691,1.358-1.431,1.89c0.259,0.531,1.319,0.548,2.37,0.036
	C346.294,79.18,346.937,78.334,346.678,77.8z"/>
</svg>
