<?xml version="1.0" encoding="utf-8"?>
<!-- Generator: Adobe Illustrator 16.0.0, SVG Export Plug-In . SVG Version: 6.00 Build 0)  -->
<!DOCTYPE svg PUBLIC "-//W3C//DTD SVG 1.1//EN" "http://www.w3.org/Graphics/SVG/1.1/DTD/svg11.dtd">
<svg version="1.1" id="Layer_1" xmlns="http://www.w3.org/2000/svg" xmlns:xlink="http://www.w3.org/1999/xlink" x="0px" y="0px"
	 width="295px" height="65px" viewBox="0 0 295 65" enable-background="new 0 0 295 65" xml:space="preserve">
<g>
	<g>
		<path fill="#CCCCCC" d="M195.739,37.444c0,1.764,0.15,2.966,0.639,3.568c0.489,0.639,1.166,0.94,3.909,0.94
			c3.421,0,4.473-0.113,6.691-4.473c0.3-0.377,1.166-0.225,1.427,0.225c-0.186,1.955-1.088,5.073-1.615,6.089
			c-1.991-0.074-5.601-0.113-8.683-0.113h-5.036c-1.729,0-3.609,0.039-5.938,0.113c-0.339-0.225-0.414-1.091-0.114-1.315
			l1.428-0.188c1.69-0.226,1.918-0.525,1.918-4.021V24.287c0-3.496-0.228-3.834-1.918-4.062l-1.089-0.147
			c-0.377-0.228-0.377-1.091,0.075-1.319c1.954,0.078,3.834,0.116,5.639,0.116s3.682-0.039,5.563-0.116
			c0.301,0.228,0.301,1.091,0,1.319l-0.977,0.147c-1.693,0.264-1.919,0.566-1.919,4.062V37.444z"/>
		<path fill="#CCCCCC" d="M221.708,34.36c-1.916,4.548-2.894,7.516-3.759,9.62c-0.301,0.188-0.753,0.303-1.313,0.303
			c-0.453,0-0.791-0.114-1.017-0.303c-0.413-1.014-1.052-3.004-1.579-4.284l-6.089-15.295c-1.428-3.609-1.616-3.687-2.818-3.987
			l-1.502-0.375c-0.303-0.414-0.189-1.091,0.149-1.28c1.916,0.039,3.157,0.116,5.111,0.116c1.729,0,3.346-0.039,5.637-0.116
			c0.303,0.228,0.264,0.941,0.039,1.28l-1.128,0.225c-0.677,0.15-0.938,0.375-0.938,0.713c0,0.303,0.601,1.88,1.502,4.137
			l3.308,8.457c0.527,1.391,0.977,2.519,1.24,3.157c0.301-0.639,0.902-1.916,1.353-3.043l1.43-3.535
			c0.941-2.368,2.555-6.578,3.007-7.857c0.264-0.714,0.375-1.127,0.375-1.353c0-0.264-0.3-0.414-1.202-0.639l-1.202-0.264
			c-0.3-0.302-0.3-1.091,0.149-1.28c1.769,0.078,3.196,0.116,4.623,0.116c1.277,0,2.404-0.039,3.496-0.116
			c0.302,0.153,0.338,1.055,0.074,1.28l-0.977,0.187c-1.053,0.188-1.691,0.452-2.18,1.241c-0.827,1.241-1.767,3.348-3.043,6.391
			L221.708,34.36z"/>
		<path fill="#CCCCCC" d="M238.47,28.646c0,1.052,0.036,1.127,1.053,1.127h2.593c1.955,0,2.404-0.261,2.782-2.066l0.186-0.938
			c0.264-0.302,1.203-0.302,1.392,0.036c-0.073,1.202-0.111,2.555-0.111,3.982c0,1.43,0.038,2.784,0.111,3.986
			c-0.188,0.339-1.128,0.378-1.392,0.039l-0.186-0.941c-0.378-1.804-0.827-2.107-2.782-2.107h-2.593
			c-1.017,0-1.053,0.039-1.053,1.166v4.475c0,1.729,0.15,2.933,0.603,3.571c0.488,0.675,1.202,0.977,3.945,0.977
			c3.269,0,4.548-0.113,6.616-4.361c0.3-0.411,1.238-0.261,1.389,0.188c-0.15,1.955-1.053,4.998-1.577,6.014
			c-1.994-0.074-5.603-0.113-8.683-0.113h-4.886c-1.808,0-3.646,0.039-6.467,0.113c-0.3-0.225-0.3-1.127,0-1.315l1.766-0.264
			c1.691-0.262,1.916-0.486,1.916-3.945V24.251c0-3.423-0.225-3.648-1.916-3.987l-0.938-0.186c-0.338-0.228-0.3-1.091,0.075-1.319
			c1.766,0.078,3.609,0.116,5.411,0.116h7.969c2.407,0,4.55-0.039,5.039-0.116c0.036,0.603,0.3,3.31,0.488,5.83
			c-0.149,0.411-1.014,0.489-1.391,0.15c-0.414-1.316-0.938-2.445-1.428-2.971c-0.716-0.713-1.843-1.166-3.687-1.166h-3.007
			c-1.238,0-1.238,0.075-1.238,1.466V28.646z"/>
		<path fill="#CCCCCC" d="M259.552,44.283c-3.459,0-5.603-0.98-6.392-1.43c-0.713-0.825-1.202-3.532-1.202-6.087
			c0.264-0.488,1.128-0.527,1.428-0.113c0.752,2.443,3.271,5.9,6.466,5.9c2.782,0,4.06-1.916,4.06-3.796
			c0-3.043-2.857-4.851-5.114-5.978c-2.704-1.352-5.673-3.607-5.673-7.327c-0.038-4.25,3.269-7.182,8.721-7.182
			c1.239,0,2.782,0.152,4.284,0.604c0.486,0.147,0.825,0.225,1.275,0.3c0.302,0.825,0.677,2.857,0.677,5.375
			c-0.188,0.45-1.127,0.489-1.466,0.114c-0.639-1.918-2.252-4.664-4.959-4.664c-2.481,0-3.837,1.618-3.837,3.498
			c0,1.729,1.544,3.307,3.423,4.284l2.48,1.313c2.331,1.241,5.3,3.423,5.3,7.557C269.022,41.276,265.227,44.283,259.552,44.283z"/>
	</g>
	<text transform="matrix(1 0 0 1 270.6738 43.6777)" fill="#CCCCCC" font-family="'AGaramondPro-Bold'" font-size="18.8851">.io</text>
	<g>
		<path fill="#CCCCCC" d="M164.736,7.712c-13.513,0-24.466,10.953-24.466,24.468c0,13.513,10.954,24.466,24.466,24.466
			s24.467-10.953,24.467-24.466C189.203,18.665,178.249,7.712,164.736,7.712z M164.736,47.931c-8.704,0-15.753-7.052-15.753-15.75
			c0-8.701,7.049-15.752,15.753-15.752c8.699,0,15.753,7.051,15.753,15.752C180.489,40.879,173.436,47.931,164.736,47.931z"/>
		<path fill="#FFFFFF" d="M164.736,9.831c-12.34,0-22.35,10.005-22.35,22.35c0,12.342,10.01,22.347,22.35,22.347
			c12.343,0,22.35-10.005,22.35-22.347C187.086,19.835,177.079,9.831,164.736,9.831z M164.736,49.87
			c-9.77,0-17.691-7.92-17.691-17.69c0-9.772,7.922-17.691,17.691-17.691c9.772,0,17.692,7.919,17.692,17.691
			C182.429,41.95,174.509,49.87,164.736,49.87z"/>
	</g>
	<g>
		<path fill="#CCCCCC" d="M38.827,20.339c-0.864,0.188-1.427,0.488-1.691,0.827c-0.412,0.602-1.052,1.805-2.066,4.173
			c-1.841,4.398-5.939,13.757-7.782,18.641c-0.225,0.188-0.75,0.303-1.238,0.303c-0.414,0-0.752-0.114-1.016-0.303
			c-0.411-0.899-0.978-2.252-1.427-3.307l-1.58-3.57c-0.525-1.202-1.016-2.33-1.353-2.894c-0.338,0.641-0.791,1.541-1.28,2.593
			l-1.729,3.646c-0.563,1.202-0.977,2.293-1.577,3.531c-0.188,0.188-0.713,0.303-1.277,0.303c-0.414,0-0.675-0.114-1.014-0.303
			c-0.602-1.577-2.104-4.959-3.384-7.777L4.288,22.935c-1.016-2.221-1.241-2.407-2.482-2.67l-0.938-0.186
			c-0.302-0.377-0.264-1.13,0.15-1.319c1.389,0.078,2.968,0.116,4.884,0.116c1.654,0,3.121-0.039,4.548-0.116
			c0.302,0.153,0.452,1.091,0.077,1.319l-0.677,0.111c-0.677,0.114-0.941,0.3-0.941,0.564s0.791,2.032,1.957,4.664l3.72,8.305
			c1.053,2.332,1.616,3.382,2.066,4.284c0.45-0.75,1.316-2.517,1.916-3.871l0.489-1.091c0.264-0.602,0.377-1.091,0.377-1.316
			s-0.264-1.014-0.414-1.391l-3.609-7.93c-0.864-1.879-1.127-2.143-2.555-2.293l-0.375-0.036c-0.377-0.303-0.3-1.166,0.114-1.319
			c1.614,0.078,3.08,0.116,4.734,0.116c1.916,0,3.345-0.039,4.323-0.116c0.452,0.116,0.414,1.13,0.15,1.319l-0.639,0.147
			c-0.452,0.114-1.016,0.264-1.016,0.527c0,0.302,0.15,0.713,0.339,1.127l1.129,2.596c0.339,0.789,0.828,1.805,1.164,2.479
			c0.377-0.789,0.789-1.727,1.166-2.554l0.336-0.752c0.641-1.43,1.091-2.557,1.091-2.782c0-0.264-0.15-0.377-0.75-0.527
			l-1.355-0.261c-0.264-0.264-0.225-1.13,0.114-1.319c1.088,0.078,2.443,0.116,3.682,0.116c1.466,0,2.857-0.039,3.834-0.116
			c0.3,0.189,0.375,1.091,0.036,1.355l-1.052,0.225c-1.277,0.264-1.539,0.264-2.854,2.518c-0.902,1.543-1.843,3.423-2.332,4.4
			c-0.336,0.675-0.825,1.766-0.825,1.952c0,0.114,0.036,0.338,0.3,0.941l1.766,3.795c0.977,2.068,1.502,3.273,1.729,3.798
			c1.802-4.361,3.871-9.134,5.675-13.721c0.264-0.639,0.977-2.632,0.977-3.046c0-0.375-0.6-0.525-1.088-0.675l-0.828-0.225
			c-0.302-0.341-0.225-1.13,0.114-1.319c1.202,0.078,2.743,0.116,3.871,0.116c1.316,0,2.404-0.039,3.457-0.116
			c0.339,0.189,0.375,1.016,0.111,1.319L38.827,20.339z"/>
		<path fill="#CCCCCC" d="M47.693,28.646c0,1.052,0.036,1.127,1.052,1.127h2.593c1.955,0,2.407-0.261,2.782-2.066l0.189-0.938
			c0.264-0.302,1.202-0.302,1.391,0.036c-0.075,1.202-0.113,2.555-0.113,3.982c0,1.43,0.039,2.784,0.113,3.986
			c-0.188,0.339-1.127,0.378-1.391,0.039l-0.189-0.941c-0.375-1.804-0.827-2.107-2.782-2.107h-2.593
			c-1.016,0-1.052,0.039-1.052,1.166v4.475c0,1.729,0.15,2.933,0.603,3.571c0.488,0.675,1.202,0.977,3.945,0.977
			c3.271,0,4.548-0.113,6.616-4.361c0.3-0.411,1.241-0.261,1.388,0.188c-0.147,1.955-1.05,4.998-1.577,6.014
			c-1.991-0.074-5.6-0.113-8.682-0.113H45.1c-1.805,0-3.646,0.039-6.466,0.113c-0.3-0.225-0.3-1.127,0-1.315l1.766-0.264
			c1.691-0.262,1.918-0.486,1.918-3.945V24.251c0-3.423-0.228-3.648-1.918-3.987l-0.938-0.186c-0.339-0.228-0.3-1.091,0.075-1.319
			c1.766,0.078,3.609,0.116,5.414,0.116h7.968c2.405,0,4.548-0.039,5.037-0.116c0.036,0.603,0.3,3.31,0.489,5.83
			c-0.15,0.411-1.014,0.489-1.391,0.15c-0.414-1.316-0.938-2.445-1.427-2.971c-0.714-0.713-1.843-1.166-3.687-1.166h-3.007
			c-1.239,0-1.239,0.075-1.239,1.466V28.646z"/>
		<path fill="#CCCCCC" d="M64.602,24.964c0-3.762-0.075-4.173-1.652-4.398l-1.014-0.152c-0.377-0.188-0.377-1.127,0.075-1.313
			c2.816-0.188,5.75-0.341,9.321-0.341c3.195,0,5.938,0.489,7.366,1.355c2.18,1.277,3.31,3.159,3.31,5.564
			c0,3.345-2.257,4.772-3.987,5.636c-0.375,0.188-0.375,0.414-0.188,0.827c2.484,5.039,4.025,7.857,5.827,9.398
			c0.978,0.786,1.955,1.014,2.519,1.052c0.338,0.187,0.338,0.75,0.152,0.978c-0.603,0.262-1.805,0.339-2.971,0.339
			c-3.459,0-5.639-1.241-7.293-3.948c-1.202-1.991-2.066-3.834-2.929-5.825c-0.453-1.016-1.053-1.316-1.994-1.316
			c-1.316,0-1.388,0.075-1.388,0.828v4.623c0,3.459,0.222,3.72,1.916,4.021l1.014,0.188c0.264,0.188,0.264,1.091,0,1.315
			c-1.991-0.074-3.721-0.113-5.525-0.113c-1.88,0-3.534,0.039-5.487,0.113c-0.302-0.225-0.302-1.127,0-1.315l1.014-0.188
			c1.691-0.301,1.916-0.562,1.916-4.021V24.964z M69.755,29.737c0,1.313,0.111,1.427,2.329,1.427c1.353,0,2.141-0.339,2.854-1.052
			c0.639-0.639,1.355-1.841,1.355-4.06c0-3.382-1.994-5.563-4.923-5.563c-1.543,0-1.616,0.114-1.616,1.918V29.737z"/>
		<path fill="#CCCCCC" d="M94.932,28.646c0,1.052,0.039,1.127,1.052,1.127h2.593c1.955,0,2.405-0.261,2.779-2.066l0.189-0.938
			c0.264-0.302,1.205-0.302,1.391,0.036c-0.075,1.202-0.114,2.555-0.114,3.982c0,1.43,0.039,2.784,0.114,3.986
			c-0.187,0.339-1.127,0.378-1.391,0.039l-0.189-0.941c-0.375-1.804-0.825-2.107-2.779-2.107h-2.593
			c-1.014,0-1.052,0.039-1.052,1.166v4.475c0,1.729,0.15,2.933,0.603,3.571c0.488,0.675,1.202,0.977,3.945,0.977
			c3.271,0,4.548-0.113,6.616-4.361c0.3-0.411,1.241-0.261,1.388,0.188c-0.147,1.955-1.052,4.998-1.577,6.014
			c-1.993-0.074-5.6-0.113-8.682-0.113h-4.889c-1.805,0-3.643,0.039-6.464,0.113c-0.3-0.225-0.3-1.127,0-1.315l1.766-0.264
			c1.691-0.262,1.918-0.486,1.918-3.945V24.251c0-3.423-0.228-3.648-1.918-3.987L86.7,20.078c-0.339-0.228-0.3-1.091,0.077-1.319
			c1.764,0.078,3.607,0.116,5.409,0.116h7.968c2.407,0,4.55-0.039,5.039-0.116c0.036,0.603,0.3,3.31,0.489,5.83
			c-0.15,0.411-1.016,0.489-1.394,0.15c-0.411-1.316-0.938-2.445-1.427-2.971c-0.713-0.713-1.841-1.166-3.684-1.166h-3.004
			c-1.241,0-1.241,0.075-1.241,1.466V28.646z"/>
		<path fill="#CCCCCC" d="M143.979,20.339c-0.864,0.188-1.427,0.488-1.691,0.827c-0.414,0.602-1.055,1.805-2.068,4.173
			c-1.843,4.398-5.939,13.757-7.78,18.641c-0.225,0.188-0.752,0.303-1.241,0.303c-0.414,0-0.75-0.114-1.016-0.303
			c-0.411-0.899-0.978-2.252-1.427-3.307l-1.58-3.57c-0.525-1.202-1.014-2.33-1.353-2.894c-0.338,0.641-0.789,1.541-1.277,2.593
			l-1.73,3.646c-0.563,1.202-0.975,2.293-1.58,3.531c-0.186,0.188-0.713,0.303-1.277,0.303c-0.414,0-0.677-0.114-1.016-0.303
			c-0.6-1.577-2.105-4.959-3.382-7.777l-6.125-13.269c-1.016-2.221-1.241-2.407-2.482-2.67l-0.941-0.186
			c-0.3-0.377-0.264-1.13,0.15-1.319c1.391,0.078,2.973,0.116,4.889,0.116c1.652,0,3.118-0.039,4.545-0.116
			c0.302,0.153,0.452,1.091,0.078,1.319l-0.678,0.111c-0.677,0.114-0.938,0.3-0.938,0.564s0.789,2.032,1.952,4.664l3.723,8.305
			c1.052,2.332,1.618,3.382,2.068,4.284c0.45-0.75,1.313-2.517,1.916-3.871l0.489-1.091c0.264-0.602,0.375-1.091,0.375-1.316
			s-0.261-1.014-0.414-1.391l-3.607-7.93c-0.864-1.879-1.127-2.143-2.557-2.293l-0.377-0.036c-0.375-0.303-0.3-1.166,0.113-1.319
			c1.619,0.078,3.084,0.116,4.737,0.116c1.916,0,3.345-0.039,4.323-0.116c0.45,0.116,0.414,1.13,0.15,1.319l-0.639,0.147
			c-0.452,0.114-1.014,0.264-1.014,0.527c0,0.302,0.15,0.713,0.336,1.127l1.13,2.596c0.336,0.789,0.825,1.805,1.164,2.479
			c0.375-0.789,0.789-1.727,1.166-2.554l0.338-0.752c0.639-1.43,1.089-2.557,1.089-2.782c0-0.264-0.15-0.377-0.75-0.527
			l-1.355-0.261c-0.264-0.264-0.225-1.13,0.114-1.319c1.089,0.078,2.443,0.116,3.685,0.116c1.466,0,2.856-0.039,3.832-0.116
			c0.302,0.189,0.377,1.091,0.039,1.355l-1.052,0.225c-1.28,0.264-1.541,0.264-2.857,2.518c-0.902,1.543-1.843,3.423-2.332,4.4
			c-0.338,0.675-0.825,1.766-0.825,1.952c0,0.114,0.036,0.338,0.3,0.941l1.769,3.795c0.975,2.068,1.502,3.273,1.727,3.798
			c1.805-4.361,3.871-9.134,5.675-13.721c0.264-0.639,0.977-2.632,0.977-3.046c0-0.375-0.602-0.525-1.091-0.675l-0.825-0.225
			c-0.302-0.341-0.225-1.13,0.111-1.319c1.203,0.078,2.743,0.116,3.873,0.116c1.316,0,2.407-0.039,3.459-0.116
			c0.336,0.189,0.375,1.016,0.111,1.319L143.979,20.339z"/>
	</g>
</g>
</svg>
