<?xml version="1.0" encoding="utf-8"?>
<!-- Generator: Adobe Illustrator 16.0.0, SVG Export Plug-In . SVG Version: 6.00 Build 0)  -->
<!DOCTYPE svg PUBLIC "-//W3C//DTD SVG 1.1//EN" "http://www.w3.org/Graphics/SVG/1.1/DTD/svg11.dtd">
<svg version="1.1" id="Layer_1" xmlns="http://www.w3.org/2000/svg" xmlns:xlink="http://www.w3.org/1999/xlink" x="0px" y="0px"
	 width="106px" height="60px" viewBox="0 0 106 60" enable-background="new 0 0 106 60" xml:space="preserve">
<g>
	<path fill="#CCCCCC" d="M27.873,30.062c0-4.492-3.64-8.135-8.131-8.135c-4.496,0-8.136,3.643-8.136,8.135s3.64,8.135,8.136,8.135
		C24.232,38.197,27.873,34.555,27.873,30.062z"/>
	<g>
		<path fill="#CCCCCC" d="M28.858,21.754c2,2.193,3.217,5.108,3.217,8.308c0,3.117-1.159,5.964-3.063,8.135h7.511
			c1.192-2.459,1.861-5.22,1.861-8.135c0-2.986-0.702-5.805-1.952-8.308H28.858z"/>
		<path fill="#CCCCCC" d="M10.62,21.754H3.046c-1.25,2.503-1.952,5.322-1.952,8.308c0,2.915,0.668,5.676,1.861,8.135h7.511
			c-1.904-2.171-3.063-5.018-3.063-8.135C7.403,26.862,8.619,23.947,10.62,21.754z"/>
	</g>
	<polygon fill="#CCCCCC" points="44.049,24.857 52.267,24.857 52.267,26.766 49.281,26.766 49.281,35.069 47.367,35.069 
		47.367,26.602 44.049,26.602 	"/>
	<path fill="#CCCCCC" d="M63.961,30.298c0.549-0.806,0.635-1.338,0.635-1.962c0-0.623-0.255-1.598-1.058-2.361
		c-0.808-0.763-1.404-1.118-2.251-1.118c-0.846,0-5.125,0-5.125,0v10.212h1.64v-3.5h2.808l2.034,3.5h1.952l-2.077-3.753
		C62.519,31.316,63.408,31.104,63.961,30.298z M61.644,30.062h-3.842v-3.451c0,0,2.765,0,3.784,0s1.298,1.13,1.298,1.525
		S62.658,30.062,61.644,30.062z"/>
	<path fill="#CCCCCC" d="M73.41,24.946c-2.77,0-5.016,2.246-5.016,5.017c0,2.772,2.246,5.018,5.016,5.018s5.021-2.245,5.021-5.018
		C78.431,27.192,76.18,24.946,73.41,24.946z M73.41,33.312c-1.847,0-3.347-1.498-3.347-3.35c0-1.849,1.5-3.348,3.347-3.348
		c1.852,0,3.352,1.499,3.352,3.348C76.762,31.814,75.262,33.312,73.41,33.312z"/>
	<path fill="#CCCCCC" d="M99.891,24.946c-2.774,0-5.02,2.246-5.02,5.017c0,2.772,2.245,5.018,5.02,5.018
		c2.771,0,5.016-2.245,5.016-5.018C104.906,27.192,102.661,24.946,99.891,24.946z M99.891,33.312c-1.851,0-3.352-1.498-3.352-3.35
		c0-1.849,1.501-3.348,3.352-3.348c1.847,0,3.347,1.499,3.347,3.348C103.237,31.814,101.737,33.312,99.891,33.312z"/>
	<path fill="#CCCCCC" d="M90.663,26.823c-0.298-0.636-1.524-1.876-2.457-1.876s-5.766,0-5.766,0V34.98h1.697v-3.411
		c0,0,2.626,0,3.391,0c0.76,0,1.692-0.337,2.327-0.973c0.64-0.636,1.062-1.781,1.062-2.247S90.663,26.823,90.663,26.823z
		 M87.908,30.062c-0.592,0-3.856,0-3.856,0v-3.493c0,0,2.967,0,3.727,0c0.765,0,1.485,1.119,1.485,1.747
		S88.499,30.062,87.908,30.062z"/>
</g>
</svg>
