<?xml version="1.0" encoding="utf-8"?>
<!-- Generator: Adobe Illustrator 16.0.0, SVG Export Plug-In . SVG Version: 6.00 Build 0)  -->
<!DOCTYPE svg PUBLIC "-//W3C//DTD SVG 1.1//EN" "http://www.w3.org/Graphics/SVG/1.1/DTD/svg11.dtd">
<svg version="1.1" id="Layer_1" xmlns="http://www.w3.org/2000/svg" xmlns:xlink="http://www.w3.org/1999/xlink" x="0px" y="0px"
	 width="40px" height="60px" viewBox="0 0 40 60" enable-background="new 0 0 40 60" xml:space="preserve">
<g>
	<path fill="#FFFFFF" d="M11.732,18.625c-0.5,0-1.904,0-1.904,0v3.582h0.61v-1.113h1.311c1.129-0.014,1.129-1.188,1.129-1.188
		C12.878,19.25,12.235,18.625,11.732,18.625z M11.718,20.415c-0.55,0-1.28,0-1.28,0v-1.134c0,0,0.824,0,1.217,0
		c0.399,0,0.657,0.457,0.657,0.608C12.312,20.043,12.265,20.415,11.718,20.415z"/>
	<polygon fill="#FFFFFF" points="15.879,20.18 14.262,20.18 14.262,18.625 13.622,18.625 13.622,22.207 14.262,22.207 14.262,20.82 
		15.879,20.82 15.879,22.207 16.519,22.207 16.519,18.625 15.879,18.625 	"/>
	<path fill="#FFFFFF" d="M19.306,18.618c-0.993,0-1.797,0.804-1.797,1.797c0,0.994,0.804,1.8,1.797,1.8
		c0.993,0,1.797-0.806,1.797-1.8C21.104,19.422,20.299,18.618,19.306,18.618z M19.306,21.651c-0.681,0-1.234-0.554-1.234-1.236
		c0-0.681,0.553-1.234,1.234-1.234s1.234,0.553,1.234,1.234C20.54,21.098,19.987,21.651,19.306,21.651z"/>
	<path fill="#FFFFFF" d="M27.384,18.618c-0.993,0-1.8,0.804-1.8,1.797c0,0.994,0.807,1.8,1.8,1.8c0.992,0,1.8-0.806,1.8-1.8
		C29.184,19.422,28.376,18.618,27.384,18.618z M27.384,21.651c-0.685,0-1.236-0.554-1.236-1.236c0-0.681,0.552-1.234,1.236-1.234
		c0.684,0,1.236,0.553,1.236,1.234C28.62,21.098,28.067,21.651,27.384,21.651z"/>
	<polygon fill="#FFFFFF" points="24.366,20.82 21.913,18.733 21.913,22.215 22.477,22.215 22.477,20.133 25.036,22.215 
		25.036,18.733 24.366,18.733 	"/>
	<path fill="#FFFFFF" d="M35.441,8.806c-1.75-1.753-5.017-3.325-6.688-3.325c-1.674,0-18.926,0-18.926,0
		c-1.4,0-4.973,1.892-6.882,4.202c-1.912,2.31-2.38,6.77-2.38,6.77c0,3.345,0,21.027,0,21.027l0.9-0.025v1.533h1.378v11.078
		l0.87,0.781L2.64,52.057l2.249,2.172l1.887-2.426l-0.867-0.955l0.779-0.832v-11.26h1.275V37.48h0.798v-3.104c0,0,15.69,0,19.432,0
		c3.744,0,5.656-1.834,7.33-3.268c1.674-1.434,3.274-4.7,3.274-6.691s0-7.328,0-8.921S37.197,10.558,35.441,8.806z M30.315,23.668
		c0,1.379-1.378,2.501-2.35,2.501c-0.971,0-15.613,0-16.614,0c-1.523,0-2.481,2.197-2.481,2.197s0-9.293,0-11.845
		c0-2.554,2.481-2.757,3.422-2.757c0.936,0,14.089,0,15.52,0s2.503,1.276,2.503,2.961S30.315,22.292,30.315,23.668z"/>
</g>
</svg>
