<?xml version="1.0" encoding="utf-8"?>
<!-- Generator: Adobe Illustrator 16.0.0, SVG Export Plug-In . SVG Version: 6.00 Build 0)  -->
<!DOCTYPE svg PUBLIC "-//W3C//DTD SVG 1.1//EN" "http://www.w3.org/Graphics/SVG/1.1/DTD/svg11.dtd">
<svg version="1.1" id="Layer_1" xmlns="http://www.w3.org/2000/svg" xmlns:xlink="http://www.w3.org/1999/xlink" x="0px" y="0px"
	 width="600px" height="120px" viewBox="0 0 600 120" enable-background="new 0 0 600 120" xml:space="preserve">
<g>
	<g>
		<path fill="#464B50" d="M421.303,87.084c-3.559-0.133-10.281-0.221-17.127-0.221h-10.023c-3.328,0-6.933,0.067-11.688,0.223
			l-1.303,0.04l-1.083-0.723c-1.451-0.965-2.351-2.737-2.406-4.736c-0.054-1.877,0.675-3.521,1.995-4.513l0.854-0.642
			c0,0,4.007-0.527,4.059-0.533c0.079-0.803,0.121-2.124,0.121-3.954V44.2c0-1.875-0.044-3.222-0.129-4.027
			c-0.05-0.007-3.168-0.438-3.168-0.438l-0.712-0.427c-1.63-0.978-2.595-2.877-2.515-4.957c0.081-2.084,1.206-3.917,2.938-4.783
			l0.933-0.465l1.042,0.04c3.809,0.147,7.532,0.221,11.062,0.221c3.577,0,7.247-0.074,10.909-0.221l1.448-0.058l1.157,0.872
			c1.316,0.99,2.07,2.652,2.07,4.561c-0.002,1.907-0.756,3.567-2.072,4.555l-0.815,0.612c0,0-3.118,0.481-3.191,0.494
			c-0.086,0.796-0.129,2.142-0.129,4.022v26.182c0,3.186,0.287,4.268,0.408,4.577c0.369,0.119,1.473,0.333,4.577,0.333
			c5.938,0,6.294,0,9.689-6.679l0.19-0.373l0.263-0.327c0.99-1.236,2.538-1.945,4.245-1.945c2.186,0,4.26,1.136,5.281,2.892
			l0.659,1.13l-0.125,1.302c-0.417,4.329-2.356,11.095-3.652,13.6l-1.187,2.29L421.303,87.084z"/>
		<path fill="#464B50" d="M399.464,70.382c0,3.513,0.298,5.907,1.271,7.105c0.973,1.271,2.32,1.87,7.78,1.87
			c6.806,0,8.901-0.225,13.313-8.902c0.6-0.748,2.32-0.448,2.843,0.449c-0.373,3.89-2.17,10.099-3.216,12.117
			c-3.965-0.149-11.146-0.223-17.279-0.223h-10.023c-3.441,0-7.181,0.073-11.819,0.223c-0.673-0.449-0.821-2.168-0.224-2.616
			l2.842-0.375c3.366-0.449,3.814-1.046,3.814-8.005V44.2c0-6.956-0.448-7.629-3.814-8.078l-2.169-0.3
			c-0.748-0.448-0.748-2.168,0.15-2.618c3.889,0.15,7.63,0.224,11.22,0.224c3.591,0,7.33-0.074,11.071-0.224
			c0.598,0.449,0.598,2.169,0,2.618l-1.945,0.3c-3.365,0.524-3.814,1.123-3.814,8.078V70.382z"/>
		<path fill="#464B50" d="M441.047,88.059c-2.294,0-3.78-0.838-4.624-1.54l-0.778-0.649l-0.381-0.938
			c-0.401-0.979-0.901-2.394-1.431-3.895c-0.566-1.6-1.166-3.307-1.707-4.62L419.99,45.928c-0.543-1.374-1.758-4.446-2.361-5.376
			c-0.139-0.038-4.881-1.219-4.881-1.219l-0.867-1.192c-1.004-1.379-1.363-3.16-0.98-4.887c0.346-1.569,1.292-2.884,2.594-3.605
			l0.957-0.531l1.094,0.022c1.444,0.029,2.697,0.067,3.906,0.105c1.959,0.061,3.799,0.118,6.187,0.118
			c3.151,0,6.156-0.061,11.087-0.222l1.429-0.046l1.144,0.857c2.509,1.881,2.55,5.752,1.018,8.05l-0.935,1.401l-1.604,0.321
			c0.413,1.089,0.994,2.58,1.808,4.613l5.455,13.942l1.589-3.935c1.584-3.99,4.355-11.186,5.562-14.47l-1.883-0.412l-0.842-0.843
			c-1.304-1.305-1.874-3.322-1.488-5.264c0.356-1.808,1.488-3.231,3.1-3.903l0.834-0.348l0.902,0.039
			c3.581,0.152,6.365,0.22,9.029,0.22c2.401,0,4.587-0.07,6.677-0.214l1.109-0.076l0.992,0.498c1.479,0.741,2.46,2.252,2.689,4.143
			c0.252,2.069-0.389,3.984-1.719,5.122l-0.817,0.7l-3.003,0.577c-1.428,0.256-1.517,0.399-1.651,0.617
			c-1.515,2.278-3.32,6.324-5.766,12.149l-5.465,12.95c-2.355,5.589-3.993,9.976-5.309,13.498c-0.808,2.168-1.499,4.012-2.153,5.611
			l-0.499,1.213l-1.111,0.692C444.544,87.64,442.896,88.059,441.047,88.059z"/>
		<path fill="#464B50" d="M451.144,64.247c-3.814,9.051-5.76,14.959-7.479,19.149c-0.6,0.375-1.496,0.597-2.618,0.597
			c-0.898,0-1.571-0.222-2.021-0.597c-0.823-2.019-2.094-5.984-3.142-8.529l-12.117-30.442c-2.842-7.181-3.217-7.331-5.611-7.929
			l-2.99-0.748c-0.6-0.823-0.375-2.169,0.3-2.543c3.814,0.075,6.281,0.224,10.172,0.224c3.441,0,6.656-0.074,11.22-0.224
			c0.6,0.449,0.523,1.871,0.075,2.543l-2.245,0.449c-1.346,0.299-1.869,0.748-1.869,1.422c0,0.597,1.196,3.739,2.991,8.228
			l6.583,16.831c1.048,2.767,1.945,5.01,2.47,6.284c0.597-1.274,1.794-3.814,2.691-6.062l2.844-7.03
			c1.87-4.713,5.085-13.09,5.984-15.633c0.521-1.421,0.746-2.245,0.746-2.693c0-0.524-0.598-0.823-2.394-1.271l-2.394-0.524
			c-0.598-0.599-0.598-2.169,0.3-2.543c3.517,0.15,6.359,0.224,9.201,0.224c2.542,0,4.787-0.074,6.957-0.224
			c0.597,0.3,0.673,2.095,0.148,2.543l-1.945,0.374c-2.094,0.374-3.366,0.897-4.339,2.468c-1.645,2.469-3.515,6.658-6.058,12.716
			L451.144,64.247z"/>
		<path fill="#464B50" d="M506.188,87.084c-3.559-0.133-10.279-0.221-17.124-0.221h-9.726c-3.692,0-7.473,0.08-12.757,0.223
			l-1.417,0.038l-1.133-0.852c-1.399-1.053-2.151-2.833-2.066-4.887c0.083-1.93,0.938-3.543,2.35-4.426l0.719-0.451
			c0,0,4.518-0.675,4.591-0.687c0.075-0.776,0.113-2.046,0.113-3.797v-27.9c0-1.807-0.042-3.098-0.123-3.855
			c-0.121-0.026-3.082-0.621-3.082-0.621l-0.669-0.445c-1.467-0.979-2.316-2.741-2.269-4.715c0.047-2.044,1.012-3.828,2.58-4.77
			l1.048-0.629l1.219,0.053c3.434,0.146,6.998,0.22,10.597,0.22h15.858c5.887,0,8.862-0.107,9.426-0.18l4.301-0.553l0.354,4.317
			c0.029,0.459,0.127,1.554,0.256,3.01c0.204,2.31,0.486,5.493,0.713,8.54l0.065,0.867l-0.296,0.818
			c-0.742,2.052-2.793,3.383-5.234,3.404c-0.139,2.278-0.208,4.819-0.208,7.554c0,2.785,0.073,5.367,0.216,7.676l0.074,1.188
			l-0.576,1.035c-0.915,1.651-2.776,2.641-4.979,2.641c-1.888,0-3.547-0.747-4.553-2.043l-0.586-0.756l-0.563-2.807
			c-0.082-0.393-0.153-0.677-0.213-0.881c-0.277-0.024-0.7-0.044-1.337-0.044h-3.19v7.157c0,3.104,0.28,4.27,0.419,4.658
			c0.405,0.121,1.538,0.327,4.567,0.327c5.67,0,6.398,0,9.511-6.391l0.155-0.321l0.21-0.29c0.996-1.369,2.618-2.157,4.452-2.157
			c2.544,0,4.739,1.463,5.462,3.642l0.256,0.774l-0.062,0.815c-0.329,4.301-2.23,10.918-3.586,13.53l-1.188,2.286L506.188,87.084z"
			/>
		<path fill="#464B50" d="M484.5,52.877c0,2.094,0.073,2.244,2.094,2.244h5.161c3.89,0,4.787-0.523,5.535-4.114l0.375-1.871
			c0.522-0.598,2.394-0.598,2.767,0.076c-0.148,2.394-0.224,5.086-0.224,7.928c0,2.843,0.075,5.536,0.224,7.93
			c-0.373,0.671-2.244,0.747-2.767,0.076l-0.375-1.872c-0.748-3.59-1.646-4.189-5.535-4.189h-5.161
			c-2.021,0-2.094,0.076-2.094,2.319v8.902c0,3.441,0.298,5.835,1.197,7.105c0.972,1.346,2.394,1.945,7.854,1.945
			c6.508,0,9.051-0.225,13.165-8.678c0.598-0.821,2.469-0.524,2.767,0.373c-0.298,3.891-2.094,9.95-3.142,11.969
			c-3.964-0.149-11.145-0.223-17.277-0.223h-9.726c-3.591,0-7.255,0.073-12.865,0.223c-0.598-0.449-0.598-2.243,0-2.616l3.515-0.524
			c3.366-0.523,3.814-0.973,3.814-7.855v-27.9c0-6.807-0.448-7.255-3.814-7.929l-1.87-0.375c-0.673-0.448-0.597-2.168,0.151-2.618
			c3.515,0.15,7.181,0.224,10.77,0.224h15.858c4.787,0,9.051-0.074,10.023-0.224c0.075,1.197,0.599,6.583,0.972,11.595
			c-0.297,0.822-2.019,0.971-2.767,0.298c-0.823-2.618-1.869-4.862-2.842-5.91c-1.421-1.421-3.666-2.318-7.332-2.318h-5.984
			c-2.467,0-2.467,0.148-2.467,2.917V52.877z"/>
		<path fill="#464B50" d="M526.454,88.059c-7.963,0-12.956-2.362-14.732-3.378l-0.605-0.346l-0.455-0.526
			c-3.286-3.805-3.382-13.663-3.382-14.774v-1.026l0.486-0.9c0.973-1.807,2.932-2.928,5.113-2.928c1.855,0,3.572,0.835,4.592,2.236
			l0.401,0.548l0.198,0.651c1.117,3.626,4.958,8.874,8.981,8.874c3.622,0,4.013-2.441,4.013-3.491c0-2.93-2.519-5.554-7.925-8.257
			c-11.192-5.595-13.542-12.998-13.542-18.222c-0.044-4.812,1.642-9.098,4.873-12.358c3.886-3.921,9.607-5.994,16.547-5.994
			c2.342,0,5.924,0.237,9.693,1.369c0.857,0.263,1.357,0.368,2.045,0.483l2.338,0.391l0.812,2.227
			c0.794,2.176,1.594,6.758,1.594,12.087v0.815l-0.313,0.752c-0.834,1.994-2.851,3.232-5.262,3.232c-1.755,0-3.368-0.677-4.43-1.857
			l-0.566-0.629l-0.268-0.803c-0.804-2.412-2.978-6.496-6.018-6.496c-2.299,0-3.565,1.027-3.565,2.892
			c0,1.483,1.899,3.507,4.617,4.919l4.968,2.634c8.434,4.49,12.707,10.756,12.707,18.627
			C549.369,80.323,540.159,88.059,526.454,88.059z"/>
		<path fill="#464B50" d="M526.454,83.993c-6.883,0-11.146-1.944-12.716-2.842c-1.422-1.644-2.395-7.03-2.395-12.117
			c0.524-0.973,2.243-1.046,2.843-0.225c1.496,4.863,6.508,11.744,12.865,11.744c5.535,0,8.078-3.814,8.078-7.556
			c0-6.058-5.685-9.65-10.172-11.893c-5.387-2.693-11.296-7.181-11.296-14.586c-0.075-8.452,6.509-14.288,17.355-14.288
			c2.467,0,5.535,0.3,8.526,1.197c0.973,0.3,1.646,0.45,2.542,0.6c0.6,1.645,1.348,5.684,1.348,10.696
			c-0.375,0.898-2.244,0.973-2.917,0.224c-1.272-3.814-4.487-9.275-9.874-9.275c-4.937,0-7.63,3.217-7.63,6.957
			c0,3.44,3.066,6.583,6.808,8.526l4.937,2.618c4.639,2.469,10.547,6.808,10.547,15.035
			C545.304,78.012,537.748,83.993,526.454,83.993z"/>
	</g>
	<g>
		<path fill="#464B50" d="M57.784,88.059c-1.626,0-3.142-0.469-4.383-1.354l-0.883-0.632l-0.451-0.984
			c-0.619-1.354-1.407-3.205-2.146-4.941l-0.738-1.733l-2.197-4.972l-2.213,4.664c-0.48,1.028-0.911,2.028-1.342,3.031
			c-0.564,1.31-1.131,2.622-1.812,4.031l-0.3,0.619l-0.488,0.486c-1.479,1.475-3.761,1.784-5.415,1.784
			c-1.754,0-2.958-0.532-3.994-1.109l-1.296-0.721L29.6,84.843c-0.937-2.461-3.295-7.877-6.635-15.253L10.784,43.211
			c-0.276-0.603-1.054-2.303-1.46-2.891c-0.119-0.033-0.314-0.08-0.631-0.148l-3.277-0.655L4.491,38.36
			c-1.122-1.404-1.548-3.408-1.114-5.229c0.395-1.646,1.455-2.968,2.908-3.628l0.907-0.412l0.994,0.054
			c2.711,0.147,5.822,0.218,9.503,0.218c3.156,0,6.045-0.071,8.836-0.218l1.072-0.057l0.96,0.479
			c0.103,0.053,0.205,0.108,0.304,0.167c0.238-0.137,0.49-0.254,0.754-0.35l0.764-0.279l0.814,0.038
			c3.263,0.153,6.111,0.22,9.235,0.22c3.672,0,6.462-0.071,8.29-0.212l0.657-0.05l0.639,0.16c0.256,0.063,0.502,0.147,0.738,0.248
			l0.796-0.442l1.203,0.083c1.975,0.136,4.545,0.214,7.05,0.214c2.942,0,5.54-0.075,7.318-0.212l1.332-0.102l0.615,0.384l0.647-0.36
			l1.189,0.074c2.1,0.131,5.023,0.216,7.451,0.216c2.458,0,4.551-0.067,6.592-0.214l1.207-0.086l1.058,0.588
			c1.354,0.753,2.263,2.106,2.558,3.811c0.328,1.889-0.141,3.772-1.252,5.041l-0.861,0.981l-3.515,0.821
			c-0.631,0.137-0.998,0.277-1.183,0.361c-0.564,0.916-1.64,2.922-3.483,7.229c-1.022,2.438-2.412,5.69-3.958,9.306
			c-3.946,9.231-8.858,20.723-11.462,27.63l-0.377,1l-0.822,0.688C61.186,87.909,58.752,88.059,57.784,88.059z"/>
		<path fill="#464B50" d="M83.215,36.346c-1.719,0.375-2.842,0.973-3.366,1.646c-0.822,1.197-2.094,3.59-4.112,8.303
			c-3.666,8.752-11.819,27.378-15.485,37.102c-0.449,0.375-1.495,0.597-2.467,0.597c-0.824,0-1.497-0.222-2.021-0.597
			c-0.822-1.797-1.945-4.488-2.842-6.584l-3.142-7.105c-1.048-2.394-2.019-4.637-2.693-5.76c-0.673,1.272-1.57,3.068-2.542,5.16
			l-3.441,7.257c-1.122,2.394-1.945,4.564-3.14,7.032c-0.375,0.375-1.423,0.597-2.544,0.597c-0.822,0-1.346-0.222-2.019-0.597
			c-1.197-3.143-4.19-9.875-6.732-15.483L14.474,41.507c-2.021-4.413-2.469-4.787-4.938-5.311l-1.87-0.375
			c-0.597-0.747-0.524-2.244,0.3-2.618c2.767,0.15,5.909,0.224,9.724,0.224c3.291,0,6.208-0.074,9.05-0.224
			c0.6,0.3,0.899,2.169,0.151,2.618l-1.348,0.226c-1.346,0.224-1.87,0.598-1.87,1.121c0,0.524,1.572,4.04,3.89,9.276l7.405,16.53
			c2.094,4.639,3.217,6.732,4.115,8.526c0.897-1.494,2.618-5.009,3.814-7.702l0.973-2.17c0.524-1.197,0.749-2.169,0.749-2.618
			c0-0.45-0.524-2.02-0.824-2.768L36.614,40.46c-1.721-3.74-2.245-4.264-5.087-4.563l-0.747-0.076
			c-0.748-0.597-0.599-2.318,0.225-2.618c3.215,0.15,6.133,0.224,9.424,0.224c3.814,0,6.657-0.074,8.602-0.224
			c0.899,0.224,0.823,2.245,0.299,2.618l-1.272,0.3c-0.897,0.224-2.019,0.524-2.019,1.047c0,0.599,0.298,1.421,0.673,2.244
			l2.245,5.161c0.673,1.571,1.646,3.59,2.318,4.937c0.748-1.571,1.57-3.44,2.318-5.086l0.673-1.497
			c1.272-2.842,2.169-5.086,2.169-5.535c0-0.523-0.298-0.748-1.495-1.047l-2.693-0.524c-0.524-0.523-0.449-2.244,0.224-2.618
			c2.169,0.15,4.863,0.224,7.33,0.224c2.918,0,5.685-0.074,7.63-0.224c0.599,0.374,0.748,2.169,0.075,2.693l-2.094,0.448
			c-2.544,0.524-3.066,0.524-5.685,5.012c-1.796,3.067-3.666,6.807-4.638,8.752c-0.673,1.347-1.646,3.516-1.646,3.89
			c0,0.224,0.073,0.673,0.597,1.87l3.517,7.554c1.945,4.117,2.991,6.511,3.44,7.557c3.59-8.678,7.705-18.177,11.295-27.303
			c0.524-1.271,1.945-5.236,1.945-6.059c0-0.748-1.197-1.048-2.169-1.347l-1.646-0.45c-0.599-0.673-0.448-2.244,0.225-2.618
			c2.394,0.15,5.46,0.224,7.705,0.224c2.618,0,4.788-0.074,6.881-0.224c0.673,0.374,0.749,2.021,0.225,2.618L83.215,36.346z"/>
		<path fill="#464B50" d="M122.545,87.084c-3.559-0.133-10.279-0.221-17.125-0.221h-9.726c-3.692,0-7.473,0.08-12.756,0.223
			l-1.413,0.038l-1.131-0.848c-1.403-1.05-2.159-2.833-2.072-4.891c0.082-1.932,0.939-3.545,2.356-4.431l0.717-0.448
			c0,0,4.513-0.673,4.587-0.685c0.075-0.776,0.113-2.046,0.113-3.797v-27.9c0-1.807-0.042-3.098-0.123-3.855
			c-0.121-0.026-3.082-0.621-3.082-0.621l-0.669-0.445c-1.467-0.978-2.314-2.739-2.269-4.712c0.045-2.043,1.008-3.827,2.574-4.771
			l1.048-0.631l1.223,0.053c3.436,0.146,7.002,0.22,10.601,0.22h15.856c5.887,0,8.862-0.107,9.426-0.18l4.301-0.553l0.354,4.317
			c0.03,0.459,0.127,1.554,0.256,3.01c0.205,2.31,0.486,5.493,0.713,8.54l0.065,0.867l-0.296,0.818
			c-0.742,2.052-2.792,3.383-5.234,3.404c-0.139,2.278-0.208,4.819-0.208,7.554c0,2.785,0.074,5.367,0.216,7.676l0.074,1.188
			l-0.576,1.035c-0.915,1.651-2.777,2.641-4.978,2.641c-1.885,0-3.542-0.742-4.551-2.037l-0.59-0.758l-0.563-2.811
			c-0.082-0.393-0.153-0.677-0.212-0.881c-0.278-0.024-0.701-0.044-1.338-0.044h-3.189v7.157c0,3.104,0.28,4.27,0.419,4.658
			c0.405,0.121,1.538,0.327,4.567,0.327c5.67,0,6.399,0,9.511-6.391l0.155-0.321l0.21-0.29c0.996-1.369,2.618-2.157,4.452-2.157
			c2.544,0,4.74,1.463,5.462,3.642l0.256,0.774l-0.062,0.815c-0.33,4.301-2.231,10.918-3.586,13.53l-1.187,2.286L122.545,87.084z"/>
		<path fill="#464B50" d="M100.857,52.877c0,2.094,0.074,2.244,2.094,2.244h5.16c3.89,0,4.788-0.523,5.536-4.114l0.375-1.871
			c0.524-0.598,2.394-0.598,2.767,0.076c-0.149,2.394-0.224,5.086-0.224,7.928c0,2.843,0.075,5.536,0.224,7.93
			c-0.373,0.671-2.243,0.747-2.767,0.076l-0.375-1.872c-0.748-3.59-1.646-4.189-5.536-4.189h-5.16c-2.021,0-2.094,0.076-2.094,2.319
			v8.902c0,3.441,0.298,5.835,1.197,7.105c0.972,1.346,2.394,1.945,7.854,1.945c6.508,0,9.051-0.225,13.165-8.678
			c0.598-0.821,2.469-0.524,2.767,0.373c-0.298,3.891-2.094,9.95-3.142,11.969c-3.964-0.149-11.145-0.223-17.277-0.223h-9.726
			c-3.59,0-7.254,0.073-12.865,0.223c-0.6-0.449-0.6-2.243,0-2.616l3.515-0.524c3.366-0.523,3.815-0.973,3.815-7.855v-27.9
			c0-6.807-0.449-7.255-3.815-7.929l-1.87-0.375c-0.673-0.448-0.597-2.168,0.149-2.618c3.517,0.15,7.181,0.224,10.773,0.224h15.856
			c4.787,0,9.051-0.074,10.023-0.224c0.075,1.197,0.599,6.583,0.972,11.595c-0.297,0.822-2.019,0.971-2.767,0.298
			c-0.824-2.618-1.87-4.862-2.842-5.91c-1.421-1.421-3.666-2.318-7.332-2.318h-5.984c-2.467,0-2.467,0.148-2.467,2.917V52.877z"/>
		<path fill="#464B50" d="M171.835,87.312c-8.181,0-13.894-3.116-17.98-9.801c-2.08-3.448-3.668-6.671-5.032-9.69v4.204
			c0,1.846,0.042,3.164,0.127,3.941c0.098,0.019,3.269,0.604,3.269,0.604l0.734,0.526c1.267,0.903,2.009,2.415,2.088,4.257
			c0.042,0.932-0.053,3.255-1.806,4.756l-1.208,1.036l-1.588-0.062c-4.051-0.153-7.393-0.221-10.843-0.221
			c-3.521,0-6.74,0.065-10.764,0.221l-1.439,0.056l-1.153-0.863c-1.403-1.05-2.16-2.835-2.072-4.891
			c0.082-1.932,0.939-3.545,2.356-4.431l0.653-0.408c0,0,3.035-0.56,3.14-0.58c0.085-0.777,0.127-2.096,0.127-3.941V45.546
			c0-1.487,0-3.549-0.099-4.772l-2.382-0.352l-0.582-0.29c-1.796-0.898-2.864-2.847-2.787-5.087c0.077-2.246,1.298-4.13,3.189-4.918
			l0.621-0.26l0.673-0.045c5.062-0.337,11.256-0.683,18.82-0.683c4.238,0,12.052,0.427,16.768,3.281
			c5.571,3.266,8.542,8.307,8.542,14.547c0,7.357-4.347,11.345-7.566,13.404c4.043,8.097,6.734,12.769,9.432,15.072
			c1.225,0.986,2.416,1.115,2.642,1.129l0.909,0.062l0.796,0.44c1.326,0.738,2.252,2.053,2.542,3.608
			c0.304,1.624-0.105,3.303-1.094,4.49l-0.613,0.738l-0.881,0.385C178.298,86.769,176.466,87.312,171.835,87.312z M149.396,53.824
			c1.907,0,2.346-0.438,2.811-0.903c0.968-0.97,1.502-2.817,1.502-5.205c0-4.028-1.808-6.566-4.885-6.954v13.06
			C149.06,53.824,149.263,53.824,149.396,53.824z"/>
		<path fill="#464B50" d="M134.51,45.546c0-7.479-0.149-8.302-3.291-8.752l-2.019-0.299c-0.748-0.374-0.748-2.244,0.149-2.618
			c5.609-0.374,11.444-0.674,18.55-0.674c6.359,0,11.819,0.973,14.662,2.693c4.339,2.543,6.583,6.283,6.583,11.07
			c0,6.658-4.49,9.5-7.929,11.221c-0.748,0.373-0.748,0.823-0.375,1.646c4.938,10.024,8.004,15.633,11.595,18.701
			c1.945,1.568,3.89,2.019,5.011,2.092c0.673,0.376,0.673,1.497,0.3,1.945c-1.197,0.524-3.59,0.675-5.911,0.675
			c-6.881,0-11.22-2.469-14.511-7.855c-2.394-3.964-4.114-7.63-5.835-11.593c-0.897-2.02-2.094-2.618-3.963-2.618
			c-2.618,0-2.767,0.148-2.767,1.646v9.199c0,6.883,0.449,7.407,3.815,8.005l2.019,0.375c0.524,0.373,0.524,2.167,0,2.616
			c-3.963-0.149-7.405-0.223-10.996-0.223c-3.739,0-7.032,0.073-10.92,0.223c-0.599-0.449-0.599-2.243,0-2.616l2.019-0.375
			c3.366-0.598,3.815-1.122,3.815-8.005V45.546z"/>
		<path fill="#464B50" d="M216.555,87.084c-3.559-0.133-10.279-0.221-17.125-0.221h-9.725c-3.692,0-7.473,0.08-12.756,0.223
			l-1.417,0.038l-1.133-0.852c-1.399-1.053-2.152-2.833-2.066-4.887c0.083-1.93,0.939-3.543,2.35-4.426l0.718-0.451
			c0,0,4.518-0.675,4.591-0.687c0.076-0.776,0.113-2.046,0.113-3.797v-27.9c0-1.807-0.042-3.098-0.123-3.855
			c-0.121-0.026-3.083-0.621-3.083-0.621l-0.669-0.445c-1.466-0.979-2.316-2.741-2.269-4.715c0.048-2.044,1.012-3.828,2.581-4.77
			l1.048-0.629l1.219,0.053c3.434,0.146,6.998,0.22,10.597,0.22h15.858c5.887,0,8.862-0.107,9.426-0.18l4.301-0.553l0.354,4.317
			c0.03,0.459,0.127,1.554,0.256,3.01c0.205,2.31,0.486,5.493,0.712,8.54l0.066,0.867l-0.296,0.818
			c-0.742,2.052-2.792,3.383-5.234,3.404c-0.139,2.278-0.208,4.819-0.208,7.554c0,2.785,0.074,5.367,0.216,7.676l0.074,1.188
			l-0.576,1.035c-0.915,1.651-2.777,2.641-4.98,2.641c-1.888,0-3.547-0.747-4.553-2.043l-0.585-0.756l-0.563-2.807
			c-0.082-0.393-0.153-0.677-0.212-0.881c-0.278-0.024-0.701-0.044-1.338-0.044h-3.189v7.157c0,3.104,0.28,4.27,0.419,4.658
			c0.405,0.121,1.538,0.327,4.567,0.327c5.67,0,6.399,0,9.511-6.391l0.155-0.321l0.21-0.29c0.996-1.369,2.618-2.157,4.452-2.157
			c2.544,0,4.74,1.463,5.462,3.642l0.256,0.774l-0.062,0.815c-0.33,4.301-2.231,10.918-3.586,13.53l-1.187,2.286L216.555,87.084z"/>
		<path fill="#464B50" d="M194.867,52.877c0,2.094,0.074,2.244,2.094,2.244h5.16c3.89,0,4.788-0.523,5.536-4.114l0.375-1.871
			c0.522-0.598,2.394-0.598,2.767,0.076c-0.149,2.394-0.225,5.086-0.225,7.928c0,2.843,0.076,5.536,0.225,7.93
			c-0.374,0.671-2.245,0.747-2.767,0.076l-0.375-1.872c-0.748-3.59-1.646-4.189-5.536-4.189h-5.16c-2.021,0-2.094,0.076-2.094,2.319
			v8.902c0,3.441,0.298,5.835,1.197,7.105c0.973,1.346,2.394,1.945,7.854,1.945c6.508,0,9.051-0.225,13.165-8.678
			c0.597-0.821,2.469-0.524,2.767,0.373c-0.297,3.891-2.094,9.95-3.142,11.969c-3.964-0.149-11.145-0.223-17.278-0.223h-9.725
			c-3.591,0-7.254,0.073-12.866,0.223c-0.597-0.449-0.597-2.243,0-2.616l3.515-0.524c3.366-0.523,3.815-0.973,3.815-7.855v-27.9
			c0-6.807-0.449-7.255-3.815-7.929l-1.87-0.375c-0.673-0.448-0.597-2.168,0.151-2.618c3.515,0.15,7.181,0.224,10.77,0.224h15.858
			c4.787,0,9.051-0.074,10.023-0.224c0.076,1.197,0.6,6.583,0.973,11.595c-0.298,0.822-2.019,0.971-2.767,0.298
			c-0.824-2.618-1.87-4.862-2.842-5.91c-1.421-1.421-3.666-2.318-7.332-2.318h-5.984c-2.467,0-2.467,0.148-2.467,2.917V52.877z"/>
		<path fill="#464B50" d="M267.042,88.059c-1.625,0-3.142-0.469-4.382-1.354l-0.883-0.632l-0.451-0.984
			c-0.619-1.354-1.407-3.205-2.146-4.941l-0.738-1.733l-2.197-4.972l-2.213,4.664c-0.477,1.021-0.903,2.013-1.332,3.005
			c-0.567,1.322-1.137,2.645-1.826,4.062l-0.298,0.611l-0.48,0.482c-1.479,1.482-3.763,1.792-5.42,1.792
			c-1.754,0-2.957-0.532-3.993-1.109l-1.296-0.721l-0.528-1.386c-0.937-2.461-3.294-7.877-6.635-15.253l-12.18-26.378
			c-0.276-0.603-1.054-2.303-1.461-2.891c-0.119-0.033-0.313-0.08-0.631-0.148l-3.277-0.655l-0.925-1.157
			c-1.122-1.404-1.548-3.408-1.113-5.229c0.395-1.646,1.455-2.968,2.908-3.628l0.907-0.412l0.995,0.054
			c2.711,0.147,5.821,0.218,9.503,0.218c3.156,0,6.046-0.071,8.836-0.218l1.072-0.057l0.96,0.479
			c0.104,0.053,0.205,0.108,0.304,0.167c0.238-0.137,0.49-0.254,0.754-0.35l0.764-0.279l0.813,0.038
			c3.263,0.153,6.111,0.22,9.235,0.22c3.672,0,6.462-0.071,8.291-0.212l0.657-0.05l0.641,0.16c0.254,0.064,0.5,0.147,0.736,0.248
			l0.796-0.442l1.203,0.083c1.975,0.136,4.545,0.214,7.05,0.214c2.943,0,5.542-0.075,7.318-0.212l1.332-0.102l0.615,0.384
			l0.647-0.36l1.188,0.074c2.1,0.131,5.023,0.216,7.451,0.216c2.457,0,4.551-0.067,6.591-0.214l1.207-0.086l1.058,0.588
			c1.354,0.753,2.263,2.106,2.559,3.811c0.327,1.889-0.141,3.772-1.252,5.041l-0.861,0.981l-3.515,0.821
			c-0.631,0.137-0.997,0.277-1.181,0.361c-0.563,0.911-1.637,2.915-3.485,7.229c-1.022,2.438-2.411,5.69-3.958,9.306
			c-3.946,9.231-8.858,20.723-11.462,27.63l-0.377,1l-0.822,0.688C270.443,87.909,268.01,88.059,267.042,88.059z"/>
		<path fill="#464B50" d="M292.473,36.346c-1.719,0.375-2.842,0.973-3.364,1.646c-0.824,1.197-2.096,3.59-4.115,8.303
			c-3.666,8.752-11.819,27.378-15.485,37.102c-0.448,0.375-1.494,0.597-2.467,0.597c-0.824,0-1.497-0.222-2.021-0.597
			c-0.822-1.797-1.945-4.488-2.842-6.584l-3.142-7.105c-1.046-2.394-2.019-4.637-2.693-5.76c-0.673,1.272-1.57,3.068-2.542,5.16
			l-3.441,7.257c-1.122,2.394-1.943,4.564-3.142,7.032c-0.373,0.375-1.421,0.597-2.542,0.597c-0.822,0-1.346-0.222-2.019-0.597
			c-1.197-3.143-4.19-9.875-6.732-15.483l-12.192-26.406c-2.021-4.413-2.469-4.787-4.938-5.311l-1.87-0.375
			c-0.598-0.747-0.524-2.244,0.3-2.618c2.767,0.15,5.909,0.224,9.723,0.224c3.291,0,6.208-0.074,9.051-0.224
			c0.599,0.3,0.899,2.169,0.151,2.618l-1.348,0.226c-1.346,0.224-1.87,0.598-1.87,1.121c0,0.524,1.572,4.04,3.89,9.276l7.405,16.53
			c2.094,4.639,3.217,6.732,4.114,8.526c0.897-1.494,2.618-5.009,3.815-7.702l0.972-2.17c0.524-1.197,0.749-2.169,0.749-2.618
			c0-0.45-0.524-2.02-0.824-2.768l-7.181-15.783c-1.721-3.74-2.243-4.264-5.087-4.563l-0.748-0.076
			c-0.747-0.597-0.598-2.318,0.226-2.618c3.215,0.15,6.133,0.224,9.424,0.224c3.815,0,6.657-0.074,8.602-0.224
			c0.897,0.224,0.824,2.245,0.3,2.618l-1.272,0.3c-0.897,0.224-2.019,0.524-2.019,1.047c0,0.599,0.3,1.421,0.673,2.244l2.245,5.161
			c0.673,1.571,1.645,3.59,2.318,4.937c0.749-1.571,1.57-3.44,2.318-5.086l0.673-1.497c1.272-2.842,2.169-5.086,2.169-5.535
			c0-0.523-0.298-0.748-1.495-1.047l-2.693-0.524c-0.524-0.523-0.449-2.244,0.224-2.618c2.169,0.15,4.863,0.224,7.33,0.224
			c2.917,0,5.687-0.074,7.629-0.224c0.6,0.374,0.748,2.169,0.075,2.693l-2.094,0.448c-2.544,0.524-3.066,0.524-5.685,5.012
			c-1.796,3.067-3.666,6.807-4.638,8.752c-0.673,1.347-1.646,3.516-1.646,3.89c0,0.224,0.076,0.673,0.598,1.87l3.517,7.554
			c1.943,4.117,2.991,6.511,3.439,7.557c3.59-8.678,7.705-18.177,11.295-27.303c0.524-1.271,1.945-5.236,1.945-6.059
			c0-0.748-1.197-1.048-2.169-1.347l-1.645-0.45c-0.6-0.673-0.449-2.244,0.224-2.618c2.394,0.15,5.46,0.224,7.705,0.224
			c2.618,0,4.787-0.074,6.881-0.224c0.673,0.374,0.748,2.021,0.224,2.618L292.473,36.346z"/>
	</g>
	<g>
		<path fill="#464B50" d="M553.473,87.388c-3.92,0-7.109-3.188-7.109-7.109c0-3.962,3.189-7.184,7.109-7.184s7.11,3.222,7.11,7.184
			C560.583,84.266,557.461,87.388,553.473,87.388z"/>
		<path fill="#464B50" d="M550.429,80.278c0-1.767,1.354-3.118,3.044-3.118c1.805,0,3.045,1.502,3.045,3.118
			c0,1.73-1.24,3.044-3.045,3.044C551.969,83.322,550.429,82.12,550.429,80.278z"/>
		<path fill="#464B50" d="M557.183,86.288c-1.263-0.85-2.013-2.274-2.056-3.912c-0.044-1.649,0.627-3.118,1.84-4.031l0.484-0.361
			v-5.041c-0.916-0.877-1.438-2.132-1.439-3.481c-0.002-1.44,0.59-2.774,1.617-3.656l0.624-0.535
			c-0.679-1.057-1.066-2.339-1.066-3.746c0-3.817,3.025-6.809,6.886-6.809c3.753,0,6.694,2.958,6.694,6.733
			c0,1.229-0.313,2.37-0.865,3.354c0.002,0.002,0.756,1.146,0.756,1.146l-0.087,1.365c-0.065,1-0.104,2.534-0.104,4.208v6.466
			l0.471,0.35c1.223,0.913,1.897,2.386,1.854,4.037c-0.044,1.644-0.798,3.072-2.068,3.918l-1.131,0.754l-1.355-0.077
			c-1.249-0.071-2.639-0.105-4.277-0.105c-1.653,0-3.128,0.036-4.266,0.104l-1.369,0.083L557.183,86.288z"/>
		<path fill="#464B50" d="M566.402,78.437c0,2.632,0.148,2.971,1.389,3.084l0.715,0.075c0.302,0.225,0.302,1.088-0.038,1.314
			c-1.315-0.076-2.78-0.111-4.509-0.111c-1.693,0-3.271,0.035-4.512,0.111c-0.337-0.227-0.337-1.09-0.037-1.314l0.714-0.075
			c1.24-0.113,1.392-0.452,1.392-3.084v-5.675c0-1.503,0-1.955-0.715-2.405l-0.525-0.34c-0.265-0.225-0.265-0.901,0-1.127
			c1.766-0.488,4.434-1.503,5.562-2.18c0.3,0,0.526,0.113,0.676,0.338c-0.074,1.129-0.111,2.782-0.111,4.474V78.437z
			 M566.702,61.448c0,1.805-1.392,2.745-2.819,2.745c-1.652,0-2.631-1.127-2.631-2.67c0-1.654,1.315-2.744,2.82-2.744
			C565.649,58.78,566.702,59.945,566.702,61.448z"/>
		<path fill="#464B50" d="M578.691,87.388c-7.3,0-12.435-4.843-12.484-11.778c-0.023-3.413,1.164-6.426,3.437-8.713
			c2.35-2.365,5.729-3.724,9.274-3.724c7.234,0,12.484,5.075,12.484,12.069C591.402,82.394,586.177,87.388,578.691,87.388z"/>
		<path fill="#464B50" d="M570.272,75.582c-0.038-5.375,4.21-8.344,8.646-8.344c4.434,0,8.42,2.705,8.42,8.004
			c0,5.488-4.023,8.08-8.646,8.08C574.218,83.322,570.311,80.769,570.272,75.582z M575.685,74.754c0,3.948,1.241,6.842,3.42,6.842
			c2.144,0,2.858-2.445,2.82-5.827c-0.037-3.644-1.09-6.804-3.233-6.804C577.038,68.965,575.685,70.656,575.685,74.754z"/>
	</g>
	<g>
		<path fill="#F2F2F2" d="M399.464,70.382c0,3.513,0.298,5.907,1.271,7.105c0.973,1.271,2.32,1.87,7.78,1.87
			c6.806,0,8.901-0.225,13.313-8.902c0.6-0.748,2.32-0.448,2.843,0.449c-0.373,3.89-2.17,10.099-3.216,12.117
			c-3.965-0.149-11.146-0.223-17.279-0.223h-10.023c-3.441,0-7.181,0.073-11.819,0.223c-0.673-0.449-0.821-2.168-0.224-2.616
			l2.842-0.375c3.366-0.449,3.814-1.046,3.814-8.005V44.2c0-6.956-0.448-7.629-3.814-8.078l-2.169-0.3
			c-0.748-0.448-0.748-2.168,0.15-2.618c3.889,0.15,7.63,0.224,11.22,0.224c3.591,0,7.33-0.074,11.071-0.224
			c0.598,0.449,0.598,2.169,0,2.618l-1.945,0.3c-3.365,0.524-3.814,1.123-3.814,8.078V70.382z"/>
		<path fill="#F2F2F2" d="M451.144,64.247c-3.814,9.051-5.76,14.959-7.479,19.149c-0.6,0.375-1.496,0.597-2.618,0.597
			c-0.898,0-1.571-0.222-2.021-0.597c-0.823-2.019-2.094-5.984-3.142-8.529l-12.117-30.442c-2.842-7.181-3.217-7.331-5.611-7.929
			l-2.99-0.748c-0.6-0.823-0.375-2.169,0.3-2.543c3.814,0.075,6.281,0.224,10.172,0.224c3.441,0,6.656-0.074,11.22-0.224
			c0.6,0.449,0.523,1.871,0.075,2.543l-2.245,0.449c-1.346,0.299-1.869,0.748-1.869,1.422c0,0.597,1.196,3.739,2.991,8.228
			l6.583,16.831c1.048,2.767,1.945,5.01,2.47,6.284c0.597-1.274,1.794-3.814,2.691-6.062l2.844-7.03
			c1.87-4.713,5.085-13.09,5.984-15.633c0.521-1.421,0.746-2.245,0.746-2.693c0-0.524-0.598-0.823-2.394-1.271l-2.394-0.524
			c-0.598-0.599-0.598-2.169,0.3-2.543c3.517,0.15,6.359,0.224,9.201,0.224c2.542,0,4.787-0.074,6.957-0.224
			c0.597,0.3,0.673,2.095,0.148,2.543l-1.945,0.374c-2.094,0.374-3.366,0.897-4.339,2.468c-1.645,2.469-3.515,6.658-6.058,12.716
			L451.144,64.247z"/>
		<path fill="#F2F2F2" d="M484.5,52.877c0,2.094,0.073,2.244,2.094,2.244h5.161c3.89,0,4.787-0.523,5.535-4.114l0.375-1.871
			c0.522-0.598,2.394-0.598,2.767,0.076c-0.148,2.394-0.224,5.086-0.224,7.928c0,2.843,0.075,5.536,0.224,7.93
			c-0.373,0.671-2.244,0.747-2.767,0.076l-0.375-1.872c-0.748-3.59-1.646-4.189-5.535-4.189h-5.161
			c-2.021,0-2.094,0.076-2.094,2.319v8.902c0,3.441,0.298,5.835,1.197,7.105c0.972,1.346,2.394,1.945,7.854,1.945
			c6.508,0,9.051-0.225,13.165-8.678c0.598-0.821,2.469-0.524,2.767,0.373c-0.298,3.891-2.094,9.95-3.142,11.969
			c-3.964-0.149-11.145-0.223-17.277-0.223h-9.726c-3.591,0-7.255,0.073-12.865,0.223c-0.598-0.449-0.598-2.243,0-2.616l3.515-0.524
			c3.366-0.523,3.814-0.973,3.814-7.855v-27.9c0-6.807-0.448-7.255-3.814-7.929l-1.87-0.375c-0.673-0.448-0.597-2.168,0.151-2.618
			c3.515,0.15,7.181,0.224,10.77,0.224h15.858c4.787,0,9.051-0.074,10.023-0.224c0.075,1.197,0.599,6.583,0.972,11.595
			c-0.297,0.822-2.019,0.971-2.767,0.298c-0.823-2.618-1.869-4.862-2.842-5.91c-1.421-1.421-3.666-2.318-7.332-2.318h-5.984
			c-2.467,0-2.467,0.148-2.467,2.917V52.877z"/>
		<path fill="#F2F2F2" d="M526.454,83.993c-6.883,0-11.146-1.944-12.716-2.842c-1.422-1.644-2.395-7.03-2.395-12.117
			c0.524-0.973,2.243-1.046,2.843-0.225c1.496,4.863,6.508,11.744,12.865,11.744c5.535,0,8.078-3.814,8.078-7.556
			c0-6.058-5.685-9.65-10.172-11.893c-5.387-2.693-11.296-7.181-11.296-14.586c-0.075-8.452,6.509-14.288,17.355-14.288
			c2.467,0,5.535,0.3,8.526,1.197c0.973,0.3,1.646,0.45,2.542,0.6c0.6,1.645,1.348,5.684,1.348,10.696
			c-0.375,0.898-2.244,0.973-2.917,0.224c-1.272-3.814-4.487-9.275-9.874-9.275c-4.937,0-7.63,3.217-7.63,6.957
			c0,3.44,3.066,6.583,6.808,8.526l4.937,2.618c4.639,2.469,10.547,6.808,10.547,15.035
			C545.304,78.012,537.748,83.993,526.454,83.993z"/>
	</g>
	<text transform="matrix(1 0 0 1 548.5859 82.7979)" fill="#F2F2F2" font-family="'AGaramondPro-Bold'" font-size="37.583">.io</text>
	<g>
		<path fill="#464B50" d="M333.783,11.213c-26.892,0-48.692,21.801-48.692,48.693s21.801,48.692,48.692,48.692
			c26.893,0,48.689-21.801,48.689-48.692S360.676,11.213,333.783,11.213z M333.783,91.254c-17.316,0-31.352-14.032-31.352-31.348
			c0-17.312,14.035-31.349,31.352-31.349c17.313,0,31.353,14.036,31.353,31.349C365.136,77.222,351.097,91.254,333.783,91.254z"/>
		<path fill="#F2F2F2" d="M333.783,13.454c-25.653,0-46.453,20.796-46.453,46.453c0,25.655,20.8,46.452,46.453,46.452
			c25.658,0,46.456-20.797,46.456-46.452C380.239,34.25,359.441,13.454,333.783,13.454z M333.783,93.965
			c-18.81,0-34.061-15.249-34.061-34.059c0-18.808,15.251-34.06,34.061-34.06c18.814,0,34.063,15.252,34.063,34.06
			C367.847,78.716,352.598,93.965,333.783,93.965z"/>
	</g>
	<g>
		<path fill="#F2F2F2" d="M83.215,36.346c-1.719,0.375-2.842,0.973-3.366,1.646c-0.822,1.197-2.094,3.59-4.112,8.303
			c-3.666,8.752-11.819,27.378-15.485,37.102c-0.449,0.375-1.495,0.597-2.467,0.597c-0.824,0-1.497-0.222-2.021-0.597
			c-0.822-1.797-1.945-4.488-2.842-6.584l-3.142-7.105c-1.048-2.394-2.019-4.637-2.693-5.76c-0.673,1.272-1.57,3.068-2.542,5.16
			l-3.441,7.257c-1.122,2.394-1.945,4.564-3.14,7.032c-0.375,0.375-1.423,0.597-2.544,0.597c-0.822,0-1.346-0.222-2.019-0.597
			c-1.197-3.143-4.19-9.875-6.732-15.483L14.474,41.507c-2.021-4.413-2.469-4.787-4.938-5.311l-1.87-0.375
			c-0.597-0.747-0.524-2.244,0.3-2.618c2.767,0.15,5.909,0.224,9.724,0.224c3.291,0,6.208-0.074,9.05-0.224
			c0.6,0.3,0.899,2.169,0.151,2.618l-1.348,0.226c-1.346,0.224-1.87,0.598-1.87,1.121c0,0.524,1.572,4.04,3.89,9.276l7.405,16.53
			c2.094,4.639,3.217,6.732,4.115,8.526c0.897-1.494,2.618-5.009,3.814-7.702l0.973-2.17c0.524-1.197,0.749-2.169,0.749-2.618
			c0-0.45-0.524-2.02-0.824-2.768L36.614,40.46c-1.721-3.74-2.245-4.264-5.087-4.563l-0.747-0.076
			c-0.748-0.597-0.599-2.318,0.225-2.618c3.215,0.15,6.133,0.224,9.424,0.224c3.814,0,6.657-0.074,8.602-0.224
			c0.899,0.224,0.823,2.245,0.299,2.618l-1.272,0.3c-0.897,0.224-2.019,0.524-2.019,1.047c0,0.599,0.298,1.421,0.673,2.244
			l2.245,5.161c0.673,1.571,1.646,3.59,2.318,4.937c0.748-1.571,1.57-3.44,2.318-5.086l0.673-1.497
			c1.272-2.842,2.169-5.086,2.169-5.535c0-0.523-0.298-0.748-1.495-1.047l-2.693-0.524c-0.524-0.523-0.449-2.244,0.224-2.618
			c2.169,0.15,4.863,0.224,7.33,0.224c2.918,0,5.685-0.074,7.63-0.224c0.599,0.374,0.748,2.169,0.075,2.693l-2.094,0.448
			c-2.544,0.524-3.066,0.524-5.685,5.012c-1.796,3.067-3.666,6.807-4.638,8.752c-0.673,1.347-1.646,3.516-1.646,3.89
			c0,0.224,0.073,0.673,0.597,1.87l3.517,7.554c1.945,4.117,2.991,6.511,3.44,7.557c3.59-8.678,7.705-18.177,11.295-27.303
			c0.524-1.271,1.945-5.236,1.945-6.059c0-0.748-1.197-1.048-2.169-1.347l-1.646-0.45c-0.599-0.673-0.448-2.244,0.225-2.618
			c2.394,0.15,5.46,0.224,7.705,0.224c2.618,0,4.788-0.074,6.881-0.224c0.673,0.374,0.749,2.021,0.225,2.618L83.215,36.346z"/>
		<path fill="#F2F2F2" d="M100.857,52.877c0,2.094,0.074,2.244,2.094,2.244h5.16c3.89,0,4.788-0.523,5.536-4.114l0.375-1.871
			c0.524-0.598,2.394-0.598,2.767,0.076c-0.149,2.394-0.224,5.086-0.224,7.928c0,2.843,0.075,5.536,0.224,7.93
			c-0.373,0.671-2.243,0.747-2.767,0.076l-0.375-1.872c-0.748-3.59-1.646-4.189-5.536-4.189h-5.16c-2.021,0-2.094,0.076-2.094,2.319
			v8.902c0,3.441,0.298,5.835,1.197,7.105c0.972,1.346,2.394,1.945,7.854,1.945c6.508,0,9.051-0.225,13.165-8.678
			c0.598-0.821,2.469-0.524,2.767,0.373c-0.298,3.891-2.094,9.95-3.142,11.969c-3.964-0.149-11.145-0.223-17.277-0.223h-9.726
			c-3.59,0-7.254,0.073-12.865,0.223c-0.6-0.449-0.6-2.243,0-2.616l3.515-0.524c3.366-0.523,3.815-0.973,3.815-7.855v-27.9
			c0-6.807-0.449-7.255-3.815-7.929l-1.87-0.375c-0.673-0.448-0.597-2.168,0.149-2.618c3.517,0.15,7.181,0.224,10.773,0.224h15.856
			c4.787,0,9.051-0.074,10.023-0.224c0.075,1.197,0.599,6.583,0.972,11.595c-0.297,0.822-2.019,0.971-2.767,0.298
			c-0.824-2.618-1.87-4.862-2.842-5.91c-1.421-1.421-3.666-2.318-7.332-2.318h-5.984c-2.467,0-2.467,0.148-2.467,2.917V52.877z"/>
		<path fill="#F2F2F2" d="M134.51,45.546c0-7.479-0.149-8.302-3.291-8.752l-2.019-0.299c-0.748-0.374-0.748-2.244,0.149-2.618
			c5.609-0.374,11.444-0.674,18.55-0.674c6.359,0,11.819,0.973,14.662,2.693c4.339,2.543,6.583,6.283,6.583,11.07
			c0,6.658-4.49,9.5-7.929,11.221c-0.748,0.373-0.748,0.823-0.375,1.646c4.938,10.024,8.004,15.633,11.595,18.701
			c1.945,1.568,3.89,2.019,5.011,2.092c0.673,0.376,0.673,1.497,0.3,1.945c-1.197,0.524-3.59,0.675-5.911,0.675
			c-6.881,0-11.22-2.469-14.511-7.855c-2.394-3.964-4.114-7.63-5.835-11.593c-0.897-2.02-2.094-2.618-3.963-2.618
			c-2.618,0-2.767,0.148-2.767,1.646v9.199c0,6.883,0.449,7.407,3.815,8.005l2.019,0.375c0.524,0.373,0.524,2.167,0,2.616
			c-3.963-0.149-7.405-0.223-10.996-0.223c-3.739,0-7.032,0.073-10.92,0.223c-0.599-0.449-0.599-2.243,0-2.616l2.019-0.375
			c3.366-0.598,3.815-1.122,3.815-8.005V45.546z M144.759,55.046c0,2.618,0.225,2.842,4.637,2.842c2.693,0,4.263-0.673,5.685-2.094
			c1.272-1.272,2.693-3.666,2.693-8.079c0-6.732-3.964-11.07-9.799-11.07c-3.067,0-3.216,0.225-3.216,3.815V55.046z"/>
		<path fill="#F2F2F2" d="M194.867,52.877c0,2.094,0.074,2.244,2.094,2.244h5.16c3.89,0,4.788-0.523,5.536-4.114l0.375-1.871
			c0.522-0.598,2.394-0.598,2.767,0.076c-0.149,2.394-0.225,5.086-0.225,7.928c0,2.843,0.076,5.536,0.225,7.93
			c-0.374,0.671-2.245,0.747-2.767,0.076l-0.375-1.872c-0.748-3.59-1.646-4.189-5.536-4.189h-5.16c-2.021,0-2.094,0.076-2.094,2.319
			v8.902c0,3.441,0.298,5.835,1.197,7.105c0.973,1.346,2.394,1.945,7.854,1.945c6.508,0,9.051-0.225,13.165-8.678
			c0.597-0.821,2.469-0.524,2.767,0.373c-0.297,3.891-2.094,9.95-3.142,11.969c-3.964-0.149-11.145-0.223-17.278-0.223h-9.725
			c-3.591,0-7.254,0.073-12.866,0.223c-0.597-0.449-0.597-2.243,0-2.616l3.515-0.524c3.366-0.523,3.815-0.973,3.815-7.855v-27.9
			c0-6.807-0.449-7.255-3.815-7.929l-1.87-0.375c-0.673-0.448-0.597-2.168,0.151-2.618c3.515,0.15,7.181,0.224,10.77,0.224h15.858
			c4.787,0,9.051-0.074,10.023-0.224c0.076,1.197,0.6,6.583,0.973,11.595c-0.298,0.822-2.019,0.971-2.767,0.298
			c-0.824-2.618-1.87-4.862-2.842-5.91c-1.421-1.421-3.666-2.318-7.332-2.318h-5.984c-2.467,0-2.467,0.148-2.467,2.917V52.877z"/>
		<path fill="#F2F2F2" d="M292.473,36.346c-1.719,0.375-2.842,0.973-3.364,1.646c-0.824,1.197-2.096,3.59-4.115,8.303
			c-3.666,8.752-11.819,27.378-15.485,37.102c-0.448,0.375-1.494,0.597-2.467,0.597c-0.824,0-1.497-0.222-2.021-0.597
			c-0.822-1.797-1.945-4.488-2.842-6.584l-3.142-7.105c-1.046-2.394-2.019-4.637-2.693-5.76c-0.673,1.272-1.57,3.068-2.542,5.16
			l-3.441,7.257c-1.122,2.394-1.943,4.564-3.142,7.032c-0.373,0.375-1.421,0.597-2.542,0.597c-0.822,0-1.346-0.222-2.019-0.597
			c-1.197-3.143-4.19-9.875-6.732-15.483l-12.192-26.406c-2.021-4.413-2.469-4.787-4.938-5.311l-1.87-0.375
			c-0.598-0.747-0.524-2.244,0.3-2.618c2.767,0.15,5.909,0.224,9.723,0.224c3.291,0,6.208-0.074,9.051-0.224
			c0.599,0.3,0.899,2.169,0.151,2.618l-1.348,0.226c-1.346,0.224-1.87,0.598-1.87,1.121c0,0.524,1.572,4.04,3.89,9.276l7.405,16.53
			c2.094,4.639,3.217,6.732,4.114,8.526c0.897-1.494,2.618-5.009,3.815-7.702l0.972-2.17c0.524-1.197,0.749-2.169,0.749-2.618
			c0-0.45-0.524-2.02-0.824-2.768l-7.181-15.783c-1.721-3.74-2.243-4.264-5.087-4.563l-0.748-0.076
			c-0.747-0.597-0.598-2.318,0.226-2.618c3.215,0.15,6.133,0.224,9.424,0.224c3.815,0,6.657-0.074,8.602-0.224
			c0.897,0.224,0.824,2.245,0.3,2.618l-1.272,0.3c-0.897,0.224-2.019,0.524-2.019,1.047c0,0.599,0.3,1.421,0.673,2.244l2.245,5.161
			c0.673,1.571,1.645,3.59,2.318,4.937c0.749-1.571,1.57-3.44,2.318-5.086l0.673-1.497c1.272-2.842,2.169-5.086,2.169-5.535
			c0-0.523-0.298-0.748-1.495-1.047l-2.693-0.524c-0.524-0.523-0.449-2.244,0.224-2.618c2.169,0.15,4.863,0.224,7.33,0.224
			c2.917,0,5.687-0.074,7.629-0.224c0.6,0.374,0.748,2.169,0.075,2.693l-2.094,0.448c-2.544,0.524-3.066,0.524-5.685,5.012
			c-1.796,3.067-3.666,6.807-4.638,8.752c-0.673,1.347-1.646,3.516-1.646,3.89c0,0.224,0.076,0.673,0.598,1.87l3.517,7.554
			c1.943,4.117,2.991,6.511,3.439,7.557c3.59-8.678,7.705-18.177,11.295-27.303c0.524-1.271,1.945-5.236,1.945-6.059
			c0-0.748-1.197-1.048-2.169-1.347l-1.645-0.45c-0.6-0.673-0.449-2.244,0.224-2.618c2.394,0.15,5.46,0.224,7.705,0.224
			c2.618,0,4.787-0.074,6.881-0.224c0.673,0.374,0.748,2.021,0.224,2.618L292.473,36.346z"/>
	</g>
	<g>
		<circle fill="#1B1464" cx="333.783" cy="58.78" r="27.255"/>
		<linearGradient id="SVGID_1_" gradientUnits="userSpaceOnUse" x1="333.7832" y1="84.2559" x2="333.7832" y2="68.6953">
			<stop  offset="0" style="stop-color:#FFFFFF"/>
			<stop  offset="1" style="stop-color:#1B1464"/>
		</linearGradient>
		<path opacity="0.7" fill="url(#SVGID_1_)" d="M357.256,68.695c-1.288,3.048-3.154,5.793-5.46,8.098
			c-2.305,2.306-5.05,4.172-8.099,5.46c-3.046,1.288-6.396,2.003-9.914,2.003c-3.519,0-6.869-0.715-9.918-2.003
			c-3.046-1.288-5.791-3.154-8.098-5.46c-2.304-2.305-4.168-5.05-5.458-8.098"/>
		<linearGradient id="SVGID_2_" gradientUnits="userSpaceOnUse" x1="333.7832" y1="33.3052" x2="333.7832" y2="58.7788">
			<stop  offset="0" style="stop-color:#FFFFFF"/>
			<stop  offset="1" style="stop-color:#1B1464"/>
		</linearGradient>
		<path opacity="0.7" fill="url(#SVGID_2_)" d="M308.309,58.779c0-3.517,0.711-6.867,2.001-9.915
			c1.29-3.047,3.154-5.792,5.458-8.097c2.307-2.305,5.052-4.171,8.098-5.46c3.049-1.289,6.399-2.001,9.918-2.001
			c3.518,0,6.868,0.712,9.914,2.001c3.049,1.29,5.794,3.155,8.099,5.46c2.306,2.304,4.172,5.049,5.46,8.097
			c1.288,3.048,2.003,6.398,2.003,9.915"/>
		<path fill="#CCCCCC" d="M345.69,38.743c2.078,3.489,3.158,7.553,3.295,11.907c0.052,1.684-2.08,6.856-2.755,8.645
			c-1.705,4.513-3.585,5.213-7.665,8.262c-3.604,2.691-6.977,6.167-11.767,6.398c-0.381,0.019-0.762,0.028-1.145,0.028
			c-4.356,0-8.42-1.217-11.909-3.295c4.069,6.832,11.508,11.425,20.038,11.425c12.884,0,23.332-10.448,23.332-23.333
			C357.115,50.25,352.522,42.812,345.69,38.743z"/>
		<path fill="#666666" d="M352.419,69.084c-3.637,6.55-10.627,10.995-18.636,10.995c-4.912,0-9.517-1.643-13.206-4.584
			c1.665,0.343,3.368,0.52,5.077,0.52c0.419,0,0.831-0.012,1.246-0.031c4.573-0.221,7.98-2.93,10.985-5.321
			c0.632-0.503,1.259-1.003,1.897-1.479c0,0,1.211,0.658,2.172,0.896c0.959,0.242,1.199-0.187,2.038-0.238
			c0.84-0.056,1.32,0.959,2.761,0.959c1.438,0,1.678-1.574,2.517-2.105C350.112,68.163,352.419,69.084,352.419,69.084z"/>
		
			<ellipse transform="matrix(0.9582 -0.2861 0.2861 0.9582 -8.2078 100.3879)" fill="#666666" stroke="#CCCCCC" stroke-width="0.5" stroke-miterlimit="10" cx="339.427" cy="78.281" rx="3.017" ry="1.655"/>
		
			<ellipse transform="matrix(0.8994 -0.4372 0.4372 0.8994 1.9561 157.5542)" fill="#666666" stroke="#CCCCCC" stroke-width="0.5" stroke-miterlimit="10" cx="343.225" cy="74.528" rx="1.739" ry="0.88"/>
	</g>
</g>
</svg>
