<?xml version="1.0" encoding="utf-8"?>
<!-- Generator: Adobe Illustrator 16.0.0, SVG Export Plug-In . SVG Version: 6.00 Build 0)  -->
<!DOCTYPE svg PUBLIC "-//W3C//DTD SVG 1.1//EN" "http://www.w3.org/Graphics/SVG/1.1/DTD/svg11.dtd">
<svg version="1.1" id="Layer_1" xmlns="http://www.w3.org/2000/svg" xmlns:xlink="http://www.w3.org/1999/xlink" x="0px" y="0px"
	 width="40px" height="40px" viewBox="0 0 40 40" enable-background="new 0 0 40 40" xml:space="preserve">
<g>
	<path d="M17.519,14.238l4.129,0.726c0.473,0.083,0.855-0.234,0.855-0.705v-0.585c0-0.473-0.383-0.923-0.855-1.007l-4.129-0.723
		c-0.471-0.083-0.854,0.234-0.854,0.706v0.585C16.665,13.708,17.047,14.158,17.519,14.238z"/>
	<path d="M17.519,11.543l4.129,0.726c0.473,0.081,0.855-0.234,0.855-0.708v-0.585c0-0.473-0.383-0.924-0.855-1.004l-4.129-0.726
		c-0.471-0.081-0.854,0.231-0.854,0.705v0.588C16.665,11.01,17.047,11.46,17.519,11.543z"/>
	<path d="M17.519,8.845l4.129,0.726c0.473,0.081,0.855-0.234,0.855-0.708V8.278c0-0.471-0.383-0.921-0.855-1.004l-4.129-0.723
		c-0.471-0.083-0.854,0.231-0.854,0.702v0.588C16.665,8.315,17.047,8.762,17.519,8.845z"/>
	<path d="M21.907,19.688c-0.361-0.426-0.999-0.481-1.426-0.119c-0.426,0.361-0.479,1.002-0.117,1.428
		c1.829,2.16,3.806,5.104,3.806,6.087c0,2.337-1.835,4.171-4.17,4.171c-2.297,0-4.171-1.873-4.171-4.171
		c0-0.757,1.34-2.863,2.315-4.403c1.491-2.345,2.396-3.848,2.451-4.959c0.006-0.086-0.005-0.169-0.023-0.25l1.075,0.19
		c0.473,0.08,0.855-0.232,0.855-0.706v-0.588c0-0.471-0.383-0.92-0.855-1.004l-4.129-0.726c-0.471-0.081-0.854,0.234-0.854,0.706
		v0.587c0,0.474,0.382,0.921,0.854,1.004l1.207,0.211c-0.086,0.141-0.146,0.302-0.154,0.476c-0.031,0.656-1.249,2.573-2.136,3.974
		c-1.636,2.578-2.63,4.232-2.63,5.488c0,3.416,2.779,6.195,6.195,6.195c3.472,0,6.194-2.722,6.194-6.195
		C26.194,26.695,25.986,24.505,21.907,19.688z"/>
	<path d="M18.572,0v5.721c0,0.562,0.453,1.014,1.013,1.014c0.559,0,1.011-0.452,1.011-1.014V0H18.572z"/>
</g>
</svg>
