<?xml version="1.0" encoding="utf-8"?>
<!-- Generator: Adobe Illustrator 16.0.0, SVG Export Plug-In . SVG Version: 6.00 Build 0)  -->
<!DOCTYPE svg PUBLIC "-//W3C//DTD SVG 1.1//EN" "http://www.w3.org/Graphics/SVG/1.1/DTD/svg11.dtd">
<svg version="1.1" id="Layer_1" xmlns="http://www.w3.org/2000/svg" xmlns:xlink="http://www.w3.org/1999/xlink" x="0px" y="0px"
	 width="120px" height="120px" viewBox="0 0 120 120" enable-background="new 0 0 120 120" xml:space="preserve">
<g>
	<path d="M93.592,66.525c-0.562,0-0.752-0.037-0.752-0.037l-1.635-0.319l-0.082-1.683l0.25-22.655l1.965-0.014
		c0,0,2.514-0.017,4.474-0.017c1.013,0,1.883,0.005,2.212,0.019c1.869,0.074,3.207,1.395,3.572,1.797
		c0.802,0.879,2.256,4.669,2.385,7.147c0.121,2.335-0.496,8.275-1.826,10.588c-1.125,1.959-2.361,3.184-4.133,4.097
		c-1.154,0.595-3.05,0.951-5.635,1.059C94.047,66.521,93.787,66.525,93.592,66.525z"/>
	<path fill="#D3AF8E" d="M93.352,43.817c0,0,5.64-0.038,6.592,0c0.953,0.038,1.791,0.724,2.172,1.144
		c0.382,0.418,1.754,3.695,1.867,5.906c0.115,2.21-0.532,7.697-1.562,9.488s-2.058,2.667-3.315,3.314
		c-1.258,0.648-3.887,0.801-4.801,0.839c-0.915,0.038-1.182,0-1.182,0L93.352,43.817z"/>
	<path d="M62.136,95.901c-0.949,0-1.913-0.035-2.865-0.104c-9.592-0.694-18.37-4.785-24.716-11.519
		c-6.39-6.782-9.554-15.425-8.908-24.336l0.355-12.23C26,38.836,29.78,30.444,36.644,24.142c6.815-6.257,15.865-9.703,25.483-9.703
		c9.617,0,18.668,3.446,25.483,9.703c6.863,6.303,10.643,14.694,10.643,23.63l-0.538,17.307c-0.65,8.994-5.025,17.091-12.326,22.881
		C78.932,93.08,70.674,95.901,62.136,95.901z"/>
	<path fill="#D3AF8E" d="M95.715,65.016c-0.624,8.629-5,16.166-11.568,21.376s-15.332,8.092-24.731,7.411
		c-9.398-0.68-17.655-4.794-23.405-10.896c-5.75-6.102-8.994-14.19-8.369-22.819L28,47.771c0-8.652,3.82-16.485,9.996-22.156
		c6.175-5.67,14.708-9.177,24.131-9.177c9.424,0,17.955,3.507,24.131,9.177c6.176,5.671,9.995,13.504,9.995,22.156L95.715,65.016z"
		/>
	<path d="M30.248,69.943c-1.587-0.202-9.632-1.273-12.143-2.53c-3.029-1.513-5.384-4.799-5.6-7.812
		c-0.185-2.591-0.335-7.452,0.011-10.225c0.55-4.406,5.427-6.683,6.909-7.275c2.699-1.079,10.074-1.73,10.906-1.802l2.169-0.185
		v30.114L30.248,69.943z"/>
	<path fill="#D3AF8E" d="M30.5,67.959c0,0-9.167-1.166-11.5-2.334c-2.333-1.166-4.333-3.832-4.5-6.166s-0.333-7.166,0-9.834
		c0.333-2.666,3.167-4.666,5.667-5.666S30.5,42.293,30.5,42.293V67.959z"/>
	<path fill="#D3AF8E" d="M93.352,43.817c0,0,5.64-0.038,6.592,0c0.953,0.038,1.791,0.724,2.172,1.144
		c0.382,0.418,1.754,3.695,1.867,5.906c0.115,2.21-0.532,7.697-1.562,9.488s-2.058,2.667-3.315,3.314
		c-1.258,0.648-3.887,0.801-4.801,0.839c-0.915,0.038-1.182,0-1.182,0L93.352,43.817z"/>
	<path d="M94.762,49.076c0,0,2.058-0.839,3.201-0.877c1.143-0.038,2.896,0.438,2.896,0.438s-0.915,0.554-0.952,1.011
		c-0.039,0.457-0.076,2.82-0.191,3.506c-0.113,0.686-0.893,1.562-1.486,2.017c-0.592,0.455-1.066,1.451-1.143,2.175
		s-2.134,1.943-2.134,1.943L94.762,49.076z"/>
	<path fill="#D3AF8E" d="M95.715,65.016c-0.624,8.629-5,16.166-11.568,21.376s-15.332,8.092-24.731,7.411
		c-9.398-0.68-17.655-4.794-23.405-10.896c-5.75-6.102-8.994-14.19-8.369-22.819L28,47.771c0-8.652,3.82-16.485,9.996-22.156
		c6.175-5.67,14.708-9.177,24.131-9.177c9.424,0,17.955,3.507,24.131,9.177c6.176,5.671,9.995,13.504,9.995,22.156L95.715,65.016z"
		/>
	<path fill="#C8A687" d="M83.328,74.156c-5.402,3.748-12.336,5.812-19.525,5.812c-0.805,0-1.623-0.026-2.432-0.078
		c-8.089-0.512-15.47-3.51-20.783-8.44c-5.224-4.849-7.813-10.996-7.291-17.31l0.009-0.15l0.361-10.875
		c0-2.697,0.566-5.328,1.645-7.809C33.151,39.12,32,43.368,32,47.771L31.64,60.204l-0.009,0.173
		c-0.523,7.216,2.066,14.243,7.291,19.787c5.312,5.637,12.693,9.063,20.783,9.648c0.808,0.059,1.625,0.089,2.431,0.089
		c7.189,0,14.123-2.359,19.524-6.644c5.947-4.716,9.518-11.267,10.06-18.453l0.015-0.463C90.057,68.1,87.2,71.471,83.328,74.156z"/>
	<path fill="#D3AF8E" d="M30.5,67.959c0,0-9.167-1.166-11.5-2.334c-2.333-1.166-4.333-3.832-4.5-6.166s-0.333-7.166,0-9.834
		c0.333-2.666,3.167-4.666,5.667-5.666S30.5,42.293,30.5,42.293V67.959z"/>
	<path d="M29.784,53.131c0,0-0.449-1.646-1.646-2.318s-2.505-1.196-4.038-1.01c-1.533,0.188-2.319,0.637-3.553,1.271
		c-1.234,0.636-1.683,1.271-1.832,2.057s-0.374,2.094,0,2.879s0.636,0.861,1.047,0.562s0.187-1.271,0.187-1.757
		s1.318-2.133,2.454-2.356s2.522-0.204,2.931,0c0.598,0.3,1.009,1.309,1.009,1.309s-0.464,0.858-0.86,1.358s-0.86,1.371-0.785,2.008
		c0.075,0.635,0.561,0.71,1.421,1.943c0.86,1.234,1.445,2.693,1.445,2.693s-0.174-2.506-0.847-3.441
		c-0.673-0.934-0.822-1.532-0.411-2.28S29.784,53.131,29.784,53.131z"/>
	<path d="M88.843,56.383c0,0.419-0.339,0.758-0.758,0.758H77.438c-0.419,0-0.758-0.339-0.758-0.758l0,0
		c0-0.418,0.339-0.758,0.758-0.758h10.647C88.504,55.625,88.843,55.965,88.843,56.383L88.843,56.383z"/>
	<path d="M70.989,56.654c0,0.568-0.423,1.029-0.943,1.029H56.789c-0.521,0-0.943-0.461-0.943-1.029l0,0
		c0-0.568,0.422-1.029,0.943-1.029h13.257C70.566,55.625,70.989,56.086,70.989,56.654L70.989,56.654z"/>
	<path d="M67.436,59.219c-0.163,1.691-2.049,2.891-4.213,2.682s-3.784-1.748-3.621-3.438c0.164-1.69,2.049-2.891,4.213-2.682
		c1.082,0.104,3.69,0.737,4.346,1.359S67.518,58.374,67.436,59.219z"/>
	<path d="M85.512,58.331c0.104,1.392-1.256,2.626-3.037,2.759c-1.781,0.131-3.308-0.889-3.411-2.28
		c-0.046-0.617-0.444-1.954-0.005-2.427c0.551-0.593,2.051-0.258,3.042-0.331C83.883,55.92,85.409,56.939,85.512,58.331z"/>
	<circle fill="#FFFFFF" cx="65.481" cy="58.438" r="0.478"/>
	<circle fill="#FFFFFF" cx="83.948" cy="58.061" r="0.376"/>
	<path d="M81.75,73.547c-2.691-2.088-5.07-3.291-5.07-3.291s-1.543,1.928-3.68,2.041c-1.733,0.092-3.875-2.041-3.875-2.041
		S68,71.797,67.447,72.297s-2.072,1.625-4.572,2.5s-6.625,4.5-7.03,9.5s2.19,8.496,4.738,10.375
		c2.069,1.525,9.28,10.875,10.406,10.875s3.958-4.512,5.69-7.125c1.729-2.607,3.82-4.375,5.607-6.225
		c1.788-1.849,3.23-8.025,3.23-12.4S84.441,75.635,81.75,73.547z M82.761,85.756c-0.511,1.416-3.342,3.416-4.427,3.416
		c-0.562,0-1.572-0.471-2.416-0.925c3.66-0.345,5.076-1.314,5.374-3.339c0.321-2.188,0.113-1.997,0.11-2.044
		c-0.016-0.275-0.164-0.49-0.433-0.481c-0.275,0.017-0.36,0.117-0.345,0.393c0,0.011-0.018-0.082-0.322,1.987
		c-0.153,1.044-0.663,1.812-2.505,1.946c-1.245,0.09-2.064-1.167-4.798-1.167c-0.846,0-4.506,0.726-6.092,0.858
		c-2.23,0.188-3.164,0.2-3.434-0.382c-0.219-0.475-0.385-1.626-0.236-2.567c0.043-0.272-0.144-0.528-0.416-0.571
		c-0.271-0.044-0.529,0.144-0.572,0.415c-0.067,0.43-0.383,2.613,0.04,3.53c0.373,0.808,1.507,1.321,5.642,1.503
		c-0.54,0.623-1.559,1.425-3.432,1.928c-3.416,0.916-3.833-1.479-4.25-3.709s0.567-5.888,1.658-7.256
		C63,77.922,65.416,77.422,67,78.172s6,1.119,6,1.119c1.75,0,5.416-2.453,6.416-2.619s3.334-0.215,4,1.31
		C84.084,79.506,83.271,84.339,82.761,85.756z"/>
</g>
<g>
	<circle cx="36.758" cy="89.901" r="18.247"/>
	<linearGradient id="SVGID_1_" gradientUnits="userSpaceOnUse" x1="36.7583" y1="73.9961" x2="36.7583" y2="105.8066">
		<stop  offset="0" style="stop-color:#808080"/>
		<stop  offset="1" style="stop-color:#000000"/>
	</linearGradient>
	<circle fill="url(#SVGID_1_)" cx="36.758" cy="89.901" r="15.906"/>
	<linearGradient id="SVGID_2_" gradientUnits="userSpaceOnUse" x1="36.7583" y1="73.9961" x2="36.7583" y2="105.8066">
		<stop  offset="0" style="stop-color:#808080"/>
		<stop  offset="1" style="stop-color:#000000"/>
	</linearGradient>
	<circle fill="url(#SVGID_2_)" cx="36.758" cy="89.901" r="15.906"/>
	<linearGradient id="SVGID_3_" gradientUnits="userSpaceOnUse" x1="36.4067" y1="75.8906" x2="36.4067" y2="89.1904">
		<stop  offset="0" style="stop-color:#F2F2F2"/>
		<stop  offset="1" style="stop-color:#999999"/>
	</linearGradient>
	<path fill="url(#SVGID_3_)" d="M24.377,85.056c-1.005-1.518,1.209-3.787,2.479-5.056c1.27-1.27,2.779-2.296,4.455-3.007
		c1.676-0.709,3.517-1.103,5.448-1.103c1.932,0,3.771,0.394,5.447,1.103c1.676,0.711,3.186,1.737,4.454,3.007
		c1.27,1.269,2.582,3.381,1.79,5.02C45.696,90.712,27.941,90.437,24.377,85.056z"/>
	
		<ellipse transform="matrix(0.9591 -0.283 0.283 0.9591 -22.797 15.7492)" fill="#FFFFFF" cx="43.114" cy="86.781" rx="6.686" ry="6.93"/>
	<g>
		<path d="M42.868,86.842c-0.355-0.023-0.643-0.126-0.864-0.306c-0.218-0.183-0.376-0.41-0.471-0.683
			c-0.161-0.467-0.131-0.91,0.091-1.327c0.221-0.418,0.631-0.73,1.234-0.938c0.595-0.205,1.109-0.212,1.545-0.021
			c0.434,0.19,0.73,0.52,0.893,0.987c0.1,0.29,0.113,0.576,0.041,0.854c-0.073,0.279-0.225,0.524-0.457,0.738
			c0.395,0.021,0.73,0.133,1.004,0.339c0.273,0.205,0.471,0.484,0.591,0.833c0.199,0.579,0.178,1.113-0.067,1.603
			c-0.244,0.488-0.672,0.84-1.285,1.051c-0.57,0.197-1.097,0.21-1.578,0.043c-0.571-0.199-0.961-0.606-1.174-1.223
			c-0.117-0.34-0.139-0.68-0.069-1.021C42.371,87.431,42.56,87.121,42.868,86.842z M43.514,88.27
			c0.114,0.331,0.288,0.559,0.521,0.687c0.234,0.126,0.478,0.146,0.731,0.06c0.249-0.085,0.423-0.246,0.523-0.48
			s0.093-0.52-0.023-0.854c-0.101-0.294-0.265-0.502-0.491-0.623c-0.228-0.121-0.468-0.139-0.721-0.051
			c-0.293,0.103-0.478,0.277-0.552,0.53C43.43,87.789,43.433,88.034,43.514,88.27z M42.7,85.547
			c0.082,0.239,0.215,0.402,0.396,0.489c0.183,0.088,0.386,0.092,0.611,0.015c0.228-0.078,0.387-0.209,0.478-0.392
			c0.09-0.183,0.094-0.394,0.01-0.633c-0.076-0.225-0.207-0.382-0.389-0.471s-0.384-0.095-0.607-0.02
			c-0.23,0.081-0.391,0.213-0.48,0.396C42.627,85.118,42.623,85.32,42.7,85.547z"/>
	</g>
</g>
</svg>
