<?xml version="1.0" encoding="utf-8"?>
<!-- Generator: Adobe Illustrator 16.0.0, SVG Export Plug-In . SVG Version: 6.00 Build 0)  -->
<!DOCTYPE svg PUBLIC "-//W3C//DTD SVG 1.1//EN" "http://www.w3.org/Graphics/SVG/1.1/DTD/svg11.dtd">
<svg version="1.1" id="Layer_1" xmlns="http://www.w3.org/2000/svg" xmlns:xlink="http://www.w3.org/1999/xlink" x="0px" y="0px"
	 width="120px" height="120px" viewBox="0 0 120 120" enable-background="new 0 0 120 120" xml:space="preserve">
<path d="M67.607,102.125c-2.521,0-5.554-1.771-7.399-3.037c-7.842-0.604-15.084-3.453-21.008-8.256
	c-1.36,0.044-2.378,0.093-2.969,0.144c-0.552,0.048-0.958,0.247-1.752,0.658c-0.805,0.417-1.808,0.937-3.296,1.345
	c-2.844,0.78-5.335,1.008-5.44,1.018l-3.706,0.33l1.77-3.273c0.007-0.014,0.855-1.61,1.466-3.859c0,0-1.713,0.509-2.284,0.678
	c-0.883,0.263-3.534,1.05-3.534,1.05s2.61-2.291,3.991-4.542c0,0,0.385-0.355,0.868-1.098c0.514-0.789,1.358-2.867,1.541-4.818
	c0.023-0.246,0.043-0.476,0.061-0.688l-0.419,0.06h-0.141c-1.956,0-4.851-0.384-4.973-0.4L14.125,76.6l5.595-2.921
	c0.98-0.516,3.771-2.292,4.871-4.274c0.553-0.997,1.281-2.545,2.113-4.49c0.01-0.604,0.033-1.152,0.07-1.665l0.355-12.23
	c-0.001-1.697,0.156-3.476,0.466-5.253c-0.335-0.768-0.789-1.661-1.23-2.53c-0.51-1.006-1.038-2.045-1.404-2.936
	c-1.048-2.549-2.589-8.08-3.232-11.605c-0.739-4.053,0.755-6.453,0.928-6.713c1.137-1.736,4.346-2.103,6.836-2.103
	c0.816,0,1.607,0.047,2.289,0.137c2.168,0.286,8.007,2.044,11.442,3.325c5.945-3.666,12.847-5.598,20.031-5.598
	c9.618,0,18.668,3.446,25.483,9.704c0.218,0.2,0.432,0.402,0.643,0.608c1.307-0.234,2.381-0.507,3.144-0.798
	c1.68-0.644,3.011-1.948,3.892-2.812c0.296-0.29,0.549-0.535,0.758-0.714c0.689-0.591,1.782-1.295,3.075-1.295
	c1.252,0,2.339,0.676,2.982,1.856c1.016,1.861,1.655,6.836,0.958,10.46c-0.537,2.79-2.773,8.123-5.089,12.188
	c0.187,1.385,0.281,2.773,0.281,4.136c0.036,0.802,0.094,2.976-0.175,4.002c-0.224,0.855-0.755,1.877-1.37,3.06
	c-0.458,0.882-1.312,2.524-1.356,3.05c0.006,0.406,0.554,1.658,0.917,2.488c0.603,1.375,1.225,2.797,1.374,4.127
	c0.235,2.084,0.299,3.684,0.2,5.035c-0.045,0.613-0.062,1.316-0.083,2.08c-0.036,1.352-0.076,2.882-0.258,4.498
	c-0.654,5.837-1.899,10.452-2.842,12.437c-0.728,1.53-2.228,4.054-4.284,4.261c-0.173,0.031-0.408,0.061-0.686,0.061
	c-0.345,0-0.681-0.044-1.003-0.129c-0.502,0.736-1.043,1.4-1.592,1.951c-1.901,1.9-5.521,2.896-8.113,2.896
	c-0.909,0-1.681-0.125-2.295-0.371c-0.475-0.189-1.369-0.645-4.026-2.395C71.95,100.311,69.93,102.125,67.607,102.125z"/>
<path fill="#D7D2C3" d="M101.475,25.25c-0.75-1.375-2.125-0.75-3,0s-2.625,2.875-5.236,3.875c-1.325,0.507-3.109,0.853-4.547,1.071
	c-0.424-0.435-0.857-0.863-1.307-1.275c-6.176-5.67-14.707-9.177-24.131-9.177c-7.389,0-14.224,2.163-19.81,5.828
	C40.27,24.29,33.606,22.274,31.52,22c-2.415-0.318-6.471-0.02-7.197,1.089c0,0-1.242,1.871-0.626,5.248
	c0.616,3.377,2.116,8.777,3.114,11.203c0.714,1.736,2.155,4.206,2.858,6.007c-0.348,1.796-0.541,3.642-0.541,5.53l-0.359,12.315
	c-0.047,0.65-0.065,1.296-0.069,1.939c-0.734,1.734-1.611,3.693-2.359,5.043c-1.643,2.961-5.694,5.076-5.694,5.076
	s2.864,0.383,4.709,0.383l2.702-0.383c0,0,0,0.918-0.212,3.197c-0.212,2.278-1.166,4.664-1.855,5.724s-1.255,1.536-1.255,1.536
	l2.845-1.377c0,0,0.424,0-0.265,2.756s-1.749,4.717-1.749,4.717s2.385-0.213,5.088-0.954s3.551-1.907,5.406-2.067
	c0.895-0.076,2.456-0.133,3.834-0.172c5.501,4.653,12.659,7.719,20.648,8.297c0.116,0.009,0.231,0.01,0.348,0.018
	c2.457,1.758,4.997,3,6.717,3c1.768,0,3.606-1.934,5.442-4.254c0.221-0.062,0.437-0.135,0.655-0.2
	c2.022,1.357,4.092,2.691,4.854,2.996c1.666,0.667,6.334-0.167,8.25-2.083c0.921-0.922,1.741-2.151,2.35-3.347
	c0.812,1.245,2.076,0.892,2.076,0.892c0.773,0,1.932-1.416,2.747-3.133s2.02-6.083,2.661-11.801c0.276-2.463,0.21-4.805,0.333-6.502
	c0.106-1.458-0.021-3.148-0.192-4.665c-0.238-2.118-2.366-5.316-2.302-6.925c0.062-1.577,2.391-5.005,2.79-6.532
	c0.222-0.846,0.109-3.495,0.109-3.495c0-1.542-0.127-3.055-0.36-4.537c2.386-4.037,4.705-9.571,5.204-12.165
	C102.85,31.125,102.225,26.625,101.475,25.25z"/>
<path fill="#D7D2C3" d="M101.475,25.25c-0.75-1.375-2.125-0.75-3,0s-2.625,2.875-5.236,3.875c-1.325,0.507-3.109,0.853-4.547,1.071
	c-0.424-0.435-0.857-0.863-1.307-1.275c-6.176-5.67-14.707-9.177-24.131-9.177c-7.389,0-14.224,2.163-19.81,5.828
	C40.27,24.29,33.606,22.274,31.52,22c-2.415-0.318-6.471-0.02-7.197,1.089c0,0-1.242,1.871-0.626,5.248
	c0.616,3.377,2.116,8.777,3.114,11.203c0.714,1.736,2.155,4.206,2.858,6.007c-0.348,1.796-0.541,3.642-0.541,5.53l-0.359,12.315
	c-0.047,0.65-0.065,1.296-0.069,1.939c-0.734,1.734-1.611,3.693-2.359,5.043c-1.643,2.961-5.694,5.076-5.694,5.076
	s2.864,0.383,4.709,0.383l2.702-0.383c0,0,0,0.918-0.212,3.197c-0.212,2.278-1.166,4.664-1.855,5.724s-1.255,1.536-1.255,1.536
	l2.845-1.377c0,0,0.424,0-0.265,2.756s-1.749,4.717-1.749,4.717s2.385-0.213,5.088-0.954s3.551-1.907,5.406-2.067
	c0.895-0.076,2.456-0.133,3.834-0.172c5.501,4.653,12.659,7.719,20.648,8.297c0.116,0.009,0.231,0.01,0.348,0.018
	c2.457,1.758,4.997,3,6.717,3c1.768,0,3.606-1.934,5.442-4.254c0.221-0.062,0.437-0.135,0.655-0.2
	c2.022,1.357,4.092,2.691,4.854,2.996c1.666,0.667,6.334-0.167,8.25-2.083c0.921-0.922,1.741-2.151,2.35-3.347
	c0.812,1.245,2.076,0.892,2.076,0.892c0.773,0,1.932-1.416,2.747-3.133s2.02-6.083,2.661-11.801c0.276-2.463,0.21-4.805,0.333-6.502
	c0.106-1.458-0.021-3.148-0.192-4.665c-0.238-2.118-2.366-5.316-2.302-6.925c0.062-1.577,2.391-5.005,2.79-6.532
	c0.222-0.846,0.109-3.495,0.109-3.495c0-1.542-0.127-3.055-0.36-4.537c2.386-4.037,4.705-9.571,5.204-12.165
	C102.85,31.125,102.225,26.625,101.475,25.25z"/>
<path fill="#413732" d="M94.481,61.104c-0.064,1.608,2.063,4.807,2.302,6.925c0,0-1.097-2.095-1.821-2.694s-2.963-1.789-2.963-1.789
	s0.47-0.547,0.917-0.952C93.365,62.186,94.481,61.104,94.481,61.104z"/>
<path fill="#413732" d="M87.976,32.328l1.016-0.154c2.064-0.313,3.734-0.711,4.962-1.181c2.456-0.94,4.213-2.662,5.262-3.69
	c0.22-0.215,0.406-0.4,0.562-0.534c0.041-0.036,0.081-0.067,0.119-0.097c0.419,1.371,0.869,4.705,0.365,7.325
	c-0.422,2.194-2.563,7.467-4.962,11.525l-0.366,0.619"/>
<path fill="#413732" d="M44.541,27.244c5.485-3.598,11.956-5.5,18.713-5.5c8.613,0,16.703,3.072,22.778,8.65
	c0.422,0.387,0.828,0.789,1.227,1.198l0.717,0.736c0,0,2.812,4.075,3.624,5.716s1.763,4.787,1.766,5.88s-2.049,3.145-4.236,4.786
	s-6.837,5.88-6.837,5.88s-5.91-6.381-8.142-8.221c-1.203-0.992-2.767-1.571-4.374-2.063c-7.397-2.267-14.91,0.84-16.778,6.938
	c-1.656,5.408,1.681,11.352,7.616,14.21l-3.185,4.37c-2.593,2.782-4.293,7.442-4.293,12.722c0,4.898,1.463,9.265,3.745,12.091
	v-0.003c-5.853-1.061-11.221-3.565-15.696-7.35l-0.583-0.493l-0.764,0.021c-1.839,0.051-3.168,0.111-3.949,0.178
	c-1.369,0.117-2.325,0.613-3.25,1.092c-0.705,0.365-1.433,0.742-2.515,1.039c-0.464,0.127-0.92,0.238-1.354,0.334
	c0.17-0.52,0.335-1.084,0.485-1.684c0.619-2.477,0.606-3.596-0.05-4.438l-0.325-0.417c0.457-1.251,0.827-2.697,0.956-4.083
	c0.215-2.306,0.221-3.279,0.221-3.383l-0.001-2.302l-3.729,0.526c0.669-0.695,1.289-1.477,1.762-2.33
	c0.664-1.197,1.489-2.958,2.452-5.234l0.156-0.367l0.002-0.4c0.003-0.6,0.02-1.201,0.063-1.808l0.364-12.401
	c0.001-1.75,0.17-3.482,0.505-5.208l0.11-0.568l-0.21-0.539c-0.408-1.045-1.014-2.24-1.6-3.395
	c-0.497-0.979-0.966-1.903-1.271-2.646c-0.947-2.303-2.404-7.553-2.997-10.801c-0.354-1.942,0.053-3.174,0.253-3.627
	c0.438-0.183,1.669-0.471,3.575-0.471c0.645,0,1.255,0.036,1.766,0.103c1.854,0.244,8.375,2.208,11.438,3.443l0.971,0.392
	L44.541,27.244z"/>
<path fill="#413732" d="M44.541,27.244c5.485-3.598,11.956-5.5,18.713-5.5c8.613,0,16.703,3.072,22.778,8.65
	c0.422,0.387,0.828,0.789,1.227,1.198l0.717,0.736c0,0,2.812,4.075,3.624,5.716s1.763,4.787,1.766,5.88s-2.049,3.145-4.236,4.786
	s-6.837,5.88-6.837,5.88s-5.91-6.381-8.142-8.221c-1.203-0.992-2.767-1.571-4.374-2.063c-7.397-2.267-14.91,0.84-16.778,6.938
	c-1.656,5.408,1.681,11.352,7.616,14.21l-3.185,4.37c-2.593,2.782-4.293,7.442-4.293,12.722c0,4.898,1.463,9.265,3.745,12.091
	v-0.003c-5.853-1.061-11.221-3.565-15.696-7.35l-0.583-0.493l-0.764,0.021c-1.839,0.051-3.168,0.111-3.949,0.178
	c-1.369,0.117-2.325,0.613-3.25,1.092c-0.705,0.365-1.433,0.742-2.515,1.039c-0.464,0.127-0.92,0.238-1.354,0.334
	c0.17-0.52,0.335-1.084,0.485-1.684c0.619-2.477,0.606-3.596-0.05-4.438l-0.325-0.417c0.457-1.251,0.827-2.697,0.956-4.083
	c0.215-2.306,0.221-3.279,0.221-3.383l-0.001-2.302l-3.729,0.526c0.669-0.695,1.289-1.477,1.762-2.33
	c0.664-1.197,1.489-2.958,2.452-5.234l0.156-0.367l0.002-0.4c0.003-0.6,0.02-1.201,0.063-1.808l0.364-12.401
	c0.001-1.75,0.17-3.482,0.505-5.208l0.11-0.568l-0.21-0.539c-0.408-1.045-1.014-2.24-1.6-3.395
	c-0.497-0.979-0.966-1.903-1.271-2.646c-0.947-2.303-2.404-7.553-2.997-10.801c-0.354-1.942,0.053-3.174,0.253-3.627
	c0.438-0.183,1.669-0.471,3.575-0.471c0.645,0,1.255,0.036,1.766,0.103c1.854,0.244,8.375,2.208,11.438,3.443l0.971,0.392
	L44.541,27.244z"/>
<path fill="#D7D2C3" d="M43.889,30.063l-1.941-0.783c-3.129-1.262-9.384-3.109-10.95-3.315c-0.426-0.056-0.947-0.086-1.505-0.086
	c-0.819,0-1.471,0.06-1.943,0.129c-0.042,0.401-0.04,0.938,0.082,1.61c0.563,3.084,1.989,8.235,2.879,10.399
	c0.274,0.666,0.723,1.55,1.205,2.502c0.608,1.197,1.236,2.435,1.68,3.573l0.421,1.079c0,0,0.389-5.425,0.389-7.846
	c0-1.801,0.897-2.078,1.502-2.985c0.512-0.769,5.331,0.65,5.927-0.895C42.359,31.568,43.889,30.063,43.889,30.063z"/>
<path d="M66.017,52.417c0,0,1.946,0.908,2.757,1.447c1.662,1.106,1.984,2.119,1.992,3.362c0.008,1.249-0.85,3.304-2.707,3.614
	c-1.857,0.31-2.382-0.68-2.898-1.712c-0.516-1.032-0.516-2.89,0-3.819c0.517-0.929,0.996-1.253,0.996-1.253L66.017,52.417z"/>
<path d="M92.722,51.903c0,0-1.445,0.723-2.478,1.652s-2.064,2.022-2.064,2.817s0.511,1.327,1.462,2.103
	c0.554,0.452,1.538,0.393,2.409,0c0.822-0.371,1.531-1.64,1.253-2.6c-0.087-0.299-0.853-1.848-1.162-2.157
	S92.722,51.903,92.722,51.903z"/>
<circle fill="#FFFFFF" cx="68.975" cy="56.658" r="0.478"/>
<circle fill="#FFFFFF" cx="91.599" cy="56.023" r="0.4"/>
<path d="M85.409,87.949c0.54,0.208,1.182,1.043,1.628,1.711c0.454,0.679,0.976,1.87,0.976,1.87c0.055,0.187,0.117,0.372,0.159,0.562
	c0.125,0.559,0.315,1.037,0.566,1.422c0.096,0.147,0.041,1.582,0.204,1.582c0.094,0,0.896-0.636,0.981-0.69
	c0.231-0.151-0.197-1.206-0.348-1.437c-0.186-0.285-0.33-0.653-0.428-1.094c-0.608-2.735-2.685-5.193-3.432-6.027
	c-0.688-0.769-0.872-1.497-0.882-1.537c-0.085-0.34-0.132-1.125-0.132-1.125c0.137-1.23,0.707-4.131,0.667-4.463
	c-0.033-0.275-1.186-0.502-1.455-0.469c-0.274,0.033-0.47,0.281-0.437,0.556c0.1,0.838,0.014,3.146,0.022,4.009
	c0.011,1.039-0.501,2.869-0.721,3.127c-0.332,0.389-2.029,1.547-4.966,4.482c-1.142,1.143-2.32,2.701-3.46,4.209
	c-2.237,2.96-4.874,3.787-6.878,3.787c-3.058,0-9.273-3.238-12.218-7.436c-1.852-2.639-2.179-7.033-0.923-12.373
	c0.063-0.27-0.103-0.539-0.372-0.602c-0.272-0.064-0.538,0.104-0.601,0.371c-0.937,3.978-1.509,9.492,1.077,13.178
	c2.861,4.08,9.499,9.062,13.167,9.062c2.502,0,5.806-1.719,8.3-5.02c1.119-1.48,2.263-3.486,3.416-4.516
	c3.504-3.122,4.244-3.168,4.633-3.18C84.748,87.887,85.142,87.847,85.409,87.949z"/>
<path d="M85.409,87.949c0.54,0.208,1.182,1.043,1.628,1.711c0.454,0.679,0.976,1.87,0.976,1.87c0.055,0.187,0.117,0.372,0.159,0.562
	c0.125,0.559,0.333,1.061,0.398,1.55c0.023,0.174-0.326,1.532-0.163,1.532c0.094,0,1.432-0.714,1.517-0.769
	c0.231-0.151-0.197-1.206-0.348-1.437c-0.186-0.285-0.33-0.653-0.428-1.094c-0.608-2.735-2.685-5.193-3.432-6.027
	c-0.688-0.769-0.872-1.497-0.882-1.537c-0.085-0.34-0.132-1.125-0.132-1.125c0.137-1.23,0.707-4.131,0.667-4.463
	c-0.033-0.275-1.186-0.502-1.455-0.469c-0.274,0.033-0.47,0.281-0.437,0.556c0.1,0.838,0.014,3.146,0.022,4.009
	c0.011,1.039-0.501,2.869-0.721,3.127c-0.332,0.389-2.029,1.547-4.966,4.482c-1.142,1.143-2.32,2.701-3.46,4.209
	c-2.237,2.96-4.874,3.787-6.878,3.787c-3.058,0-9.273-3.238-12.218-7.436c-1.852-2.639-2.179-7.033-0.923-12.373
	c0.063-0.27-0.103-0.539-0.372-0.602c-0.272-0.064-0.538,0.104-0.601,0.371c-0.937,3.978-1.509,9.492,1.077,13.178
	c2.861,4.08,6.429,9.729,13.167,9.062c2.49-0.246,5.806-1.719,8.3-5.02c1.119-1.48,2.263-3.486,3.416-4.516
	c3.504-3.122,4.244-3.168,4.633-3.18C84.748,87.887,85.142,87.847,85.409,87.949z"/>
<path d="M75.451,69.864c0,0,8.258,1.032,10.115,0.929c1.858-0.104,4.336-0.826,5.472-0.929s1.342-0.295,1.548,0.937
	c0.207,1.231-2.857,5.537-3.993,6.776s-2.511,3.539-3.956,3.539s-4.719-2.356-5.986-3.819s-4.129-3.717-4.541-5.471
	C73.695,70.07,75.451,69.864,75.451,69.864z"/>
</svg>
