<?xml version="1.0" encoding="utf-8"?>
<!-- Generator: Adobe Illustrator 16.0.0, SVG Export Plug-In . SVG Version: 6.00 Build 0)  -->
<!DOCTYPE svg PUBLIC "-//W3C//DTD SVG 1.1//EN" "http://www.w3.org/Graphics/SVG/1.1/DTD/svg11.dtd">
<svg version="1.1" id="Layer_1" xmlns="http://www.w3.org/2000/svg" xmlns:xlink="http://www.w3.org/1999/xlink" x="0px" y="0px"
	 width="120px" height="120px" viewBox="0 0 120 120" enable-background="new 0 0 120 120" xml:space="preserve">
<g>
	<path d="M93.699,70.525c-0.562,0-0.752-0.037-0.752-0.037l-1.635-0.319l-0.082-1.683l0.25-22.655l1.965-0.014
		c0,0,2.514-0.017,4.474-0.017c1.013,0,1.883,0.005,2.212,0.019c1.869,0.074,3.207,1.395,3.572,1.797
		c0.802,0.879,2.256,4.669,2.385,7.147c0.121,2.335-0.496,8.275-1.826,10.588c-1.125,1.959-2.361,3.184-4.133,4.097
		c-1.154,0.595-3.05,0.951-5.635,1.059C94.154,70.521,93.895,70.525,93.699,70.525z"/>
	<path fill="#D3AF8E" d="M93.459,47.817c0,0,5.64-0.038,6.592,0c0.953,0.038,1.791,0.724,2.172,1.144
		c0.382,0.418,1.754,3.695,1.867,5.906c0.115,2.21-0.532,7.697-1.562,9.488s-2.058,2.667-3.315,3.314
		c-1.258,0.648-3.887,0.801-4.801,0.839c-0.915,0.038-1.182,0-1.182,0L93.459,47.817z"/>
	<path d="M62.243,99.901c-0.949,0-1.913-0.035-2.864-0.104c-9.592-0.694-18.37-4.785-24.717-11.519
		c-6.391-6.782-9.554-15.425-8.908-24.336l0.355-12.23c-0.002-8.877,3.778-17.269,10.642-23.571
		c6.815-6.257,15.865-9.703,25.483-9.703c9.617,0,18.668,3.446,25.483,9.703c6.863,6.303,10.643,14.694,10.643,23.63l-0.538,17.307
		c-0.65,8.994-5.025,17.091-12.326,22.881C79.039,97.08,70.781,99.901,62.243,99.901z"/>
	<path fill="#D3AF8E" d="M95.822,69.016c-0.624,8.629-5,16.166-11.568,21.376s-15.332,8.092-24.73,7.411
		c-9.398-0.68-17.655-4.794-23.406-10.896c-5.749-6.102-8.994-14.19-8.369-22.819l0.359-12.316c0-8.652,3.82-16.485,9.996-22.156
		c6.176-5.67,14.707-9.177,24.131-9.177s17.955,3.507,24.131,9.177c6.176,5.671,9.995,13.504,9.995,22.156L95.822,69.016z"/>
	<path d="M30.355,73.943c-1.588-0.202-9.633-1.273-12.143-2.53c-3.029-1.513-5.385-4.799-5.601-7.812
		c-0.185-2.591-0.335-7.452,0.011-10.225c0.551-4.406,5.428-6.683,6.908-7.275c2.699-1.079,10.074-1.73,10.906-1.802l2.17-0.185
		v30.114L30.355,73.943z"/>
	<path fill="#D3AF8E" d="M30.607,71.959c0,0-9.166-1.166-11.5-2.334c-2.334-1.166-4.333-3.832-4.5-6.166s-0.333-7.166,0-9.834
		c0.333-2.666,3.167-4.666,5.667-5.666s10.333-1.666,10.333-1.666V71.959z"/>
	<path fill="#D3AF8E" d="M93.459,47.817c0,0,5.64-0.038,6.592,0c0.953,0.038,1.791,0.724,2.172,1.144
		c0.382,0.418,1.754,3.695,1.867,5.906c0.115,2.21-0.532,7.697-1.562,9.488s-2.058,2.667-3.315,3.314
		c-1.258,0.648-3.887,0.801-4.801,0.839c-0.915,0.038-1.182,0-1.182,0L93.459,47.817z"/>
	<path d="M94.869,53.076c0,0,2.058-0.839,3.201-0.877c1.143-0.038,2.896,0.438,2.896,0.438s-0.915,0.554-0.952,1.011
		c-0.039,0.457-0.076,2.82-0.191,3.506c-0.113,0.686-0.893,1.562-1.486,2.017c-0.592,0.455-1.066,1.451-1.143,2.175
		s-2.134,1.943-2.134,1.943L94.869,53.076z"/>
	<path fill="#D3AF8E" d="M95.822,69.016c-0.624,8.629-5,16.166-11.568,21.376s-15.332,8.092-24.73,7.411
		c-9.398-0.68-17.655-4.794-23.406-10.896c-5.749-6.102-8.994-14.19-8.369-22.819l0.359-12.316c0-8.652,3.82-16.485,9.996-22.156
		c6.176-5.67,14.707-9.177,24.131-9.177s17.955,3.507,24.131,9.177c6.176,5.671,9.995,13.504,9.995,22.156L95.822,69.016z"/>
	<path fill="#C8A687" d="M83.436,78.156c-5.402,3.748-12.336,5.812-19.525,5.812c-0.805,0-1.623-0.026-2.432-0.078
		c-8.09-0.512-15.471-3.51-20.783-8.44c-5.224-4.849-7.812-10.996-7.29-17.31l0.009-0.15l0.361-10.875
		c0-2.697,0.565-5.328,1.645-7.809c-2.161,3.813-3.312,8.062-3.312,12.465l-0.36,12.433l-0.009,0.173
		c-0.523,7.216,2.066,14.243,7.291,19.787c5.312,5.637,12.693,9.063,20.783,9.648c0.808,0.059,1.625,0.089,2.431,0.089
		c7.189,0,14.123-2.359,19.524-6.644c5.947-4.716,9.518-11.267,10.06-18.453l0.015-0.463C90.164,72.1,87.308,75.471,83.436,78.156z"
		/>
	<path fill="#D3AF8E" d="M30.607,71.959c0,0-9.166-1.166-11.5-2.334c-2.334-1.166-4.333-3.832-4.5-6.166s-0.333-7.166,0-9.834
		c0.333-2.666,3.167-4.666,5.667-5.666s10.333-1.666,10.333-1.666V71.959z"/>
	<path d="M29.892,57.131c0,0-0.449-1.646-1.646-2.318s-2.505-1.196-4.038-1.01c-1.533,0.188-2.319,0.637-3.553,1.271
		c-1.233,0.636-1.683,1.271-1.832,2.057s-0.374,2.094,0,2.879s0.636,0.861,1.047,0.562s0.187-1.271,0.187-1.757
		s1.318-2.133,2.455-2.356c1.135-0.224,2.521-0.204,2.93,0c0.599,0.3,1.01,1.309,1.01,1.309s-0.465,0.858-0.859,1.358
		c-0.396,0.5-0.86,1.371-0.785,2.008c0.074,0.635,0.561,0.71,1.42,1.943c0.86,1.234,1.445,2.693,1.445,2.693
		s-0.174-2.506-0.847-3.441c-0.673-0.934-0.822-1.532-0.411-2.28S29.892,57.131,29.892,57.131z"/>
</g>
<g>
	<path d="M85.321,59.957c0,3.45-1.185,6.252-3.556,8.397c-2.37,2.149-5.531,3.376-9.481,3.686l-0.154,3.504h-2.292V65.522
		c2.488-0.206,4.438-0.994,5.848-2.358c1.408-1.367,2.112-3.225,2.112-5.578c0-1.872-0.493-3.371-1.481-4.497
		c-0.987-1.124-2.314-1.687-3.98-1.687c-0.705,0-1.333,0.071-1.88,0.219c-0.552,0.145-1.085,0.373-1.601,0.682
		c0.172,0.55,0.376,1.259,0.606,2.126c0.233,0.868,0.349,1.671,0.349,2.409c0,1.202-0.391,2.135-1.173,2.795
		c-0.78,0.663-1.867,0.991-3.259,0.991c-1.306,0-2.331-0.412-3.08-1.236c-0.746-0.824-1.119-1.836-1.119-3.038
		c0-1.976,1.124-3.651,3.375-5.025c2.25-1.374,4.964-2.062,8.142-2.062c3.762,0,6.808,0.979,9.134,2.938
		C84.158,54.158,85.321,56.745,85.321,59.957z M76.046,82.655c0,1.306-0.493,2.427-1.482,3.362
		c-0.986,0.938-2.142,1.403-3.465,1.403c-1.34,0-2.503-0.466-3.491-1.403c-0.987-0.936-1.48-2.057-1.48-3.362
		s0.493-2.434,1.48-3.389c0.988-0.952,2.151-1.431,3.491-1.431c1.323,0,2.479,0.479,3.465,1.431
		C75.553,80.222,76.046,81.35,76.046,82.655z"/>
</g>
</svg>
