<?xml version="1.0" encoding="utf-8"?>
<!-- Generator: Adobe Illustrator 16.0.0, SVG Export Plug-In . SVG Version: 6.00 Build 0)  -->
<!DOCTYPE svg PUBLIC "-//W3C//DTD SVG 1.1//EN" "http://www.w3.org/Graphics/SVG/1.1/DTD/svg11.dtd">
<svg version="1.1" id="Layer_1" xmlns="http://www.w3.org/2000/svg" xmlns:xlink="http://www.w3.org/1999/xlink" x="0px" y="0px"
	 width="120px" height="120px" viewBox="0 0 120 120" enable-background="new 0 0 120 120" xml:space="preserve">
<g>
	<circle cx="59.462" cy="59.859" r="39.899"/>
	<linearGradient id="SVGID_1_" gradientUnits="userSpaceOnUse" x1="59.4619" y1="25.0791" x2="59.4619" y2="94.6392">
		<stop  offset="0" style="stop-color:#808080"/>
		<stop  offset="1" style="stop-color:#000000"/>
	</linearGradient>
	<circle fill="url(#SVGID_1_)" cx="59.462" cy="59.859" r="34.78"/>
	<linearGradient id="SVGID_2_" gradientUnits="userSpaceOnUse" x1="59.4619" y1="25.0791" x2="59.4619" y2="94.6392">
		<stop  offset="0" style="stop-color:#808080"/>
		<stop  offset="1" style="stop-color:#000000"/>
	</linearGradient>
	<circle fill="url(#SVGID_2_)" cx="59.462" cy="59.859" r="34.78"/>
	<linearGradient id="SVGID_3_" gradientUnits="userSpaceOnUse" x1="58.6929" y1="29.2236" x2="58.6929" y2="58.3047">
		<stop  offset="0" style="stop-color:#F2F2F2"/>
		<stop  offset="1" style="stop-color:#999999"/>
	</linearGradient>
	<path fill="url(#SVGID_3_)" d="M32.39,49.263c-2.197-3.317,2.645-8.28,5.42-11.056c2.775-2.775,6.076-5.02,9.74-6.572
		c3.664-1.552,7.689-2.411,11.912-2.411s8.248,0.859,11.912,2.411c3.663,1.553,6.964,3.797,9.739,6.572s5.646,7.395,3.912,10.977
		C79.004,61.631,40.183,61.028,32.39,49.263z"/>
	
		<ellipse transform="matrix(0.9591 -0.2831 0.2831 0.9591 -12.0117 22.9333)" fill="#FFFFFF" cx="73.359" cy="53.035" rx="14.618" ry="15.155"/>
	<g>
		<path d="M72.822,53.169c-0.777-0.053-1.406-0.275-1.891-0.67c-0.477-0.398-0.822-0.895-1.029-1.492
			c-0.353-1.021-0.287-1.99,0.198-2.901c0.483-0.913,1.38-1.598,2.698-2.051c1.301-0.449,2.427-0.463,3.378-0.045
			c0.95,0.417,1.599,1.138,1.953,2.16c0.219,0.635,0.249,1.259,0.089,1.868c-0.159,0.609-0.491,1.147-1,1.615
			c0.865,0.044,1.598,0.289,2.195,0.741c0.599,0.448,1.029,1.057,1.293,1.821c0.436,1.267,0.389,2.433-0.148,3.503
			c-0.531,1.069-1.469,1.836-2.809,2.298c-1.248,0.431-2.398,0.459-3.451,0.093c-1.249-0.436-2.102-1.325-2.566-2.674
			c-0.256-0.74-0.304-1.485-0.152-2.23C71.734,54.456,72.148,53.778,72.822,53.169z M74.236,56.29
			c0.248,0.726,0.629,1.223,1.139,1.503c0.511,0.275,1.045,0.318,1.6,0.129c0.543-0.187,0.923-0.538,1.144-1.051
			c0.22-0.512,0.204-1.136-0.05-1.868c-0.222-0.644-0.58-1.098-1.076-1.362c-0.496-0.266-1.021-0.303-1.574-0.111
			c-0.642,0.224-1.045,0.607-1.207,1.16C74.05,55.239,74.058,55.774,74.236,56.29z M72.455,50.336
			c0.18,0.524,0.469,0.882,0.863,1.072c0.399,0.19,0.845,0.2,1.337,0.03c0.497-0.17,0.846-0.457,1.044-0.855
			c0.196-0.399,0.204-0.861,0.023-1.383c-0.169-0.494-0.455-0.836-0.852-1.03c-0.398-0.194-0.84-0.208-1.328-0.043
			c-0.504,0.177-0.854,0.466-1.051,0.867C72.297,49.398,72.285,49.842,72.455,50.336z"/>
	</g>
</g>
</svg>
