<?xml version="1.0" encoding="utf-8"?>
<!-- Generator: Adobe Illustrator 16.0.0, SVG Export Plug-In . SVG Version: 6.00 Build 0)  -->
<!DOCTYPE svg PUBLIC "-//W3C//DTD SVG 1.1//EN" "http://www.w3.org/Graphics/SVG/1.1/DTD/svg11.dtd">
<svg version="1.1" id="Layer_1" xmlns="http://www.w3.org/2000/svg" xmlns:xlink="http://www.w3.org/1999/xlink" x="0px" y="0px"
	 width="120px" height="120px" viewBox="0 0 120 120" enable-background="new 0 0 120 120" xml:space="preserve">
<path d="M93.723,70.525c-0.561,0-0.75-0.037-0.75-0.037l-1.636-0.319l-0.082-1.683l0.251-22.655l1.964-0.014
	c0,0,2.515-0.017,4.474-0.017c1.014,0,1.883,0.005,2.213,0.019c1.867,0.074,3.206,1.395,3.572,1.797
	c0.801,0.879,2.256,4.669,2.384,7.147c0.12,2.335-0.497,8.275-1.825,10.588c-1.126,1.959-2.362,3.184-4.135,4.097
	c-1.152,0.595-3.049,0.951-5.633,1.059C94.179,70.521,93.919,70.525,93.723,70.525z"/>
<path fill="#D3AF8E" d="M93.483,47.817c0,0,5.64-0.038,6.593,0c0.952,0.038,1.79,0.724,2.172,1.144
	c0.381,0.418,1.752,3.695,1.867,5.906c0.113,2.21-0.533,7.697-1.562,9.488s-2.059,2.667-3.315,3.314
	c-1.257,0.648-3.887,0.801-4.802,0.839c-0.914,0.038-1.181,0-1.181,0L93.483,47.817z"/>
<path d="M62.268,99.901c-0.949,0-1.913-0.035-2.865-0.104c-9.592-0.694-18.37-4.785-24.716-11.519
	c-6.39-6.782-9.554-15.425-8.908-24.336l0.355-12.23c-0.001-8.877,3.779-17.269,10.642-23.571
	c6.815-6.257,15.865-9.703,25.483-9.703s18.668,3.446,25.483,9.703c6.863,6.303,10.643,14.694,10.643,23.63l-0.539,17.307
	c-0.648,8.994-5.024,17.091-12.325,22.881C79.062,97.08,70.805,99.901,62.268,99.901z"/>
<path fill="#D3AF8E" d="M95.848,69.016c-0.625,8.629-5,16.166-11.57,21.376c-6.568,5.21-15.331,8.092-24.73,7.411
	c-9.398-0.68-17.655-4.794-23.405-10.896c-5.75-6.102-8.994-14.19-8.369-22.819l0.359-12.316c0-8.652,3.82-16.485,9.996-22.156
	c6.175-5.67,14.708-9.177,24.131-9.177c9.423,0,17.955,3.507,24.131,9.177c6.175,5.671,9.995,13.504,9.995,22.156L95.848,69.016z"/>
<path d="M30.379,73.943c-1.587-0.202-9.632-1.273-12.143-2.53c-3.029-1.513-5.384-4.799-5.6-7.812
	c-0.185-2.591-0.335-7.452,0.011-10.225c0.55-4.406,5.427-6.683,6.909-7.275c2.699-1.079,10.074-1.73,10.906-1.802l2.169-0.185
	v30.114L30.379,73.943z"/>
<path fill="#D3AF8E" d="M30.632,71.959c0,0-9.167-1.166-11.5-2.334c-2.333-1.166-4.333-3.832-4.5-6.166s-0.333-7.166,0-9.834
	c0.333-2.666,3.167-4.666,5.667-5.666s10.333-1.666,10.333-1.666V71.959z"/>
<path fill="#D3AF8E" d="M93.483,47.817c0,0,5.64-0.038,6.593,0c0.952,0.038,1.79,0.724,2.172,1.144
	c0.381,0.418,1.752,3.695,1.867,5.906c0.113,2.21-0.533,7.697-1.562,9.488s-2.059,2.667-3.315,3.314
	c-1.257,0.648-3.887,0.801-4.802,0.839c-0.914,0.038-1.181,0-1.181,0L93.483,47.817z"/>
<path d="M94.893,53.076c0,0,2.059-0.839,3.201-0.877c1.144-0.038,2.896,0.438,2.896,0.438s-0.914,0.554-0.953,1.011
	c-0.037,0.457-0.076,2.82-0.189,3.506c-0.115,0.686-0.895,1.562-1.486,2.017c-0.594,0.455-1.067,1.451-1.144,2.175
	s-2.134,1.943-2.134,1.943L94.893,53.076z"/>
<path fill="#D3AF8E" d="M95.848,69.016c-0.625,8.629-5,16.166-11.57,21.376c-6.568,5.21-15.331,8.092-24.73,7.411
	c-9.398-0.68-17.655-4.794-23.405-10.896c-5.75-6.102-8.994-14.19-8.369-22.819l0.359-12.316c0-8.652,3.82-16.485,9.996-22.156
	c6.175-5.67,14.708-9.177,24.131-9.177c9.423,0,17.955,3.507,24.131,9.177c6.175,5.671,9.995,13.504,9.995,22.156L95.848,69.016z"/>
<path fill="#D3AF8E" d="M30.632,71.959c0,0-9.167-1.166-11.5-2.334c-2.333-1.166-4.333-3.832-4.5-6.166s-0.333-7.166,0-9.834
	c0.333-2.666,3.167-4.666,5.667-5.666s10.333-1.666,10.333-1.666V71.959z"/>
<path d="M29.916,57.131c0,0-0.449-1.646-1.646-2.318s-2.505-1.196-4.038-1.01c-1.533,0.188-2.319,0.637-3.553,1.271
	c-1.234,0.636-1.683,1.271-1.832,2.057s-0.374,2.094,0,2.879s0.636,0.861,1.047,0.562s0.187-1.271,0.187-1.757
	s1.318-2.133,2.454-2.356s2.522-0.204,2.931,0c0.598,0.3,1.009,1.309,1.009,1.309s-0.464,0.858-0.86,1.358s-0.86,1.371-0.785,2.008
	c0.075,0.635,0.561,0.71,1.421,1.943c0.86,1.234,1.445,2.693,1.445,2.693s-0.174-2.506-0.847-3.441
	c-0.673-0.934-0.822-1.532-0.411-2.28S29.916,57.131,29.916,57.131z"/>
<g>
	<ellipse transform="matrix(0.9945 0.105 -0.105 0.9945 6.9909 -6.7418)" cx="67.516" cy="63.015" rx="2.297" ry="3.68"/>
	
		<ellipse transform="matrix(0.9944 0.1053 -0.1053 0.9944 6.912 -6.8708)" fill="#FFFFFF" cx="68.516" cy="62.015" rx="0.566" ry="0.905"/>
</g>
<g>
	<ellipse transform="matrix(0.997 -0.0773 0.0773 0.997 -4.6218 6.6367)" cx="83.409" cy="63.015" rx="1.958" ry="3.137"/>
	
		<ellipse transform="matrix(0.9971 -0.0756 0.0756 0.9971 -4.4486 6.5098)" fill="#FFFFFF" cx="83.786" cy="62.032" rx="0.401" ry="0.642"/>
</g>
<g>
	<path fill="#C8A687" d="M73.098,82.796c-2.938,0.757-6.021,1.173-9.163,1.173c-0.806,0-1.623-0.026-2.431-0.078
		c-8.09-0.512-15.471-3.51-20.784-8.44c-5.224-4.849-7.813-10.996-7.291-17.31l0.009-0.15l0.361-10.875
		c0-2.697,0.566-5.328,1.645-7.809c-2.161,3.813-3.312,8.062-3.312,12.465l-0.361,12.433l-0.009,0.173
		c-0.523,7.216,2.066,14.243,7.291,19.787c5.312,5.637,12.693,9.063,20.783,9.648c0.808,0.059,1.626,0.089,2.431,0.089
		c7.189,0,14.123-2.359,19.525-6.644c2.193-1.739,4.061-3.73,5.574-5.909L73.098,82.796z"/>
	<path fill="#C8A687" d="M86.887,75.333c0.257,0.392,0.496,0.812,0.699,1.27c0.52,1.168,0.812,2.114,0.98,2.843
		c1.867-3.255,3-6.858,3.285-10.641l0.015-0.463C90.732,70.882,89.048,73.238,86.887,75.333z"/>
</g>
<path d="M56.509,83.679c-0.065,0-0.13-0.013-0.194-0.039c-0.254-0.107-0.374-0.4-0.267-0.655c0.42-0.997,1.573-1.771,1.622-1.804
	l0.235-0.156l0.256,0.122c0.026,0.012,2.606,1.217,6.585,1.307c2.75,0.062,10.536-0.521,16.154-0.75
	c2.615-0.106,4.763,0.271,5.709,0.091c2.605-0.497,2.465-0.84,2.469-0.853c0.08-0.258,0.355-0.408,0.615-0.341
	c0.261,0.073,0.775,1.272,0.693,1.531c-0.159,0.505-0.469-0.149-1.318,0.001c-0.515,0.091-1.191,0.438-2.271,0.644
	c-3.168,0.603-18.194,0.765-22.073,0.677c-3.485-0.079-5.771-0.456-6.568-0.784c-0.332,0.261-0.986,0.23-1.186,0.704
	C56.89,83.563,56.704,83.679,56.509,83.679z"/>
<path d="M78.859,89.761c2.998-0.282,4.158-1.077,4.402-2.735c0.264-1.793,0.093-1.637,0.091-1.675
	c-0.013-0.226-0.136-0.401-0.354-0.395c-0.226,0.014-0.296,0.096-0.283,0.321c0,0.009-0.014-0.066-0.264,1.629
	c-0.125,0.855-0.543,1.484-2.053,1.595c-1.02,0.073-1.691-0.957-3.93-0.957c-0.693,0-3.691,0.595-4.992,0.704
	c-1.827,0.153-2.592,0.164-2.812-0.313c-0.18-0.389-0.315-1.332-0.193-2.104c0.034-0.223-0.118-0.433-0.342-0.468
	c-0.222-0.036-0.434,0.117-0.469,0.34c-0.055,0.353-0.314,2.142,0.033,2.893c0.306,0.662,1.234,1.083,4.623,1.231L78.859,89.761z"/>
<path fill="#D3AF8E" d="M82.715,85.277c0,0.009-0.014-0.066-0.264,1.629c-0.125,0.855-0.543,1.484-2.053,1.595
	c-1.02,0.073-1.691-0.957-3.93-0.957c-0.693,0-3.691,0.595-4.992,0.704c-1.827,0.153-2.592,0.164-2.812-0.313
	c-0.18-0.389-0.315-1.332-0.193-2.104c0,0,7.319-1.285,9.245-1.36C79.352,84.407,82.715,85.277,82.715,85.277z"/>
</svg>
