<?xml version="1.0" encoding="utf-8"?>
<!-- Generator: Adobe Illustrator 16.0.0, SVG Export Plug-In . SVG Version: 6.00 Build 0)  -->
<!DOCTYPE svg PUBLIC "-//W3C//DTD SVG 1.1//EN" "http://www.w3.org/Graphics/SVG/1.1/DTD/svg11.dtd">
<svg version="1.1" id="Layer_1" xmlns="http://www.w3.org/2000/svg" xmlns:xlink="http://www.w3.org/1999/xlink" x="0px" y="0px"
	 width="30px" height="30px" viewBox="-5 -5 30 30" enable-background="new -5 -5 30 30" xml:space="preserve">
<g>
	<path fill="#FFFFFF" d="M2.369,21C0.511,21-1,19.49-1,17.635v-7.89c0-1.856,1.511-3.367,3.369-3.367h7.884
		c0.489,0,0.952,0.098,1.377,0.294c0.267,0.117,0.474,0.377,0.531,0.677c0.036,0.196,0.015,0.388-0.058,0.557l0.494-0.496
		c0.266-0.27,0.619-0.417,0.992-0.417s0.727,0.147,0.994,0.419l1.041,1.04c0.27,0.265,0.418,0.619,0.418,0.992
		s-0.148,0.727-0.42,0.993l-3.314,3.315c0.116-0.05,0.243-0.077,0.371-0.077h0.158l0.254,0.103c0.305,0.127,0.531,0.467,0.531,0.842
		v3.016c0,1.855-1.514,3.365-3.371,3.365H2.369z"/>
	<path fill="#FFFFFF" d="M3.886,10.631c0.373,0,0.727,0.148,0.994,0.419l2.04,2.04l4.225-4.225c-0.121,0.052-0.25,0.081-0.379,0.081
		h-0.109L10.467,8.89c-0.035-0.006-0.125-0.019-0.213-0.019H2.369c-0.483,0-0.877,0.394-0.877,0.875v2.938
		c0.067-0.223,0.19-0.427,0.361-0.596l1.042-1.042C3.159,10.779,3.513,10.631,3.886,10.631z"/>
	<path d="M12.984,17.635c0,1.506-1.224,2.727-2.731,2.727H2.369c-1.506,0-2.729-1.221-2.729-2.727v-7.89
		c0-1.506,1.223-2.729,2.729-2.729h7.884c0.381,0,0.761,0.075,1.11,0.235c0.086,0.038,0.152,0.123,0.171,0.219
		c0.019,0.104-0.011,0.2-0.085,0.273l-0.465,0.468c-0.058,0.056-0.143,0.094-0.219,0.094c-0.027,0-0.058-0.008-0.086-0.019
		c-0.141-0.038-0.283-0.058-0.428-0.058H2.369c-0.833,0-1.517,0.683-1.517,1.516v7.888c0,0.834,0.684,1.516,1.517,1.516h7.884
		c0.836,0,1.519-0.682,1.519-1.516v-2.408c0-0.074,0.027-0.151,0.086-0.209l0.606-0.607c0.065-0.064,0.142-0.094,0.218-0.094
		c0.039,0,0.073,0.008,0.113,0.029c0.112,0.047,0.189,0.149,0.189,0.274V17.635z"/>
	<path d="M7.459,17.698c-0.302,0.304-0.777,0.304-1.082,0l-4.075-4.076c-0.304-0.302-0.304-0.777,0-1.079l1.044-1.044
		c0.302-0.304,0.777-0.304,1.079,0l2.494,2.494l6.131-6.132c0.304-0.305,0.777-0.305,1.079,0l1.044,1.042
		c0.306,0.302,0.306,0.776,0,1.079L7.459,17.698z"/>
</g>
</svg>
